<svg width="322" height="312" viewBox="0 0 322 312" fill="none" xmlns="http://www.w3.org/2000/svg">
<mask id="path-1-inside-1_53_414" fill="white">
<path fill-rule="evenodd" clip-rule="evenodd" d="M0 133.639C0 166.402 22.7135 193.725 52.876 199.959C43.8308 211.538 38.4211 226.232 38.4211 242.221C38.4211 279.586 67.9633 309.876 104.405 309.876C127.638 309.876 148.066 297.565 159.823 278.959C179.501 309.558 219.201 320.226 250.479 302.607C282.962 284.31 294.061 242.434 275.271 209.075C273.659 206.215 271.881 203.51 269.955 200.967C276.161 199.593 282.258 197.297 288.065 194.025C320.548 175.728 331.647 133.852 312.856 100.493C295.866 70.331 260.256 57.4588 229.577 68.7944C227.509 30.4278 197.874 0 161.62 0C124.313 0 94.0165 32.2195 93.5528 72.1541C85.1638 68.1933 75.8256 65.9842 65.9843 65.9842C29.5422 65.9842 0 96.2743 0 133.639Z"/>
</mask>
<path fill-rule="evenodd" clip-rule="evenodd" d="M0 133.639C0 166.402 22.7135 193.725 52.876 199.959C43.8308 211.538 38.4211 226.232 38.4211 242.221C38.4211 279.586 67.9633 309.876 104.405 309.876C127.638 309.876 148.066 297.565 159.823 278.959C179.501 309.558 219.201 320.226 250.479 302.607C282.962 284.31 294.061 242.434 275.271 209.075C273.659 206.215 271.881 203.51 269.955 200.967C276.161 199.593 282.258 197.297 288.065 194.025C320.548 175.728 331.647 133.852 312.856 100.493C295.866 70.331 260.256 57.4588 229.577 68.7944C227.509 30.4278 197.874 0 161.62 0C124.313 0 94.0165 32.2195 93.5528 72.1541C85.1638 68.1933 75.8256 65.9842 65.9843 65.9842C29.5422 65.9842 0 96.2743 0 133.639Z" fill="#ABD8FF" fill-opacity="0.5"/>
<path d="M52.876 199.959L54.4521 201.19L56.4347 198.652L53.2808 198L52.876 199.959ZM159.823 278.959L161.505 277.877L159.808 275.238L158.132 277.891L159.823 278.959ZM250.479 302.607L249.498 300.865H249.498L250.479 302.607ZM275.271 209.075L273.528 210.057V210.057L275.271 209.075ZM269.955 200.967L269.523 199.014L266.478 199.689L268.361 202.174L269.955 200.967ZM288.065 194.025L289.047 195.768L288.065 194.025ZM312.856 100.493L314.599 99.5119L312.856 100.493ZM229.577 68.7944L227.58 68.9021L227.726 71.6105L230.27 70.6705L229.577 68.7944ZM93.5528 72.1541L92.6989 73.9627L95.5165 75.293L95.5526 72.1774L93.5528 72.1541ZM53.2808 198C24.0619 191.962 2 165.468 2 133.639H-2C-2 167.335 21.3651 195.489 52.4712 201.917L53.2808 198ZM40.4211 242.221C40.4211 226.689 45.6746 212.426 54.4521 201.19L51.2999 198.728C41.987 210.649 36.4211 225.774 36.4211 242.221H40.4211ZM104.405 307.876C69.1147 307.876 40.4211 278.528 40.4211 242.221H36.4211C36.4211 280.643 66.8119 311.876 104.405 311.876V307.876ZM158.132 277.891C146.718 295.954 126.908 307.876 104.405 307.876V311.876C128.367 311.876 149.414 299.176 161.514 280.027L158.132 277.891ZM249.498 300.865C219.188 317.938 180.639 307.63 161.505 277.877L158.141 280.041C178.363 311.487 219.215 322.514 251.461 304.35L249.498 300.865ZM273.528 210.057C291.802 242.497 280.975 283.134 249.498 300.865L251.461 304.35C284.949 285.486 296.321 242.371 277.013 208.094L273.528 210.057ZM268.361 202.174C270.232 204.646 271.961 207.275 273.528 210.057L277.013 208.094C275.358 205.155 273.53 202.375 271.55 199.76L268.361 202.174ZM287.084 192.283C281.45 195.456 275.538 197.682 269.523 199.014L270.388 202.92C276.783 201.503 283.066 199.137 289.047 195.768L287.084 192.283ZM311.114 101.475C329.387 133.916 318.561 174.552 287.084 192.283L289.047 195.768C322.535 176.904 333.907 133.789 314.599 99.5119L311.114 101.475ZM230.27 70.6705C260.006 59.6834 294.594 72.1477 311.114 101.475L314.599 99.5119C297.138 68.5142 260.507 55.2342 228.884 66.9184L230.27 70.6705ZM161.62 2C196.684 2 225.562 31.4651 227.58 68.9021L231.574 68.6868C229.456 29.3905 199.064 -2 161.62 -2V2ZM95.5526 72.1774C96.0052 33.2029 125.539 2 161.62 2V-2C123.088 -2 92.0278 31.2361 91.5529 72.1309L95.5526 72.1774ZM65.9843 67.9842C75.5231 67.9842 84.5702 70.1247 92.6989 73.9627L94.4067 70.3456C85.7573 66.2618 76.1282 63.9842 65.9843 63.9842V67.9842ZM2 133.639C2 97.3315 30.6936 67.9842 65.9843 67.9842V63.9842C28.3908 63.9842 -2 95.2172 -2 133.639H2Z" fill="white" mask="url(#path-1-inside-1_53_414)"/>
</svg>
