<svg width="386" height="373" viewBox="0 0 386 373" fill="none" xmlns="http://www.w3.org/2000/svg">
<path fill-rule="evenodd" clip-rule="evenodd" d="M0 160C0 199.226 27.1938 231.939 63.3061 239.402C52.4768 253.265 46 270.857 46 290C46 334.735 81.3695 371 125 371C152.815 371 177.272 356.261 191.349 333.985C214.909 370.62 262.44 383.392 299.888 362.298C338.778 340.391 352.066 290.255 329.569 250.316C327.64 246.892 325.511 243.654 323.205 240.609C330.635 238.963 337.935 236.214 344.888 232.298C383.778 210.391 397.066 160.255 374.569 120.316C354.227 84.2042 311.593 68.7929 274.862 82.3646C272.386 36.4299 236.906 0 193.5 0C148.835 0 112.562 38.5749 112.006 86.3869C101.963 81.6448 90.7826 79 79 79C35.3695 79 0 115.265 0 160Z" fill="#D9D9D9"/>
</svg>
