<svg width="419" height="267" viewBox="0 0 419 267" fill="none" xmlns="http://www.w3.org/2000/svg">
<g filter="url(#filter0_f_53_432)">
<mask id="path-1-inside-1_53_432" fill="white">
<path fill-rule="evenodd" clip-rule="evenodd" d="M50.3734 251.741C22.8675 237.53 4 208.312 4 174.576C4 126.884 41.7076 88.2221 88.2222 88.2221C100.784 88.2221 112.703 91.0417 123.411 96.0973C124.002 45.1249 162.673 4 210.291 4C256.566 4 294.391 42.8381 297.031 91.8091C336.191 77.3404 381.643 93.7704 403.329 132.27C427.314 174.849 413.147 228.299 371.686 251.654C355.966 260.509 338.579 263.766 321.742 262.076C321.209 262.096 320.674 262.106 320.136 262.106H78.4869C67.7571 262.106 57.9387 258.203 50.3734 251.741Z"/>
</mask>
<path fill-rule="evenodd" clip-rule="evenodd" d="M50.3734 251.741C22.8675 237.53 4 208.312 4 174.576C4 126.884 41.7076 88.2221 88.2222 88.2221C100.784 88.2221 112.703 91.0417 123.411 96.0973C124.002 45.1249 162.673 4 210.291 4C256.566 4 294.391 42.8381 297.031 91.8091C336.191 77.3404 381.643 93.7704 403.329 132.27C427.314 174.849 413.147 228.299 371.686 251.654C355.966 260.509 338.579 263.766 321.742 262.076C321.209 262.096 320.674 262.106 320.136 262.106H78.4869C67.7571 262.106 57.9387 258.203 50.3734 251.741Z" fill="#5F60D1" fill-opacity="0.19"/>
<path d="M50.3734 251.741L51.6725 250.22L51.4968 250.07L51.2915 249.964L50.3734 251.741ZM123.411 96.0973L122.557 97.9059L125.374 99.2362L125.41 96.1206L123.411 96.0973ZM297.031 91.8091L295.034 91.9168L295.18 94.6252L297.725 93.6852L297.031 91.8091ZM403.329 132.27L401.587 133.251V133.251L403.329 132.27ZM371.686 251.654L370.704 249.911L371.686 251.654ZM321.742 262.076L321.942 260.086L321.806 260.073L321.67 260.078L321.742 262.076ZM51.2915 249.964C24.4413 236.092 6 207.554 6 174.576H2C2 209.07 21.2937 238.968 49.4554 253.518L51.2915 249.964ZM6 174.576C6 127.941 42.859 90.2221 88.2222 90.2221V86.2221C40.5561 86.2221 2 125.827 2 174.576H6ZM88.2222 90.2221C100.481 90.2221 112.109 92.9732 122.557 97.9059L124.264 94.2888C113.296 89.1103 101.086 86.2221 88.2222 86.2221V90.2221ZM125.41 96.1206C125.991 46.1083 163.899 6 210.291 6V2C161.447 2 122.014 44.1414 121.411 96.0741L125.41 96.1206ZM210.291 6C255.376 6 292.444 43.8754 295.034 91.9168L299.028 91.7015C296.338 41.8007 257.755 2 210.291 2V6ZM297.725 93.6852C335.94 79.565 380.371 95.5872 401.587 133.251L405.072 131.288C382.915 91.9537 336.441 75.1157 296.338 89.9331L297.725 93.6852ZM401.587 133.251C425.054 174.912 411.159 227.123 370.704 249.911L372.667 253.396C415.134 229.475 429.574 174.786 405.072 131.288L401.587 133.251ZM370.704 249.911C355.358 258.556 338.386 261.736 321.942 260.086L321.543 264.066C338.772 265.795 356.574 262.462 372.667 253.396L370.704 249.911ZM321.67 260.078C321.161 260.096 320.65 260.106 320.136 260.106V264.106C320.698 264.106 321.258 264.095 321.815 264.075L321.67 260.078ZM320.136 260.106H78.4869V264.106H320.136V260.106ZM78.4869 260.106C68.2511 260.106 58.8893 256.385 51.6725 250.22L49.0744 253.262C56.9881 260.022 67.2631 264.106 78.4869 264.106V260.106Z" fill="white" mask="url(#path-1-inside-1_53_432)"/>
</g>
<defs>
<filter id="filter0_f_53_432" x="0" y="0" width="419" height="266.506" filterUnits="userSpaceOnUse" color-interpolation-filters="sRGB">
<feFlood flood-opacity="0" result="BackgroundImageFix"/>
<feBlend mode="normal" in="SourceGraphic" in2="BackgroundImageFix" result="shape"/>
<feGaussianBlur stdDeviation="2" result="effect1_foregroundBlur_53_432"/>
</filter>
</defs>
</svg>
