<svg width="269" height="268" viewBox="0 0 269 268" fill="none" xmlns="http://www.w3.org/2000/svg">
<g filter="url(#filter0_f_122_910)">
<mask id="path-1-inside-1_122_910" fill="white">
<path fill-rule="evenodd" clip-rule="evenodd" d="M21.2069 208.625C40.3799 227.303 69.3184 229.587 90.1616 215.49C91.7813 227.384 97.2961 238.927 106.653 248.042C128.519 269.343 163.087 269.323 183.862 247.997C197.107 234.401 201.549 215.428 197.363 197.94C226.488 203.869 255.364 186.718 262.885 158.369C270.696 128.929 252.517 98.5603 222.283 90.5392C219.691 89.8515 217.094 89.3504 214.508 89.0275C217.241 84.6122 219.374 79.7349 220.77 74.4716C228.58 45.0312 210.402 14.6627 180.168 6.6416C152.83 -0.610996 124.996 12.8901 114.14 37.307C90.508 16.6446 55.8067 16.6403 35.1383 37.8566C13.8702 59.6886 15.4533 95.7869 38.5591 118.825C31.4587 121.476 24.8424 125.681 19.2319 131.441C-1.54351 152.767 -0.659295 187.323 21.2069 208.625Z"/>
</mask>
<path fill-rule="evenodd" clip-rule="evenodd" d="M21.2069 208.625C40.3799 227.303 69.3184 229.587 90.1616 215.49C91.7813 227.384 97.2961 238.927 106.653 248.042C128.519 269.343 163.087 269.323 183.862 247.997C197.107 234.401 201.549 215.428 197.363 197.94C226.488 203.869 255.364 186.718 262.885 158.369C270.696 128.929 252.517 98.5603 222.283 90.5392C219.691 89.8515 217.094 89.3504 214.508 89.0275C217.241 84.6122 219.374 79.7349 220.77 74.4716C228.58 45.0312 210.402 14.6627 180.168 6.6416C152.83 -0.610996 124.996 12.8901 114.14 37.307C90.508 16.6446 55.8067 16.6403 35.1383 37.8566C13.8702 59.6886 15.4533 95.7869 38.5591 118.825C31.4587 121.476 24.8424 125.681 19.2319 131.441C-1.54351 152.767 -0.659295 187.323 21.2069 208.625Z" fill="#D290D5" fill-opacity="0.35"/>
<path d="M90.1616 215.49L92.1433 215.22L91.7088 212.029L89.0411 213.833L90.1616 215.49ZM197.363 197.94L197.762 195.981L194.687 195.355L195.418 198.406L197.363 197.94ZM262.885 158.369L260.952 157.856L262.885 158.369ZM222.283 90.5392L222.796 88.6061L222.796 88.6061L222.283 90.5392ZM214.508 89.0275L212.807 87.9747L211.166 90.6258L214.26 91.0121L214.508 89.0275ZM220.77 74.4716L218.837 73.9588L218.837 73.9588L220.77 74.4716ZM180.168 6.6416L180.68 4.70847L180.168 6.6416ZM114.14 37.307L112.823 38.8126L114.865 40.598L115.967 38.1195L114.14 37.307ZM38.5591 118.825L39.2587 120.698L42.1777 119.608L39.9712 117.408L38.5591 118.825ZM89.0411 213.833C68.9961 227.391 41.1068 225.219 22.6025 207.192L19.8113 210.057C39.6529 229.386 69.6407 231.784 91.2821 217.147L89.0411 213.833ZM108.049 246.609C99.0194 237.813 93.7043 226.684 92.1433 215.22L88.1799 215.76C89.8583 228.085 95.5729 240.04 105.257 249.474L108.049 246.609ZM182.43 246.601C162.458 267.103 129.158 267.173 108.049 246.609L105.257 249.474C127.881 271.514 163.716 271.543 185.295 249.392L182.43 246.601ZM195.418 198.406C199.454 215.27 195.166 233.528 182.43 246.601L185.295 249.392C199.049 235.274 203.643 215.587 199.308 197.475L195.418 198.406ZM260.952 157.856C253.716 185.131 225.901 201.709 197.762 195.981L196.964 199.9C227.076 206.03 257.013 188.305 264.818 158.882L260.952 157.856ZM221.77 92.4723C250.986 100.223 268.466 129.532 260.952 157.856L264.818 158.882C272.925 128.326 254.049 96.8975 222.796 88.6061L221.77 92.4723ZM214.26 91.0121C216.757 91.3239 219.265 91.8078 221.77 92.4723L222.796 88.6061C220.116 87.8952 217.431 87.377 214.756 87.0429L214.26 91.0121ZM218.837 73.9588C217.492 79.0292 215.438 83.7249 212.807 87.9747L216.208 90.0803C219.044 85.4996 221.256 80.4406 222.703 74.9845L218.837 73.9588ZM179.655 8.57472C208.87 16.3256 226.351 45.6342 218.837 73.9588L222.703 74.9845C230.81 44.4283 211.934 12.9998 180.68 4.70847L179.655 8.57472ZM115.967 38.1195C126.415 14.6217 153.244 1.56794 179.655 8.57472L180.68 4.70847C152.416 -2.78993 123.577 11.1585 112.312 36.4944L115.967 38.1195ZM36.5709 39.2522C56.4091 18.888 89.8924 18.763 112.823 38.8126L115.456 35.8013C91.1236 14.5261 55.2042 14.3925 33.7057 36.461L36.5709 39.2522ZM39.9712 117.408C17.5454 95.0486 16.1583 60.206 36.5709 39.2522L33.7057 36.461C11.5822 59.1712 13.3611 96.5251 37.147 120.241L39.9712 117.408ZM20.6645 132.836C26.0638 127.294 32.428 123.249 39.2587 120.698L37.8595 116.951C30.4894 119.703 23.6209 124.069 17.7993 130.045L20.6645 132.836ZM22.6025 207.192C1.49352 186.628 0.692534 153.338 20.6645 132.836L17.7993 130.045C-3.77955 152.196 -2.81211 188.018 19.8113 210.057L22.6025 207.192Z" fill="white" mask="url(#path-1-inside-1_122_910)"/>
</g>
<defs>
<filter id="filter0_f_122_910" x="0.210815" y="0.684692" width="268.485" height="267.32" filterUnits="userSpaceOnUse" color-interpolation-filters="sRGB">
<feFlood flood-opacity="0" result="BackgroundImageFix"/>
<feBlend mode="normal" in="SourceGraphic" in2="BackgroundImageFix" result="shape"/>
<feGaussianBlur stdDeviation="2" result="effect1_foregroundBlur_122_910"/>
</filter>
</defs>
</svg>
