<svg width="76" height="74" viewBox="0 0 76 74" fill="none" xmlns="http://www.w3.org/2000/svg">
<g filter="url(#filter0_f_53_450)">
<mask id="path-1-inside-1_53_450" fill="white">
<path fill-rule="evenodd" clip-rule="evenodd" d="M6.69625 48.0163C10.2992 53.8035 17.316 56.1322 23.3293 53.9163C23.0049 56.9564 23.6652 60.1468 25.4236 62.9711C29.5325 69.5712 38.0819 71.6729 44.519 67.6654C48.6228 65.1105 50.8774 60.6895 50.908 56.1099C57.749 59.351 65.9348 56.8696 69.5223 50.3177C73.2479 43.5135 70.6034 34.896 63.6157 31.0699C63.0166 30.7419 62.405 30.4597 61.7851 30.2223C62.7301 29.297 63.5547 28.2209 64.2208 27.0045C67.9463 20.2003 65.3019 11.5828 58.3142 7.75671C51.996 4.29723 44.2903 5.9395 40.1177 11.3157C35.5332 4.76609 26.9524 2.65025 20.5484 6.63712C13.9587 10.7397 12.1502 19.7626 16.4599 26.8677C14.5425 27.0906 12.6501 27.7273 10.9117 28.8095C4.47458 32.8171 2.58726 41.4162 6.69625 48.0163Z"/>
</mask>
<path fill-rule="evenodd" clip-rule="evenodd" d="M6.69625 48.0163C10.2992 53.8035 17.316 56.1322 23.3293 53.9163C23.0049 56.9564 23.6652 60.1468 25.4236 62.9711C29.5325 69.5712 38.0819 71.6729 44.519 67.6654C48.6228 65.1105 50.8774 60.6895 50.908 56.1099C57.749 59.351 65.9348 56.8696 69.5223 50.3177C73.2479 43.5135 70.6034 34.896 63.6157 31.0699C63.0166 30.7419 62.405 30.4597 61.7851 30.2223C62.7301 29.297 63.5547 28.2209 64.2208 27.0045C67.9463 20.2003 65.3019 11.5828 58.3142 7.75671C51.996 4.29723 44.2903 5.9395 40.1177 11.3157C35.5332 4.76609 26.9524 2.65025 20.5484 6.63712C13.9587 10.7397 12.1502 19.7626 16.4599 26.8677C14.5425 27.0906 12.6501 27.7273 10.9117 28.8095C4.47458 32.8171 2.58726 41.4162 6.69625 48.0163Z" fill="#5F60D1" fill-opacity="0.13"/>
<path d="M23.3293 53.9163L25.318 54.1285L25.6598 50.9261L22.6378 52.0397L23.3293 53.9163ZM50.908 56.1099L51.7643 54.3025L48.9291 52.9592L48.9081 56.0965L50.908 56.1099ZM69.5223 50.3177L67.768 49.3572L69.5223 50.3177ZM63.6157 31.0699L64.5762 29.3157L64.5762 29.3157L63.6157 31.0699ZM61.7851 30.2223L60.3859 28.7932L58.158 30.9745L61.0697 32.0899L61.7851 30.2223ZM64.2208 27.0045L65.975 27.965L64.2208 27.0045ZM58.3142 7.75671L57.3536 9.51096L58.3142 7.75671ZM40.1177 11.3157L38.4792 12.4626L40.0346 14.6847L41.6977 12.542L40.1177 11.3157ZM16.4599 26.8677L16.6908 28.8543L19.7858 28.4945L18.1699 25.8304L16.4599 26.8677ZM22.6378 52.0397C17.5286 53.9223 11.5037 51.9541 8.3941 46.9593L4.99839 49.0734C9.09463 55.653 17.1033 58.342 24.0208 55.793L22.6378 52.0397ZM27.1214 61.9141C25.6048 59.4781 25.0398 56.7362 25.318 54.1285L21.3406 53.7041C20.9701 57.1765 21.7256 60.8155 23.7257 64.0282L27.1214 61.9141ZM43.462 65.9675C38.0023 69.3665 30.6717 67.6168 27.1214 61.9141L23.7257 64.0282C28.3934 71.5257 38.1614 73.9793 45.576 69.3632L43.462 65.9675ZM48.9081 56.0965C48.8817 60.0344 46.9466 63.7981 43.462 65.9675L45.576 69.3632C50.2989 66.4229 52.873 61.3445 52.908 56.1233L48.9081 56.0965ZM67.768 49.3572C64.7142 54.9346 57.6958 57.1127 51.7643 54.3025L50.0517 57.9173C57.8023 61.5894 67.1555 58.8046 71.2765 51.2782L67.768 49.3572ZM62.6552 32.8242C68.7183 36.144 70.9392 43.5656 67.768 49.3572L71.2765 51.2782C75.5565 43.4615 72.4885 33.648 64.5762 29.3157L62.6552 32.8242ZM61.0697 32.0899C61.6056 32.2952 62.1353 32.5395 62.6552 32.8242L64.5762 29.3157C63.8979 28.9443 63.2044 28.6242 62.5006 28.3546L61.0697 32.0899ZM62.4665 26.0439C61.8963 27.0853 61.192 28.004 60.3859 28.7932L63.1843 31.6514C64.2683 30.59 65.2131 29.3565 65.975 27.965L62.4665 26.0439ZM57.3536 9.51096C63.4168 12.8308 65.6377 20.2523 62.4665 26.0439L65.975 27.965C70.255 20.1483 67.1869 10.3348 59.2747 6.00246L57.3536 9.51096ZM41.6977 12.542C45.2536 7.96034 51.8762 6.51184 57.3536 9.51096L59.2747 6.00246C52.1157 2.08262 43.3271 3.91867 38.5377 10.0895L41.6977 12.542ZM21.6055 8.33497C26.9995 4.97685 34.4286 6.6757 38.4792 12.4626L41.7562 10.1688C36.6378 2.85649 26.9053 0.323648 19.4914 4.93927L21.6055 8.33497ZM18.1699 25.8304C14.3582 19.5465 16.0565 11.7896 21.6055 8.33497L19.4914 4.93927C11.8609 9.68977 9.94217 19.9788 14.7498 27.9049L18.1699 25.8304ZM11.9687 30.5074C13.4502 29.5851 15.0594 29.044 16.6908 28.8543L16.2289 24.8811C14.0256 25.1372 11.8499 25.8695 9.85468 27.1117L11.9687 30.5074ZM8.3941 46.9593C4.84382 41.2567 6.50907 33.9064 11.9687 30.5074L9.85468 27.1117C2.44009 31.7277 0.330693 41.5758 4.99839 49.0734L8.3941 46.9593Z" fill="white" mask="url(#path-1-inside-1_53_450)"/>
</g>
<defs>
<filter id="filter0_f_53_450" x="0.522461" y="0.621338" width="74.6887" height="73.0767" filterUnits="userSpaceOnUse" color-interpolation-filters="sRGB">
<feFlood flood-opacity="0" result="BackgroundImageFix"/>
<feBlend mode="normal" in="SourceGraphic" in2="BackgroundImageFix" result="shape"/>
<feGaussianBlur stdDeviation="2" result="effect1_foregroundBlur_53_450"/>
</filter>
</defs>
</svg>
