<svg width="1300" height="823" viewBox="0 0 1300 823" fill="none" xmlns="http://www.w3.org/2000/svg">
<g filter="url(#filter0_i_2118_129)">
<mask id="mask0_2118_129" style="mask-type:alpha" maskUnits="userSpaceOnUse" x="0" y="0" width="1300" height="819">
<rect width="1300" height="818.779" rx="50" fill="#06A0DB"/>
</mask>
<g mask="url(#mask0_2118_129)">
<rect width="1300" height="818.779" rx="50" fill="url(#paint0_linear_2118_129)"/>
</g>
</g>
<path d="M347.156 698.178C215.639 722.553 213.962 754.941 86 819L1249 819C1276.61 819 1299 796.614 1299 769V678.443V529.558C1299 496.377 1096.67 416.471 892.324 547.817C861.195 567.826 816.009 610.744 783.16 653.995C734.65 717.867 699.402 775.538 635.48 767.934C631.537 767.465 627.686 766.242 624.061 764.62C522.715 719.29 476.359 674.232 347.156 698.178Z" fill="url(#paint1_linear_2118_129)" fill-opacity="0.5"/>
<mask id="mask1_2118_129" style="mask-type:alpha" maskUnits="userSpaceOnUse" x="27" y="35" width="1224" height="749">
<rect x="28" y="36" width="1222" height="746.282" rx="49" stroke="white" stroke-width="2"/>
</mask>
<g mask="url(#mask1_2118_129)">
<rect x="28" y="36" width="1222" height="746.282" rx="49" stroke="white" stroke-width="2"/>
</g>
<path d="M281.822 697.178C155.509 721.553 166.398 754.441 43.5 818.5L1196 818V677.443V528.558C1196 495.377 1001.67 415.471 805.416 546.817C775.52 566.826 732.122 609.744 700.573 652.994C652.563 718.812 618.079 778.043 553.052 766.056C452.003 719.926 408.135 672.803 281.822 697.178Z" fill="url(#paint2_linear_2118_129)" fill-opacity="0.3"/>
<path d="M65.4756 738.993C58.328 744.282 51.6662 750.662 45.0084 756.906C23.9895 776.618 0 758.661 0 729.846V50C0 22.3858 22.3857 0 50 0H911C927.06 23.112 924.205 38.6292 911 68.0601C865.926 101.834 838.092 107.127 782.878 86.6219C753.462 68.2923 736.558 61.3914 704.065 68.0601C704.065 68.0601 592.131 115.889 560.18 194.126C539.501 258.884 520.602 295.883 465.604 363.889C414.202 410.59 381.408 429.339 312.424 443.164C254.982 445.855 223.22 442.532 166.922 428.082C125.349 414.367 102.204 410.816 61.8381 428.082C41.2298 441.128 35.9237 453.196 36.7795 482.608C42.901 519.027 50.1971 539.085 69.5173 574.257C89.2734 612.13 95.9414 635.352 94.1717 674.8C94.068 706.547 86.693 719.945 65.4756 738.993Z" fill="url(#paint3_linear_2118_129)" fill-opacity="0.6"/>
<g filter="url(#filter1_f_2118_129)">
<mask id="path-8-inside-1_2118_129" fill="white">
<path fill-rule="evenodd" clip-rule="evenodd" d="M253.373 807.741C225.867 793.53 207 764.312 207 730.576C207 682.884 244.708 644.222 291.222 644.222C303.784 644.222 315.703 647.042 326.411 652.097C327.002 601.125 365.673 560 413.291 560C459.566 560 497.391 598.838 500.031 647.809C539.191 633.34 584.643 649.77 606.329 688.27C630.314 730.849 616.147 784.299 574.686 807.654C558.966 816.509 541.579 819.766 524.742 818.076C524.209 818.096 523.674 818.106 523.136 818.106H281.487C270.757 818.106 260.939 814.203 253.373 807.741Z"/>
</mask>
<path fill-rule="evenodd" clip-rule="evenodd" d="M253.373 807.741C225.867 793.53 207 764.312 207 730.576C207 682.884 244.708 644.222 291.222 644.222C303.784 644.222 315.703 647.042 326.411 652.097C327.002 601.125 365.673 560 413.291 560C459.566 560 497.391 598.838 500.031 647.809C539.191 633.34 584.643 649.77 606.329 688.27C630.314 730.849 616.147 784.299 574.686 807.654C558.966 816.509 541.579 819.766 524.742 818.076C524.209 818.096 523.674 818.106 523.136 818.106H281.487C270.757 818.106 260.939 814.203 253.373 807.741Z" fill="#5F60D1" fill-opacity="0.19"/>
<path d="M253.373 807.741L254.672 806.22L254.497 806.07L254.291 805.964L253.373 807.741ZM326.411 652.097L325.557 653.906L328.374 655.236L328.41 652.121L326.411 652.097ZM500.031 647.809L498.034 647.917L498.18 650.625L500.725 649.685L500.031 647.809ZM606.329 688.27L604.587 689.251L604.587 689.251L606.329 688.27ZM574.686 807.654L573.704 805.911L573.704 805.911L574.686 807.654ZM524.742 818.076L524.942 816.086L524.806 816.073L524.67 816.078L524.742 818.076ZM254.291 805.964C227.441 792.092 209 763.554 209 730.576H205C205 765.07 224.294 794.968 252.455 809.518L254.291 805.964ZM209 730.576C209 683.941 245.859 646.222 291.222 646.222V642.222C243.556 642.222 205 681.827 205 730.576H209ZM291.222 646.222C303.481 646.222 315.109 648.973 325.557 653.906L327.264 650.289C316.296 645.11 304.086 642.222 291.222 642.222V646.222ZM328.41 652.121C328.991 602.108 366.899 562 413.291 562V558C364.447 558 325.014 600.141 324.411 652.074L328.41 652.121ZM413.291 562C458.376 562 495.444 599.875 498.034 647.917L502.028 647.701C499.338 597.801 460.755 558 413.291 558V562ZM500.725 649.685C538.94 635.565 583.371 651.587 604.587 689.251L608.072 687.288C585.915 647.954 539.441 631.116 499.338 645.933L500.725 649.685ZM604.587 689.251C628.054 730.912 614.159 783.123 573.704 805.911L575.667 809.396C618.134 785.475 632.574 730.786 608.072 687.288L604.587 689.251ZM573.704 805.911C558.358 814.556 541.386 817.736 524.942 816.086L524.543 820.066C541.772 821.795 559.574 818.462 575.667 809.396L573.704 805.911ZM524.67 816.078C524.161 816.096 523.65 816.106 523.136 816.106V820.106C523.698 820.106 524.258 820.095 524.815 820.075L524.67 816.078ZM523.136 816.106H281.487V820.106H523.136V816.106ZM281.487 816.106C271.251 816.106 261.889 812.385 254.672 806.22L252.074 809.262C259.988 816.022 270.263 820.106 281.487 820.106V816.106Z" fill="white" mask="url(#path-8-inside-1_2118_129)"/>
</g>
<g filter="url(#filter2_f_2118_129)">
<path fill-rule="evenodd" clip-rule="evenodd" d="M55 465.035C55 468.72 57.5551 471.794 60.9482 472.495C59.9306 473.798 59.3219 475.451 59.3219 477.25C59.3219 481.454 62.6455 484.861 66.7452 484.861C69.3589 484.861 71.6571 483.476 72.9798 481.383C75.1936 484.825 79.6599 486.026 83.1787 484.043C86.833 481.985 88.0817 477.274 85.9677 473.521C85.7864 473.199 85.5864 472.895 85.3697 472.609C86.0679 472.454 86.754 472.196 87.4073 471.828C91.0617 469.769 92.3104 465.058 90.1964 461.305C88.285 457.912 84.279 456.464 80.8275 457.739C80.5948 453.423 77.2609 450 73.1823 450C68.9853 450 65.5769 453.625 65.5247 458.117C64.581 457.672 63.5304 457.423 62.4233 457.423C58.3235 457.423 55 460.831 55 465.035Z" fill="white" fill-opacity="0.8"/>
</g>
<g filter="url(#filter3_f_2118_129)">
<path fill-rule="evenodd" clip-rule="evenodd" d="M923 717.457C923 720.511 925.117 723.058 927.928 723.639C927.085 724.718 926.581 726.088 926.581 727.579C926.581 731.061 929.335 733.885 932.732 733.885C934.897 733.885 936.802 732.737 937.898 731.003C939.732 733.855 943.433 734.85 946.348 733.207C949.376 731.502 950.411 727.598 948.659 724.489C948.509 724.222 948.343 723.97 948.164 723.733C948.742 723.605 949.311 723.391 949.852 723.086C952.88 721.38 953.914 717.477 952.163 714.367C950.579 711.556 947.26 710.356 944.4 711.413C944.207 707.836 941.445 705 938.065 705C934.588 705 931.764 708.003 931.72 711.726C930.938 711.357 930.068 711.151 929.151 711.151C925.754 711.151 923 713.974 923 717.457Z" fill="white" fill-opacity="0.8"/>
</g>
<g filter="url(#filter4_f_2118_129)">
<path fill-rule="evenodd" clip-rule="evenodd" d="M1035 473.457C1035 476.511 1037.12 479.058 1039.93 479.639C1039.09 480.718 1038.58 482.088 1038.58 483.579C1038.58 487.061 1041.33 489.885 1044.73 489.885C1046.9 489.885 1048.8 488.737 1049.9 487.003C1051.73 489.855 1055.43 490.85 1058.35 489.207C1061.38 487.502 1062.41 483.598 1060.66 480.489C1060.51 480.222 1060.34 479.97 1060.16 479.733C1060.74 479.605 1061.31 479.391 1061.85 479.086C1064.88 477.38 1065.91 473.477 1064.16 470.367C1062.58 467.556 1059.26 466.356 1056.4 467.413C1056.21 463.836 1053.44 461 1050.07 461C1046.59 461 1043.76 464.003 1043.72 467.726C1042.94 467.357 1042.07 467.151 1041.15 467.151C1037.75 467.151 1035 469.974 1035 473.457Z" fill="white" fill-opacity="0.8"/>
</g>
<g filter="url(#filter5_f_2118_129)">
<path fill-rule="evenodd" clip-rule="evenodd" d="M130.809 588.614C134.929 595.751 143.314 598.847 150.668 596.412C150.154 600.072 150.824 603.953 152.835 607.437C157.534 615.577 167.78 618.46 175.719 613.876C180.78 610.954 183.682 605.702 183.903 600.17C192.039 604.361 202.03 601.692 206.628 593.919C211.403 585.848 208.554 575.329 200.265 570.425C199.554 570.005 198.826 569.639 198.087 569.327C199.266 568.247 200.306 566.98 201.159 565.537C205.934 557.465 203.085 546.946 194.796 542.043C187.301 537.609 177.924 539.283 172.666 545.612C167.39 537.514 157.107 534.612 149.209 539.172C141.082 543.865 138.534 554.694 143.456 563.452C141.13 563.645 138.818 564.338 136.674 565.576C128.735 570.159 126.109 580.474 130.809 588.614Z" fill="white" fill-opacity="0.24"/>
</g>
<g filter="url(#filter6_f_2118_129)">
<circle cx="1085.04" cy="438.037" r="8.03709" fill="white" fill-opacity="0.8"/>
</g>
<g filter="url(#filter7_f_2118_129)">
<circle cx="259.037" cy="165.037" r="8.03709" fill="white" fill-opacity="0.8"/>
</g>
<g filter="url(#filter8_f_2118_129)">
<circle cx="129.037" cy="425.037" r="8.03709" fill="white" fill-opacity="0.8"/>
</g>
<g filter="url(#filter9_f_2118_129)">
<mask id="path-17-inside-2_2118_129" fill="white">
<path fill-rule="evenodd" clip-rule="evenodd" d="M158.651 141.201C162.254 146.988 169.271 149.317 175.284 147.101C174.96 150.141 175.62 153.331 177.378 156.156C181.487 162.756 190.036 164.857 196.474 160.85C200.577 158.295 202.832 153.874 202.863 149.294C209.704 152.536 217.889 150.054 221.477 143.502C225.202 136.698 222.558 128.081 215.57 124.255C214.971 123.926 214.36 123.644 213.74 123.407C214.685 122.482 215.509 121.405 216.175 120.189C219.901 113.385 217.256 104.767 210.269 100.941C203.951 97.4818 196.245 99.1241 192.072 104.5C187.488 97.9507 178.907 95.8348 172.503 99.8217C165.913 103.924 164.105 112.947 168.414 120.052C166.497 120.275 164.605 120.912 162.866 121.994C156.429 126.002 154.542 134.601 158.651 141.201Z"/>
</mask>
<path fill-rule="evenodd" clip-rule="evenodd" d="M158.651 141.201C162.254 146.988 169.271 149.317 175.284 147.101C174.96 150.141 175.62 153.331 177.378 156.156C181.487 162.756 190.036 164.857 196.474 160.85C200.577 158.295 202.832 153.874 202.863 149.294C209.704 152.536 217.889 150.054 221.477 143.502C225.202 136.698 222.558 128.081 215.57 124.255C214.971 123.926 214.36 123.644 213.74 123.407C214.685 122.482 215.509 121.405 216.175 120.189C219.901 113.385 217.256 104.767 210.269 100.941C203.951 97.4818 196.245 99.1241 192.072 104.5C187.488 97.9507 178.907 95.8348 172.503 99.8217C165.913 103.924 164.105 112.947 168.414 120.052C166.497 120.275 164.605 120.912 162.866 121.994C156.429 126.002 154.542 134.601 158.651 141.201Z" fill="#5F60D1" fill-opacity="0.13"/>
<path d="M175.284 147.101L177.273 147.313L177.614 144.111L174.592 145.224L175.284 147.101ZM202.863 149.294L203.719 147.487L200.884 146.144L200.863 149.281L202.863 149.294ZM221.477 143.502L219.723 142.542L219.723 142.542L221.477 143.502ZM215.57 124.255L216.531 122.5L216.531 122.5L215.57 124.255ZM213.74 123.407L212.341 121.978L210.113 124.159L213.024 125.274L213.74 123.407ZM216.175 120.189L217.93 121.15L217.93 121.15L216.175 120.189ZM210.269 100.941L209.308 102.696L209.308 102.696L210.269 100.941ZM192.072 104.5L190.434 105.647L191.989 107.869L193.652 105.727L192.072 104.5ZM168.414 120.052L168.645 122.039L171.74 121.679L170.124 119.015L168.414 120.052ZM174.592 145.224C169.483 147.107 163.458 145.139 160.349 140.144L156.953 142.258C161.049 148.838 169.058 151.527 175.975 148.978L174.592 145.224ZM179.076 155.099C177.559 152.663 176.994 149.921 177.273 147.313L173.295 146.889C172.925 150.361 173.68 154 175.68 157.213L179.076 155.099ZM195.417 159.152C189.957 162.551 182.626 160.801 179.076 155.099L175.68 157.213C180.348 164.71 190.116 167.164 197.531 162.548L195.417 159.152ZM200.863 149.281C200.836 153.219 198.901 156.983 195.417 159.152L197.531 162.548C202.254 159.607 204.828 154.529 204.863 149.308L200.863 149.281ZM219.723 142.542C216.669 148.119 209.65 150.297 203.719 147.487L202.006 151.102C209.757 154.774 219.11 151.989 223.231 144.463L219.723 142.542ZM214.61 126.009C220.673 129.329 222.894 136.75 219.723 142.542L223.231 144.463C227.511 136.646 224.443 126.833 216.531 122.5L214.61 126.009ZM213.024 125.274C213.56 125.48 214.09 125.724 214.61 126.009L216.531 122.5C215.852 122.129 215.159 121.809 214.455 121.539L213.024 125.274ZM214.421 119.229C213.851 120.27 213.147 121.189 212.341 121.978L215.139 124.836C216.223 123.775 217.168 122.541 217.93 121.15L214.421 119.229ZM209.308 102.696C215.371 106.015 217.592 113.437 214.421 119.229L217.93 121.15C222.21 113.333 219.142 103.519 211.229 99.187L209.308 102.696ZM193.652 105.727C197.208 101.145 203.831 99.6964 209.308 102.696L211.229 99.187C204.07 95.2672 195.282 97.1032 190.492 103.274L193.652 105.727ZM173.56 101.52C178.954 98.1614 186.383 99.8603 190.434 105.647L193.711 103.353C188.592 96.0411 178.86 93.5082 171.446 98.1238L173.56 101.52ZM170.124 119.015C166.313 112.731 168.011 104.974 173.56 101.52L171.446 98.1238C163.815 102.874 161.897 113.163 166.704 121.089L170.124 119.015ZM163.923 123.692C165.405 122.77 167.014 122.229 168.645 122.039L168.183 118.066C165.98 118.322 163.804 119.054 161.809 120.296L163.923 123.692ZM160.349 140.144C156.798 134.441 158.464 127.091 163.923 123.692L161.809 120.296C154.395 124.912 152.285 134.76 156.953 142.258L160.349 140.144Z" fill="white" mask="url(#path-17-inside-2_2118_129)"/>
</g>
<defs>
<filter id="filter0_i_2118_129" x="0" y="0" width="1300" height="822.779" filterUnits="userSpaceOnUse" color-interpolation-filters="sRGB">
<feFlood flood-opacity="0" result="BackgroundImageFix"/>
<feBlend mode="normal" in="SourceGraphic" in2="BackgroundImageFix" result="shape"/>
<feColorMatrix in="SourceAlpha" type="matrix" values="0 0 0 0 0 0 0 0 0 0 0 0 0 0 0 0 0 0 127 0" result="hardAlpha"/>
<feOffset dy="4"/>
<feGaussianBlur stdDeviation="14.45"/>
<feComposite in2="hardAlpha" operator="arithmetic" k2="-1" k3="1"/>
<feColorMatrix type="matrix" values="0 0 0 0 0 0 0 0 0 0 0 0 0 0 0 0 0 0 0.25 0"/>
<feBlend mode="normal" in2="shape" result="effect1_innerShadow_2118_129"/>
</filter>
<filter id="filter1_f_2118_129" x="203" y="556" width="419" height="266.506" filterUnits="userSpaceOnUse" color-interpolation-filters="sRGB">
<feFlood flood-opacity="0" result="BackgroundImageFix"/>
<feBlend mode="normal" in="SourceGraphic" in2="BackgroundImageFix" result="shape"/>
<feGaussianBlur stdDeviation="2" result="effect1_foregroundBlur_2118_129"/>
</filter>
<filter id="filter2_f_2118_129" x="51" y="446" width="44.2251" height="43" filterUnits="userSpaceOnUse" color-interpolation-filters="sRGB">
<feFlood flood-opacity="0" result="BackgroundImageFix"/>
<feBlend mode="normal" in="SourceGraphic" in2="BackgroundImageFix" result="shape"/>
<feGaussianBlur stdDeviation="2" result="effect1_foregroundBlur_2118_129"/>
</filter>
<filter id="filter3_f_2118_129" x="919" y="701" width="38.0151" height="37" filterUnits="userSpaceOnUse" color-interpolation-filters="sRGB">
<feFlood flood-opacity="0" result="BackgroundImageFix"/>
<feBlend mode="normal" in="SourceGraphic" in2="BackgroundImageFix" result="shape"/>
<feGaussianBlur stdDeviation="2" result="effect1_foregroundBlur_2118_129"/>
</filter>
<filter id="filter4_f_2118_129" x="1031" y="457" width="38.0151" height="37" filterUnits="userSpaceOnUse" color-interpolation-filters="sRGB">
<feFlood flood-opacity="0" result="BackgroundImageFix"/>
<feBlend mode="normal" in="SourceGraphic" in2="BackgroundImageFix" result="shape"/>
<feGaussianBlur stdDeviation="2" result="effect1_foregroundBlur_2118_129"/>
</filter>
<filter id="filter5_f_2118_129" x="124.477" y="533.013" width="88.4668" height="87.0424" filterUnits="userSpaceOnUse" color-interpolation-filters="sRGB">
<feFlood flood-opacity="0" result="BackgroundImageFix"/>
<feBlend mode="normal" in="SourceGraphic" in2="BackgroundImageFix" result="shape"/>
<feGaussianBlur stdDeviation="2" result="effect1_foregroundBlur_2118_129"/>
</filter>
<filter id="filter6_f_2118_129" x="1073" y="426" width="24.0742" height="24.0742" filterUnits="userSpaceOnUse" color-interpolation-filters="sRGB">
<feFlood flood-opacity="0" result="BackgroundImageFix"/>
<feBlend mode="normal" in="SourceGraphic" in2="BackgroundImageFix" result="shape"/>
<feGaussianBlur stdDeviation="2" result="effect1_foregroundBlur_2118_129"/>
</filter>
<filter id="filter7_f_2118_129" x="247" y="153" width="24.0742" height="24.0742" filterUnits="userSpaceOnUse" color-interpolation-filters="sRGB">
<feFlood flood-opacity="0" result="BackgroundImageFix"/>
<feBlend mode="normal" in="SourceGraphic" in2="BackgroundImageFix" result="shape"/>
<feGaussianBlur stdDeviation="2" result="effect1_foregroundBlur_2118_129"/>
</filter>
<filter id="filter8_f_2118_129" x="117" y="413" width="24.0742" height="24.0742" filterUnits="userSpaceOnUse" color-interpolation-filters="sRGB">
<feFlood flood-opacity="0" result="BackgroundImageFix"/>
<feBlend mode="normal" in="SourceGraphic" in2="BackgroundImageFix" result="shape"/>
<feGaussianBlur stdDeviation="2" result="effect1_foregroundBlur_2118_129"/>
</filter>
<filter id="filter9_f_2118_129" x="152.477" y="93.8058" width="74.6885" height="73.0767" filterUnits="userSpaceOnUse" color-interpolation-filters="sRGB">
<feFlood flood-opacity="0" result="BackgroundImageFix"/>
<feBlend mode="normal" in="SourceGraphic" in2="BackgroundImageFix" result="shape"/>
<feGaussianBlur stdDeviation="2" result="effect1_foregroundBlur_2118_129"/>
</filter>
<linearGradient id="paint0_linear_2118_129" x1="650" y1="0" x2="650" y2="818.779" gradientUnits="userSpaceOnUse">
<stop stop-color="#C08CE1"/>
<stop offset="0.522213" stop-color="#E793C5"/>
<stop offset="1" stop-color="#EBB2C3"/>
</linearGradient>
<linearGradient id="paint1_linear_2118_129" x1="86" y1="647" x2="1299" y2="647" gradientUnits="userSpaceOnUse">
<stop stop-color="#5F60D1" stop-opacity="0.2"/>
<stop offset="0.527213" stop-color="#C08CE1"/>
<stop offset="1" stop-color="#CCD8E8" stop-opacity="0.5"/>
</linearGradient>
<linearGradient id="paint2_linear_2118_129" x1="31" y1="646" x2="1196" y2="646" gradientUnits="userSpaceOnUse">
<stop stop-color="#5F60D1" stop-opacity="0.5"/>
<stop offset="0.332213" stop-color="#C08CE1"/>
<stop offset="0.787213" stop-color="#EBB2C3"/>
<stop offset="1" stop-color="#B2DAFE" stop-opacity="0"/>
</linearGradient>
<linearGradient id="paint3_linear_2118_129" x1="922" y1="25.5" x2="-2.13938e-05" y2="765" gradientUnits="userSpaceOnUse">
<stop stop-color="#BBBCF1"/>
<stop offset="0.477213" stop-color="#C08CE1"/>
<stop offset="1" stop-color="white" stop-opacity="0.42"/>
</linearGradient>
</defs>
</svg>
