<svg width="149" height="184" viewBox="0 0 149 184" fill="none" xmlns="http://www.w3.org/2000/svg">
<g clip-path="url(#clip0_271_138)">
<path fill-rule="evenodd" clip-rule="evenodd" d="M58.3026 104.671C59.4905 104.074 60.5242 103.139 61.2412 101.914L61.2457 101.906C63.2132 98.5441 62.0614 94.251 58.6742 92.3217L53.6671 89.4697C53.1444 89.1719 52.6503 88.8254 52.1899 88.433C50.5083 87.0026 46.5834 83.6574 44.4935 81.8814C43.5129 81.0454 42.4567 80.3034 41.3337 79.6637C40.4616 79.167 39.3282 78.5214 38.2362 77.8994C35.5244 76.3548 32.4911 75.4421 29.364 75.2259C22.7349 74.7684 10.9419 73.9552 10.9419 73.9552C10.1291 73.8997 9.40785 74.4719 9.28893 75.2705L6.2208 95.7007C6.14994 96.1637 6.29728 96.6312 6.61887 96.9719C6.94046 97.3126 7.40393 97.4875 7.8741 97.4506C7.8741 97.4506 10.7653 97.2207 13.173 97.027C14.9244 96.8877 16.6738 97.2883 18.1792 98.1766C24.715 102.036 41.215 111.774 48.2808 115.942C50.6896 117.362 53.4661 118.053 56.2731 117.926C60.7887 117.721 68.2551 117.385 72.9036 117.176C76.0588 117.032 78.5672 114.485 78.6323 111.361L78.6301 111.353C78.6859 108.693 76.6683 106.451 73.994 106.198L58.813 104.76C58.6398 104.744 58.4674 104.714 58.3026 104.671ZM38.9155 93.8067L53.1023 101.843C55.0068 102.928 57.449 102.274 58.5553 100.384L58.5598 100.376C59.666 98.4859 59.0185 96.0725 57.114 94.9877L52.107 92.1357C51.4161 91.7422 50.7627 91.2845 50.1573 90.7684C48.4747 89.334 44.5483 85.9913 42.4598 84.2127C41.6268 83.5019 40.7283 82.8737 39.7734 82.3298C38.9014 81.8331 37.768 81.1875 36.676 80.5655C34.3704 79.2523 31.7923 78.4755 29.1338 78.29L12.1463 77.1206L9.57778 94.2327L12.9391 93.9659C15.332 93.7741 17.7236 94.3212 19.7793 95.5367L49.8824 113.3C51.7689 114.415 53.9479 114.955 56.1485 114.855L72.7789 114.106C74.2927 114.036 75.4947 112.814 75.5266 111.315L75.5271 111.308C75.5473 110.248 74.7456 109.359 73.6811 109.256L58.5002 107.818C57.5981 107.732 56.7267 107.459 55.9411 107.015C52.1095 104.842 37.3605 96.4757 37.3605 96.4757C36.6178 96.0527 36.3636 95.1134 36.7935 94.3788C37.2208 93.6427 38.1713 93.3863 38.9155 93.8067Z" fill="white"/>
<path fill-rule="evenodd" clip-rule="evenodd" d="M70.5958 59.3395L70.0401 58.7906C64.8673 53.6802 56.4795 53.6802 51.3067 58.7906C46.1338 63.9009 46.1338 72.1873 51.3067 77.2977C55.8974 81.833 61.4209 87.2897 65.1649 90.9885C66.607 92.4132 68.5584 93.2104 70.5958 93.2104C72.6332 93.2104 74.5846 92.4132 76.0266 90.9885L89.8849 77.2977C95.0577 72.1873 95.0577 63.9009 89.8849 58.7906C84.712 53.6802 76.3243 53.6802 71.1514 58.7906L70.5958 59.3395ZM87.6887 60.9602C83.7297 57.049 77.3066 57.049 73.3476 60.9602C72.4579 61.8391 71.8294 62.46 71.7137 62.5743C71.1448 63.1364 70.0467 63.1363 69.4778 62.5743L67.844 60.9602C63.8849 57.049 57.4619 57.049 53.5028 60.9602C49.5438 64.8714 49.5438 71.2169 53.5028 75.1281L67.3611 88.8189C68.221 89.6685 69.3819 90.1423 70.5958 90.1455C71.8096 90.1423 72.9705 89.6685 73.8305 88.8189L87.6887 75.1281C91.6477 71.2169 91.6477 64.8714 87.6887 60.9602Z" fill="white"/>
</g>
<defs>
<clipPath id="clip0_271_138">
<rect width="149" height="184" fill="white"/>
</clipPath>
</defs>
</svg>
