<svg width="125" height="156" viewBox="0 0 125 156" fill="none" xmlns="http://www.w3.org/2000/svg">
<path d="M99.875 35.9424C99.625 35.4432 99.25 35.1936 98.75 35.1936H73.25C72.875 35.1936 72.625 35.3184 72.375 35.568L62.125 45.0528L54.625 34.0704C54.375 33.696 54 33.5712 53.625 33.5712H41.25C41 33.5712 40.625 33.696 40.375 33.9456L25.375 47.6736C25 48.048 24.875 48.5472 25 49.0464C25.125 49.5456 25.625 49.7952 26.125 49.7952H42.25L44.25 62.4C44.25 62.7744 44.5 63.1488 44.875 63.2736L64.75 74.88C65 75.0048 65.125 75.0048 65.375 75.0048H65.5H78.5L96.125 91.104C96.375 91.3536 96.625 91.4784 97 91.4784C97.25 91.4784 97.5 91.4784 97.625 91.3536C98.125 91.104 98.375 90.48 98.25 89.9808L94 73.632C94 73.3824 93.75 73.1328 93.625 73.008L79.25 60.1536L99.75 37.3152C100 36.9408 100.125 36.4416 99.875 35.9424ZM52.875 35.9424L60.25 46.6752L46.375 59.6544L42.75 36.0672H52.875V35.9424ZM29.5 47.1744L40.5 37.1904L42 47.1744H29.5ZM82.25 74.88H91.875L94.75 86.2368L82.25 74.88ZM89.5 72.384H68.25L77.625 61.9008L89.5 72.384ZM65.125 72.1344L47.625 61.9008L73.75 37.6896H96L65.125 72.1344Z" fill="white"/>
<path d="M10.9 33.776C13.0539 33.776 14.8 32.0353 14.8 29.888C14.8 27.7407 13.0539 26 10.9 26C8.74609 26 7 27.7407 7 29.888C7 32.0353 8.74609 33.776 10.9 33.776Z" fill="white"/>
<path d="M124.8 67.368C124.8 66.6806 124.526 66.0213 124.038 65.5352C123.551 65.0491 122.89 64.776 122.2 64.776H117V59.592C117 58.9046 116.726 58.2453 116.238 57.7592C115.751 57.2731 115.09 57 114.4 57C113.71 57 113.049 57.2731 112.562 57.7592C112.074 58.2453 111.8 58.9046 111.8 59.592V64.776H106.6C105.91 64.776 105.249 65.0491 104.762 65.5352C104.274 66.0213 104 66.6806 104 67.368C104 68.0554 104.274 68.7147 104.762 69.2008C105.249 69.6869 105.91 69.96 106.6 69.96H111.8V75.144C111.8 75.8314 112.074 76.4907 112.562 76.9768C113.049 77.4629 113.71 77.736 114.4 77.736C115.09 77.736 115.751 77.4629 116.238 76.9768C116.726 76.4907 117 75.8314 117 75.144V69.96H122.2C122.89 69.96 123.551 69.6869 124.038 69.2008C124.526 68.7147 124.8 68.0554 124.8 67.368Z" fill="white"/>
</svg>
