<svg width="130" height="162" viewBox="0 0 130 162" fill="none" xmlns="http://www.w3.org/2000/svg">
<path d="M35.1 83.9419C34.42 84.7992 33.996 85.8302 33.8764 86.9166C33.7568 88.003 33.9466 89.1011 34.424 90.085C34.8972 91.057 35.6366 91.8758 36.5567 92.4468C37.4768 93.0178 38.5402 93.3178 39.624 93.312H49.4C51.223 93.3113 53.0255 92.9284 54.6905 92.1882C56.3554 91.4479 57.8456 90.3668 59.0641 89.0151C60.2827 87.6633 61.2025 86.0712 61.7638 84.3421C62.3251 82.6129 62.5152 80.7854 62.322 78.9782L90.415 53.2915C91.4092 52.4003 92.2109 51.3164 92.771 50.1061C93.3311 48.8958 93.6379 47.5843 93.6727 46.2518C93.7076 44.9194 93.4697 43.5938 92.9736 42.356C92.4774 41.1182 91.7335 39.9942 90.7872 39.0526C89.8409 38.1109 88.712 37.3714 87.4695 36.8791C86.227 36.3868 84.8968 36.1522 83.5603 36.1894C82.2238 36.2266 80.9089 36.5349 79.6959 37.0956C78.4828 37.6562 77.3971 38.4574 76.505 39.4502L50.7 67.4698C48.8934 67.2888 47.0687 67.487 45.3436 68.0519C43.6185 68.6167 42.0313 69.5355 40.6841 70.7491C39.3369 71.9627 38.2597 73.4443 37.5218 75.0982C36.7839 76.7522 36.4018 78.5419 36.4 80.352C36.3996 81.6631 35.9398 82.9329 35.1 83.9419ZM80.34 42.9624C80.7448 42.451 81.2537 42.0309 81.8331 41.7296C82.4125 41.4284 83.0494 41.2529 83.7017 41.2148C84.3541 41.1766 85.0071 41.2765 85.6179 41.5081C86.2287 41.7396 86.7834 42.0975 87.2455 42.5582C87.7076 43.0188 88.0666 43.5718 88.2988 44.1807C88.5311 44.7896 88.6314 45.4407 88.593 46.091C88.5547 46.7414 88.3787 47.3763 88.0766 47.9539C87.7744 48.5315 87.353 49.0388 86.84 49.4424L60.489 73.5998C59.4092 71.832 57.9203 70.3477 56.147 69.2712L80.34 42.9624ZM39.169 87.143C40.7408 85.2267 41.5996 82.8275 41.6 80.352C41.6003 79.1839 41.8646 78.0309 42.3733 76.9787C42.8819 75.9264 43.6218 75.0019 44.538 74.2738C45.9123 73.1631 47.6309 72.563 49.4 72.576C50.035 72.5727 50.668 72.6467 51.285 72.7963C52.6725 73.1256 53.9414 73.8314 54.951 74.8357C55.9607 75.8399 56.6716 77.1033 57.005 78.4858C57.2906 79.6432 57.3055 80.8505 57.0485 82.0145C56.7915 83.1786 56.2696 84.2681 55.523 85.199C54.7899 86.1159 53.8584 86.8555 52.798 87.3628C51.7377 87.87 50.5761 88.1316 49.4 88.128H39.611C39.5029 88.135 39.3952 88.109 39.3023 88.0534C39.2094 87.9978 39.1357 87.9154 39.091 87.817C39.0355 87.7096 39.0133 87.5882 39.0272 87.4682C39.0411 87.3482 39.0904 87.235 39.169 87.143Z" fill="white"/>
<path d="M44.2 44.064C43.5104 44.064 42.8491 44.3371 42.3615 44.8232C41.8739 45.3093 41.6 45.9686 41.6 46.656V49.248H39C38.3104 49.248 37.6491 49.5211 37.1615 50.0072C36.6739 50.4933 36.4 51.1526 36.4 51.84C36.4 52.5275 36.6739 53.1868 37.1615 53.6728C37.6491 54.1589 38.3104 54.432 39 54.432H41.6V57.024C41.6 57.7115 41.8739 58.3708 42.3615 58.8568C42.8491 59.3429 43.5104 59.616 44.2 59.616C44.8896 59.616 45.5509 59.3429 46.0385 58.8568C46.5261 58.3708 46.8 57.7115 46.8 57.024V54.432H49.4C50.0896 54.432 50.7509 54.1589 51.2385 53.6728C51.7261 53.1868 52 52.5275 52 51.84C52 51.1526 51.7261 50.4933 51.2385 50.0072C50.7509 49.5211 50.0896 49.248 49.4 49.248H46.8V46.656C46.8 45.9686 46.5261 45.3093 46.0385 44.8232C45.5509 44.3371 44.8896 44.064 44.2 44.064Z" fill="white"/>
<path d="M96.2 77.76C96.2 77.0725 95.9261 76.4132 95.4385 75.9271C94.9509 75.4411 94.2896 75.168 93.6 75.168H88.4V69.984C88.4 69.2965 88.1261 68.6372 87.6385 68.1511C87.1509 67.6651 86.4896 67.392 85.8 67.392C85.1104 67.392 84.4491 67.6651 83.9615 68.1511C83.4739 68.6372 83.2 69.2965 83.2 69.984V75.168H78C77.3104 75.168 76.6491 75.4411 76.1615 75.9271C75.6739 76.4132 75.4 77.0725 75.4 77.76C75.4 78.4474 75.6739 79.1067 76.1615 79.5928C76.6491 80.0789 77.3104 80.352 78 80.352H83.2V85.536C83.2 86.2234 83.4739 86.8827 83.9615 87.3688C84.4491 87.8549 85.1104 88.128 85.8 88.128C86.4896 88.128 87.1509 87.8549 87.6385 87.3688C88.1261 86.8827 88.4 86.2234 88.4 85.536V80.352H93.6C94.2896 80.352 94.9509 80.0789 95.4385 79.5928C95.9261 79.1067 96.2 78.4474 96.2 77.76Z" fill="white"/>
<path d="M61.074 44.064C63.2279 44.064 64.974 42.3233 64.974 40.176C64.974 38.0287 63.2279 36.288 61.074 36.288C58.9201 36.288 57.174 38.0287 57.174 40.176C57.174 42.3233 58.9201 44.064 61.074 44.064Z" fill="white"/>
</svg>
