<svg width="123" height="139" viewBox="0 0 123 139" fill="none" xmlns="http://www.w3.org/2000/svg">
<g clip-path="url(#clip0_41_1686)">
<path d="M98.2854 42.5608L67.4122 71.7536L63.7481 75.2179C63.7377 75.2278 63.7248 75.2329 63.7141 75.2424C63.7083 75.2481 63.7063 75.2562 63.7004 75.2618C63.6591 75.3014 63.6032 75.3211 63.5575 75.3555C63.5078 75.3929 63.4563 75.4264 63.4022 75.4573C63.3506 75.4867 63.3088 75.5314 63.2541 75.5543L46.3854 82.6275C46.0752 82.7579 45.7385 82.7751 45.4287 82.6921C45.1705 82.6229 44.9296 82.4837 44.737 82.2813C44.3136 81.8349 44.2113 81.173 44.4807 80.6196L52.4707 64.1877C52.5474 64.0294 52.7014 63.8386 52.8294 63.7175L52.8327 63.7129L56.4969 60.2485L87.3683 31.0568C88.9067 29.6028 90.9196 28.8343 93.0384 28.8929C95.1555 28.9525 97.1236 29.8307 98.5836 31.3656C101.593 34.5383 101.459 39.5606 98.2854 42.5608ZM54.2306 67.3332L48.8561 78.3865L60.2038 73.6292L54.2306 67.3332ZM96.4358 33.3968C95.5219 32.4309 94.2886 31.8809 92.9592 31.8457C91.6306 31.8077 90.3689 32.2908 89.4049 33.203L58.5336 62.3948L55.9433 64.8437L62.7856 72.056L65.3756 69.6073L96.2487 40.4146C98.2395 38.5338 98.3233 35.3852 96.4358 33.3968Z" fill="white"/>
<path d="M89.5507 138.932L89.4037 139.481L91.0296 139.917L91.1766 139.368L89.5507 138.932ZM90.0986 141.902L90.8555 139.078C90.9066 138.887 90.9119 138.718 90.8713 138.573C90.8295 138.427 90.7519 138.305 90.6384 138.207C90.5249 138.109 90.3853 138.038 90.2195 137.994C90.1074 137.964 90.0028 137.945 89.9056 137.937C89.8072 137.929 89.7333 137.926 89.6839 137.927L89.6672 138.511C89.6983 138.51 89.736 138.511 89.7804 138.514C89.8237 138.517 89.8671 138.524 89.9106 138.536C90.0181 138.565 90.0862 138.61 90.115 138.672C90.1442 138.732 90.1468 138.807 90.1229 138.896L89.3697 141.707L90.0986 141.902ZM88.3985 141.447L89.1044 138.813L88.3961 138.623L88.2729 139.082L88.2455 139.075C88.2413 138.899 88.1937 138.754 88.1029 138.64C88.0124 138.525 87.8934 138.448 87.7459 138.408C87.7093 138.398 87.6692 138.39 87.6257 138.383C87.5822 138.376 87.5433 138.373 87.5092 138.372L87.3355 139.021C87.3725 139.019 87.4224 139.023 87.4852 139.031C87.5479 139.039 87.6044 139.05 87.6547 139.064C87.7622 139.093 87.852 139.142 87.924 139.211C87.9952 139.279 88.0444 139.361 88.0715 139.457C88.0975 139.552 88.096 139.653 88.0673 139.761L87.6679 141.251L88.3985 141.447ZM85.3409 140.683C85.6073 140.754 85.8529 140.759 86.0776 140.698C86.3015 140.636 86.4932 140.517 86.653 140.341C86.813 140.165 86.9292 139.942 87.0015 139.672C87.0744 139.4 87.0855 139.148 87.0349 138.916C86.9845 138.683 86.8779 138.484 86.715 138.319C86.5512 138.153 86.3362 138.034 86.0698 137.963C85.8034 137.891 85.5582 137.887 85.3344 137.949C85.1096 138.011 84.9173 138.129 84.7573 138.306C84.5975 138.481 84.4812 138.705 84.4083 138.977C84.336 139.247 84.325 139.498 84.3754 139.731C84.426 139.963 84.5332 140.162 84.697 140.328C84.8599 140.493 85.0745 140.611 85.3409 140.683ZM85.4891 140.116C85.3679 140.083 85.2759 140.022 85.2131 139.932C85.1507 139.84 85.1149 139.729 85.1059 139.598C85.0958 139.466 85.1112 139.324 85.1523 139.171C85.1933 139.018 85.2511 138.887 85.3256 138.778C85.3989 138.669 85.4855 138.59 85.5854 138.542C85.6852 138.494 85.7958 138.487 85.917 138.519C86.0393 138.552 86.1329 138.614 86.1977 138.706C86.2613 138.798 86.2982 138.91 86.3083 139.041C86.3173 139.172 86.3013 139.315 86.2602 139.468C86.2192 139.621 86.162 139.752 86.0887 139.861C86.0142 139.97 85.9264 140.048 85.8254 140.096C85.7236 140.142 85.6115 140.149 85.4891 140.116ZM83.583 140.157L84.2889 137.522L83.5926 137.336L83.4681 137.8L83.4372 137.792C83.4237 137.623 83.3648 137.477 83.2607 137.353C83.1565 137.23 83.0152 137.144 82.8369 137.096C82.6562 137.048 82.4903 137.052 82.3392 137.108C82.1884 137.163 82.0713 137.262 81.988 137.404L81.9605 137.397C81.9472 137.231 81.8823 137.085 81.7659 136.957C81.6486 136.827 81.4934 136.736 81.3002 136.685C81.0543 136.619 80.8338 136.644 80.6386 136.759C80.4426 136.873 80.3063 137.073 80.2297 137.359L79.755 139.131L80.4839 139.326L80.92 137.699C80.9592 137.552 81.0275 137.453 81.1249 137.401C81.2222 137.348 81.3292 137.338 81.4459 137.369C81.5785 137.404 81.6706 137.474 81.7223 137.579C81.7742 137.682 81.7818 137.803 81.7451 137.94L81.314 139.549L82.0223 139.738L82.4626 138.095C82.4972 137.966 82.5619 137.873 82.6568 137.817C82.7505 137.76 82.8574 137.747 82.9774 137.779C83.0586 137.801 83.1263 137.841 83.1804 137.9C83.2337 137.957 83.2694 138.027 83.2875 138.111C83.306 138.193 83.3022 138.282 83.2761 138.38L82.8524 139.961L83.583 140.157ZM77.3648 135.667L77.2177 136.216L78.8041 136.641L78.9512 136.092L77.3648 135.667ZM78.7601 135.364L78.0295 135.169L77.3714 137.625C77.3534 137.692 77.329 137.742 77.2983 137.774C77.2679 137.805 77.2324 137.823 77.1919 137.828C77.1502 137.833 77.1047 137.829 77.0555 137.816C77.0212 137.806 76.9877 137.794 76.9549 137.78C76.9225 137.763 76.8976 137.751 76.8802 137.743L76.6196 138.256C76.6531 138.277 76.701 138.304 76.7634 138.337C76.8254 138.37 76.9034 138.402 76.9974 138.431C77.1716 138.485 77.3323 138.503 77.4793 138.484C77.6252 138.466 77.7499 138.41 77.8534 138.316C77.9569 138.223 78.0312 138.089 78.0763 137.916L78.7601 135.364ZM75.8038 136.44L75.3957 137.963L76.1264 138.159L77.0675 134.646L76.3575 134.456L75.9977 135.799L75.9668 135.79C75.949 135.619 75.8856 135.472 75.7765 135.348C75.6678 135.223 75.5134 135.134 75.3133 135.08C75.1304 135.031 74.9601 135.029 74.8026 135.072C74.6443 135.114 74.5075 135.2 74.3922 135.328C74.276 135.455 74.191 135.622 74.137 135.828L73.6875 137.505L74.4181 137.701L74.8327 136.154C74.875 135.991 74.95 135.876 75.0577 135.808C75.1642 135.74 75.2918 135.725 75.4405 135.765C75.5399 135.792 75.6223 135.837 75.6876 135.9C75.7517 135.962 75.7946 136.04 75.8163 136.133C75.8372 136.224 75.833 136.326 75.8038 136.44ZM71.8982 137.081C72.1692 137.153 72.4172 137.161 72.6421 137.104C72.8662 137.045 73.0579 136.928 73.2174 136.754C73.3771 136.579 73.4942 136.352 73.5686 136.074C73.6412 135.803 73.6523 135.551 73.602 135.319C73.5516 135.086 73.4463 134.887 73.286 134.721C73.1246 134.555 72.9146 134.438 72.6562 134.369C72.4824 134.322 72.3131 134.307 72.1483 134.323C71.9827 134.337 71.829 134.385 71.6872 134.465C71.5443 134.546 71.4189 134.662 71.311 134.813C71.2034 134.963 71.1195 135.15 71.0595 135.374L71.0057 135.575L73.2302 136.171L73.3515 135.718L71.8148 135.307C71.843 135.201 71.8908 135.114 71.9583 135.045C72.0258 134.977 72.1063 134.93 72.1997 134.906C72.2923 134.881 72.3917 134.882 72.4981 134.911C72.609 134.94 72.7004 134.992 72.7724 135.067C72.8435 135.14 72.8916 135.226 72.9167 135.324C72.942 135.422 72.9413 135.523 72.9146 135.627L72.7992 136.058C72.7643 136.188 72.7101 136.294 72.6367 136.376C72.5621 136.458 72.4733 136.512 72.3703 136.54C72.2674 136.568 72.1547 136.565 72.0324 136.532C71.9512 136.51 71.8799 136.479 71.8186 136.438C71.7573 136.397 71.7087 136.347 71.6729 136.289C71.6372 136.23 71.6156 136.164 71.6082 136.091L70.9205 135.955C70.9113 136.126 70.9436 136.287 71.0175 136.437C71.0905 136.585 71.2015 136.715 71.3503 136.827C71.4983 136.938 71.681 137.023 71.8982 137.081ZM67.0978 131.975L66.1567 135.487L66.7981 135.659L68.9186 133.858L68.9443 133.865L68.352 136.075L69.0946 136.274L70.0357 132.762L69.384 132.587L67.276 134.39L67.2451 134.382L67.837 132.173L67.0978 131.975ZM64.3528 135.059C64.6192 135.13 64.8647 135.136 65.0895 135.074C65.3133 135.012 65.5051 134.893 65.6648 134.718C65.8249 134.541 65.941 134.318 66.0133 134.048C66.0863 133.776 66.0974 133.524 66.0467 133.292C65.9964 133.059 65.8897 132.861 65.7268 132.696C65.5631 132.529 65.348 132.41 65.0816 132.339C64.8152 132.268 64.5701 132.263 64.3462 132.326C64.1215 132.387 63.9291 132.506 63.7691 132.682C63.6094 132.857 63.4931 133.081 63.4202 133.353C63.3479 133.623 63.3369 133.874 63.3872 134.107C63.4379 134.339 63.5451 134.538 63.7088 134.704C63.8717 134.869 64.0864 134.988 64.3528 135.059ZM64.501 134.492C64.3798 134.46 64.2878 134.398 64.225 134.308C64.1625 134.216 64.1268 134.105 64.1178 133.974C64.1076 133.843 64.1231 133.7 64.1642 133.547C64.2052 133.394 64.263 133.263 64.3374 133.154C64.4108 133.045 64.4974 132.967 64.5972 132.919C64.6971 132.871 64.8076 132.863 64.9288 132.895C65.0512 132.928 65.1447 132.991 65.2095 133.083C65.2732 133.175 65.31 133.286 65.3202 133.418C65.3292 133.549 65.3131 133.691 65.2721 133.844C65.231 133.997 65.1738 134.128 65.1005 134.237C65.026 134.346 64.9383 134.424 64.8373 134.472C64.7354 134.518 64.6233 134.525 64.501 134.492ZM61.2061 132.959L61.6114 131.446L60.8808 131.25L60.1749 133.884L60.8764 134.072L61.0046 133.594L61.0321 133.601C61.0502 133.772 61.1158 133.922 61.229 134.053C61.3411 134.183 61.4961 134.275 61.6939 134.328C61.87 134.375 62.0356 134.377 62.1908 134.333C62.3461 134.288 62.4812 134.203 62.5961 134.075C62.71 133.948 62.795 133.781 62.8513 133.576L63.3008 131.898L62.5702 131.703L62.1556 133.25C62.1128 133.405 62.0382 133.517 61.9316 133.585C61.8251 133.653 61.7027 133.669 61.5643 133.632C61.4763 133.608 61.3993 133.566 61.3334 133.506C61.2679 133.444 61.2224 133.367 61.1969 133.274C61.1704 133.181 61.1734 133.076 61.2061 132.959ZM59.268 132.009L58.8599 133.532L59.5905 133.728L60.2964 131.093L59.6001 130.907L59.4756 131.372L59.4447 131.363C59.4274 131.195 59.3621 131.047 59.2488 130.921C59.1358 130.794 58.9816 130.704 58.786 130.652C58.6031 130.603 58.4329 130.6 58.2754 130.644C58.1179 130.687 57.9815 130.773 57.8662 130.902C57.7512 131.029 57.6663 131.195 57.6114 131.4L57.162 133.077L57.8926 133.273L58.3071 131.726C58.3492 131.564 58.4241 131.45 58.5317 131.382C58.6397 131.313 58.7669 131.298 58.9132 131.337C59.0115 131.363 59.0928 131.408 59.1569 131.47C59.2199 131.532 59.2617 131.61 59.2822 131.702C59.3019 131.793 59.2972 131.896 59.268 132.009ZM55.4547 132.62L56.3958 129.107L55.01 128.736C54.7436 128.664 54.503 128.655 54.2883 128.706C54.0738 128.756 53.8933 128.858 53.7469 129.011C53.5996 129.163 53.4947 129.356 53.4323 129.589C53.3698 129.822 53.3649 130.041 53.4177 130.247C53.4706 130.452 53.5791 130.63 53.7434 130.781C53.9066 130.931 54.123 131.042 54.3929 131.115L55.2761 131.351L55.4356 130.756L54.6724 130.552C54.5295 130.513 54.4183 130.457 54.3389 130.383C54.2586 130.308 54.2074 130.22 54.1852 130.12C54.1622 130.018 54.1662 129.909 54.1972 129.794C54.2284 129.677 54.2791 129.582 54.3493 129.507C54.4186 129.432 54.5066 129.382 54.6132 129.359C54.7201 129.335 54.8456 129.343 54.9897 129.381L55.4905 129.515L54.712 132.421L55.4547 132.62ZM52.3414 131.785L53.0472 129.151L52.3389 128.961L52.2158 129.421L52.1883 129.414C52.1841 129.237 52.1366 129.092 52.0458 128.978C51.9552 128.863 51.8362 128.786 51.6887 128.747C51.6521 128.737 51.6121 128.729 51.5686 128.722C51.525 128.715 51.4862 128.711 51.452 128.711L51.2783 129.359C51.3154 129.358 51.3653 129.362 51.428 129.37C51.4908 129.378 51.5473 129.389 51.5976 129.402C51.7051 129.431 51.7948 129.48 51.8669 129.55C51.9381 129.618 51.9873 129.7 52.0144 129.795C52.0403 129.89 52.0389 129.992 52.0101 130.099L51.6108 131.59L52.3414 131.785ZM49.2838 131.021C49.5502 131.093 49.7957 131.098 50.0204 131.037C50.2443 130.974 50.4361 130.855 50.5958 130.68C50.7559 130.503 50.872 130.28 50.9443 130.01C51.0172 129.738 51.0284 129.486 50.9777 129.255C50.9274 129.022 50.8207 128.823 50.6578 128.658C50.4941 128.491 50.279 128.373 50.0126 128.301C49.7462 128.23 49.5011 128.225 49.2772 128.288C49.0525 128.349 48.8601 128.468 48.7001 128.644C48.5404 128.82 48.4241 129.043 48.3511 129.316C48.2788 129.585 48.2679 129.837 48.3182 130.07C48.3689 130.301 48.4761 130.5 48.6398 130.667C48.8027 130.832 49.0174 130.95 49.2838 131.021ZM49.432 130.454C49.3108 130.422 49.2188 130.36 49.156 130.27C49.0935 130.179 49.0578 130.067 49.0488 129.936C49.0386 129.805 49.0541 129.663 49.0952 129.509C49.1362 129.356 49.194 129.225 49.2684 129.116C49.3418 129.007 49.4284 128.929 49.5282 128.881C49.6281 128.833 49.7386 128.825 49.8598 128.858C49.9822 128.89 50.0757 128.953 50.1405 129.045C50.2042 129.137 50.241 129.248 50.2512 129.38C50.2602 129.511 50.2441 129.653 50.2031 129.806C50.162 129.959 50.1048 130.091 50.0315 130.2C49.957 130.308 49.8693 130.387 49.7683 130.434C49.6664 130.48 49.5543 130.487 49.432 130.454ZM48.2318 127.861L47.5011 127.665L46.7604 130.43C46.7058 130.633 46.7017 130.809 46.7481 130.956C46.7944 131.103 46.8846 131.226 47.0188 131.324C47.1518 131.422 47.3218 131.499 47.5287 131.555C47.5539 131.561 47.5781 131.567 47.6012 131.572C47.6252 131.579 47.6506 131.585 47.6772 131.591L47.8302 131.02C47.8104 131.016 47.7931 131.012 47.7783 131.008C47.7643 131.005 47.7492 131.002 47.7332 130.997C47.6155 130.966 47.5399 130.919 47.5065 130.856C47.4716 130.794 47.4675 130.713 47.4942 130.613L48.2318 127.861ZM47.9592 127.424C48.0666 127.453 48.1689 127.441 48.266 127.39C48.3633 127.338 48.4256 127.261 48.4529 127.159C48.4799 127.058 48.4641 126.962 48.4057 126.869C48.3475 126.775 48.2647 126.713 48.1572 126.685C48.0475 126.655 47.9445 126.667 47.8483 126.719C47.7512 126.771 47.6892 126.847 47.6622 126.947C47.635 127.049 47.6504 127.147 47.7086 127.241C47.7659 127.333 47.8494 127.394 47.9592 127.424ZM44.9957 129.872C45.2667 129.945 45.5146 129.953 45.7395 129.895C45.9636 129.836 46.1554 129.72 46.3148 129.546C46.4745 129.37 46.5916 129.144 46.6661 128.866C46.7387 128.595 46.7498 128.343 46.6995 128.11C46.6491 127.877 46.5438 127.678 46.3835 127.513C46.222 127.347 46.0121 127.229 45.7537 127.16C45.5799 127.113 45.4106 127.098 45.2458 127.114C45.0802 127.128 44.9265 127.176 44.7847 127.257C44.6418 127.338 44.5164 127.453 44.4084 127.605C44.3008 127.755 44.217 127.942 44.157 128.166L44.1032 128.367L46.3276 128.963L46.4489 128.51L44.9122 128.098C44.9404 127.993 44.9883 127.906 45.0558 127.837C45.1232 127.768 45.2037 127.722 45.2971 127.698C45.3897 127.672 45.4892 127.674 45.5955 127.702C45.7064 127.732 45.7979 127.784 45.8699 127.858C45.941 127.931 45.9891 128.017 46.0141 128.116C46.0395 128.213 46.0388 128.314 46.012 128.419L45.8967 128.849C45.8618 128.979 45.8076 129.086 45.7341 129.168C45.6595 129.249 45.5707 129.304 45.4678 129.332C45.3648 129.359 45.2522 129.356 45.1298 129.324C45.0486 129.302 44.9774 129.271 44.916 129.23C44.8547 129.189 44.8062 129.139 44.7704 129.08C44.7346 129.022 44.7131 128.956 44.7057 128.883L44.018 128.746C44.0088 128.918 44.0411 129.079 44.115 129.228C44.188 129.376 44.2989 129.507 44.4478 129.619C44.5958 129.73 44.7784 129.814 44.9957 129.872ZM42.1195 129.102C42.3893 129.174 42.6368 129.179 42.8618 129.117C43.086 129.053 43.2775 128.933 43.4364 128.756C43.5941 128.579 43.7087 128.357 43.7801 128.091C43.8524 127.821 43.8638 127.57 43.8142 127.339C43.7639 127.106 43.6574 126.907 43.4948 126.74C43.3325 126.573 43.1182 126.454 42.8518 126.382C42.622 126.321 42.4096 126.309 42.2145 126.346C42.0195 126.383 41.8515 126.464 41.7104 126.588C41.5694 126.712 41.4664 126.874 41.4016 127.075L42.0911 127.259C42.1457 127.133 42.2255 127.041 42.3304 126.984C42.4345 126.924 42.5534 126.913 42.6872 126.949C42.8004 126.979 42.891 127.036 42.9591 127.121C43.0263 127.204 43.0678 127.31 43.0834 127.439C43.099 127.568 43.0846 127.716 43.0402 127.881C42.9952 128.05 42.934 128.186 42.8567 128.292C42.7783 128.397 42.6885 128.469 42.5873 128.508C42.4862 128.547 42.379 128.552 42.2658 128.521C42.1823 128.499 42.112 128.462 42.0549 128.41C41.9966 128.357 41.9545 128.293 41.9285 128.216C41.9017 128.138 41.8938 128.05 41.9049 127.954L41.2155 127.769C41.173 127.974 41.1804 128.166 41.2377 128.345C41.2941 128.523 41.3966 128.678 41.5451 128.81C41.6937 128.942 41.8851 129.039 42.1195 129.102ZM39.7936 125.6L39.6466 126.149L41.233 126.574L41.3801 126.025L39.7936 125.6ZM41.189 125.297L40.4584 125.101L39.8003 127.557C39.7823 127.625 39.7579 127.675 39.7272 127.707C39.6968 127.738 39.6613 127.756 39.6207 127.761C39.579 127.766 39.5336 127.762 39.4844 127.749C39.4501 127.739 39.4166 127.727 39.3838 127.712C39.3514 127.696 39.3264 127.684 39.3091 127.676L39.0485 128.189C39.082 128.21 39.1299 128.237 39.1923 128.269C39.2543 128.303 39.3323 128.335 39.4263 128.363C39.6005 128.417 39.7612 128.435 39.9082 128.417C40.0541 128.399 40.1788 128.343 40.2823 128.249C40.3858 128.155 40.4601 128.022 40.5052 127.849L41.189 125.297Z" fill="black"/>
<path d="M43.8 33.9999C43.1104 33.9999 42.4491 34.273 41.9615 34.7591C41.4739 35.2451 41.2 35.9044 41.2 36.5919V39.1839H38.6C37.9104 39.1839 37.2491 39.457 36.7615 39.9431C36.2739 40.4291 36 41.0884 36 41.7759C36 42.4633 36.2739 43.1226 36.7615 43.6087C37.2491 44.0948 37.9104 44.3679 38.6 44.3679H41.2V46.9599C41.2 47.6473 41.4739 48.3066 41.9615 48.7927C42.4491 49.2788 43.1104 49.5519 43.8 49.5519C44.4896 49.5519 45.1509 49.2788 45.6385 48.7927C46.1261 48.3066 46.4 47.6473 46.4 46.9599V44.3679H49C49.6896 44.3679 50.3509 44.0948 50.8385 43.6087C51.3261 43.1226 51.6 42.4633 51.6 41.7759C51.6 41.0884 51.3261 40.4291 50.8385 39.9431C50.3509 39.457 49.6896 39.1839 49 39.1839H46.4V36.5919C46.4 35.9044 46.1261 35.2451 45.6385 34.7591C45.1509 34.273 44.4896 33.9999 43.8 33.9999Z" fill="white"/>
<path d="M55.9 33.7759C58.0539 33.7759 59.8 32.0352 59.8 29.8879C59.8 27.7406 58.0539 25.9999 55.9 25.9999C53.7461 25.9999 52 27.7406 52 29.8879C52 32.0352 53.7461 33.7759 55.9 33.7759Z" fill="white"/>
<path d="M102.8 79.3679C102.8 78.6804 102.526 78.0211 102.038 77.5351C101.551 77.049 100.89 76.7759 100.2 76.7759H95V71.5919C95 70.9044 94.7261 70.2451 94.2385 69.7591C93.7509 69.273 93.0896 68.9999 92.4 68.9999C91.7104 68.9999 91.0491 69.273 90.5615 69.7591C90.0739 70.2451 89.8 70.9044 89.8 71.5919V76.7759H84.6C83.9104 76.7759 83.2491 77.049 82.7615 77.5351C82.2739 78.0211 82 78.6804 82 79.3679C82 80.0553 82.2739 80.7146 82.7615 81.2007C83.2491 81.6868 83.9104 81.9599 84.6 81.9599H89.8V87.1439C89.8 87.8313 90.0739 88.4906 90.5615 88.9767C91.0491 89.4628 91.7104 89.7359 92.4 89.7359C93.0896 89.7359 93.7509 89.4628 94.2385 88.9767C94.7261 88.4906 95 87.8313 95 87.1439V81.9599H100.2C100.89 81.9599 101.551 81.6868 102.038 81.2007C102.526 80.7146 102.8 80.0553 102.8 79.3679Z" fill="white"/>
</g>
<defs>
<clipPath id="clip0_41_1686">
<rect width="94.6913" height="118.139" fill="white" transform="matrix(-0.965926 -0.258819 -0.258819 0.965926 122.042 24.5078)"/>
</clipPath>
</defs>
</svg>
