<svg width="120" height="68" viewBox="0 0 120 68" fill="none" xmlns="http://www.w3.org/2000/svg">
<path d="M34.1652 65.1195V59.9589C34.1652 53.1155 36.8871 46.5524 41.732 41.7135C46.577 36.8745 53.1482 34.156 60 34.156M60 34.156C66.8518 34.156 73.423 36.8745 78.2679 41.7135C83.1129 46.5524 85.8348 53.1155 85.8348 59.9589V65.1195M60 34.156C64.1111 34.156 68.0538 32.5248 70.9608 29.6215C73.8677 26.7181 75.5009 22.7802 75.5009 18.6742C75.5009 14.5682 73.8677 10.6303 70.9608 7.72695C68.0538 4.82355 64.1111 3.19244 60 3.19244C55.8889 3.19244 51.9462 4.82355 49.0392 7.72695C46.1322 10.6303 44.4991 14.5682 44.4991 18.6742C44.4991 22.7802 46.1322 26.7181 49.0392 29.6215C51.9462 32.5248 55.8889 34.156 60 34.156ZM3.16345 65.1195V59.9589C3.16345 55.8529 4.79657 51.915 7.70355 49.0116C10.6105 46.1082 14.5532 44.4771 18.6643 44.4771M18.6643 44.4771C21.405 44.4771 24.0335 43.3897 25.9715 41.4541C27.9095 39.5185 28.9982 36.8933 28.9982 34.156C28.9982 31.4186 27.9095 28.7934 25.9715 26.8578C24.0335 24.9222 21.405 23.8348 18.6643 23.8348C15.9236 23.8348 13.2951 24.9222 11.3571 26.8578C9.41916 28.7934 8.33041 31.4186 8.33041 34.156C8.33041 36.8933 9.41916 39.5185 11.3571 41.4541C13.2951 43.3897 15.9236 44.4771 18.6643 44.4771ZM116.837 65.1195V59.9589C116.837 55.8529 115.203 51.915 112.296 49.0116C109.389 46.1082 105.447 44.4771 101.336 44.4771M101.336 44.4771C104.076 44.4771 106.705 43.3897 108.643 41.4541C110.581 39.5185 111.67 36.8933 111.67 34.156C111.67 31.4186 110.581 28.7934 108.643 26.8578C106.705 24.9222 104.076 23.8348 101.336 23.8348C98.5949 23.8348 95.9664 24.9222 94.0285 26.8578C92.0905 28.7934 91.0017 31.4186 91.0017 34.156C91.0017 36.8933 92.0905 39.5185 94.0285 41.4541C95.9664 43.3897 98.5949 44.4771 101.336 44.4771Z" stroke="white" stroke-width="5" stroke-linecap="round" stroke-linejoin="round"/>
</svg>
