<svg width="1520" height="446" viewBox="0 0 1520 446" fill="none" xmlns="http://www.w3.org/2000/svg">
<mask id="mask0_41_1818" style="mask-type:alpha" maskUnits="userSpaceOnUse" x="-60" y="0" width="1592" height="446">
<path fill-rule="evenodd" clip-rule="evenodd" d="M214.438 9.15753C215.858 8.49505 217.26 7.80134 218.642 7.07734C230.503 32.418 257.033 50.0655 287.858 50.0655C320.001 50.0655 347.474 30.8773 358.514 3.78682C373.56 15.7994 392.328 23.6671 412.912 25.5633C410.241 35.5356 408.825 45.9574 408.825 56.6813C408.825 128.762 472.805 187.194 551.729 187.194C599.8 187.194 642.327 165.517 668.23 132.282C692.949 160.696 730.138 178.774 771.726 178.774C806.43 178.774 838.07 166.186 861.957 145.508C882.654 170.425 912.075 185.991 944.715 185.991C995.243 185.991 1038.06 148.688 1052.74 97.1394C1059.97 98.6127 1067.44 99.3837 1075.08 99.3837C1105.88 99.3837 1133.93 86.8533 1155 66.3133C1168.91 82.1245 1189.72 92.1664 1212.97 92.1664C1249.8 92.1664 1280.49 66.9818 1287.37 33.5828C1309.09 74.137 1352.39 101.789 1402.26 101.789C1464.95 101.789 1517.25 58.0925 1529.36 0C1531.09 8.40141 1532 17.1005 1532 26.0106C1532 29.8268 1531.83 33.6042 1531.51 37.3362H1532V445.48H-60V66.1602V37.3362H-57.9069C-46.5516 99.9408 9.6461 147.499 77.263 147.499C153.071 147.499 214.526 87.7201 214.526 13.979C214.526 12.365 214.496 10.7577 214.438 9.15753Z" fill="#FFFEDA"/>
</mask>
<g mask="url(#mask0_41_1818)">
<g filter="url(#filter0_d_41_1818)">
<path d="M1532 37.3362H1531.51C1531.83 33.6042 1532 29.8268 1532 26.0106C1532 17.1005 1531.09 8.40141 1529.36 0C1517.25 58.0925 1464.95 101.789 1402.26 101.789C1352.39 101.789 1309.09 74.137 1287.37 33.5828C1280.49 66.9818 1249.8 92.1664 1212.97 92.1664C1189.72 92.1664 1168.91 82.1245 1155 66.3133C1133.93 86.8533 1105.88 99.3837 1075.08 99.3837C1067.44 99.3837 1059.97 98.6127 1052.74 97.1394C1038.06 148.688 995.243 185.991 944.715 185.991C912.075 185.991 882.654 170.425 861.957 145.508C838.07 166.186 806.43 178.774 771.726 178.774C730.138 178.774 692.949 160.696 668.23 132.282C642.327 165.517 599.8 187.194 551.729 187.194C472.806 187.194 408.825 128.762 408.825 56.6813C408.825 45.9574 410.241 35.5356 412.912 25.5633C392.328 23.6671 373.56 15.7994 358.514 3.78682C347.474 30.8773 320.001 50.0655 287.858 50.0655C257.033 50.0655 230.503 32.418 218.642 7.07734C217.26 7.80134 215.858 8.49505 214.438 9.15753C214.497 10.7577 214.526 12.365 214.526 13.979C214.526 87.7201 153.071 147.499 77.263 147.499C9.6461 147.499 -46.5516 99.9408 -57.9069 37.3362H-60V66.1602" stroke="white"/>
</g>
<path fill-rule="evenodd" clip-rule="evenodd" d="M214.438 9.15753C215.858 8.49505 217.26 7.80134 218.642 7.07734C230.503 32.418 257.033 50.0655 287.858 50.0655C320.001 50.0655 347.474 30.8773 358.514 3.78682C373.56 15.7994 392.328 23.6671 412.912 25.5633C410.241 35.5356 408.825 45.9574 408.825 56.6813C408.825 128.762 472.805 187.194 551.729 187.194C599.8 187.194 642.327 165.517 668.23 132.282C692.949 160.696 730.138 178.774 771.726 178.774C806.43 178.774 838.07 166.186 861.957 145.508C882.654 170.425 912.075 185.991 944.715 185.991C995.243 185.991 1038.06 148.688 1052.74 97.1394C1059.97 98.6127 1067.44 99.3837 1075.08 99.3837C1105.88 99.3837 1133.93 86.8533 1155 66.3133C1168.91 82.1245 1189.72 92.1664 1212.97 92.1664C1249.8 92.1664 1280.49 66.9818 1287.37 33.5828C1309.09 74.137 1352.39 101.789 1402.26 101.789C1464.95 101.789 1517.25 58.0925 1529.36 0C1531.09 8.40141 1532 17.1005 1532 26.0106C1532 29.8268 1531.83 33.6042 1531.51 37.3362H1532V445.48H-60V66.1602V37.3362H-57.9069C-46.5516 99.9408 9.6461 147.499 77.263 147.499C153.071 147.499 214.526 87.7201 214.526 13.979C214.526 12.365 214.496 10.7577 214.438 9.15753Z" fill="url(#paint0_linear_41_1818)"/>
</g>
<defs>
<filter id="filter0_d_41_1818" x="-70.7" y="-10.302" width="1613.4" height="208.196" filterUnits="userSpaceOnUse" color-interpolation-filters="sRGB">
<feFlood flood-opacity="0" result="BackgroundImageFix"/>
<feColorMatrix in="SourceAlpha" type="matrix" values="0 0 0 0 0 0 0 0 0 0 0 0 0 0 0 0 0 0 127 0" result="hardAlpha"/>
<feOffset/>
<feGaussianBlur stdDeviation="5.1"/>
<feComposite in2="hardAlpha" operator="out"/>
<feColorMatrix type="matrix" values="0 0 0 0 0 0 0 0 0 0 0 0 0 0 0 0 0 0 0.58 0"/>
<feBlend mode="normal" in2="BackgroundImageFix" result="effect1_dropShadow_41_1818"/>
<feBlend mode="normal" in="SourceGraphic" in2="effect1_dropShadow_41_1818" result="shape"/>
</filter>
<linearGradient id="paint0_linear_41_1818" x1="736" y1="-681.322" x2="736" y2="321.234" gradientUnits="userSpaceOnUse">
<stop stop-color="#D290D5"/>
<stop offset="1" stop-color="#E393C9" stop-opacity="0"/>
</linearGradient>
</defs>
</svg>
