<svg width="310" height="393" viewBox="0 0 310 393" fill="none" xmlns="http://www.w3.org/2000/svg">
<g filter="url(#filter0_d_122_900)">
<rect x="166.327" y="2.5" width="81.078" height="23.1837" rx="11.5918" transform="rotate(90 166.327 2.5)" fill="url(#paint0_linear_122_900)" stroke="black"/>
<rect x="138.222" y="23.1209" width="81.078" height="23.1837" rx="11.5918" transform="rotate(116.08 138.222 23.1209)" fill="url(#paint1_linear_122_900)" stroke="black"/>
<rect x="0.668905" y="0.229273" width="81.078" height="23.1837" rx="11.5918" transform="matrix(0.439632 0.898178 0.898178 -0.439632 170.66 22.6209)" fill="url(#paint2_linear_122_900)" stroke="black"/>
<rect x="172.924" y="259.727" width="81.078" height="35.642" rx="17.821" transform="rotate(90 172.924 259.727)" fill="url(#paint3_linear_122_900)" stroke="black"/>
<rect x="102.368" y="279.627" width="106.122" height="35.642" rx="17.821" transform="rotate(110.409 102.368 279.627)" fill="url(#paint4_linear_122_900)" stroke="black"/>
<rect x="0.642974" y="0.294253" width="106.122" height="35.642" rx="17.821" transform="matrix(0.348721 0.937227 0.937227 -0.348721 207.277 279.127)" fill="url(#paint5_linear_122_900)" stroke="black"/>
<rect x="47.1423" y="43.5389" width="215.188" height="215.188" rx="29.5" fill="white" stroke="black"/>
<rect x="10.5" y="259.727" width="288.471" height="31.2449" rx="15.6225" fill="url(#paint6_linear_122_900)" stroke="black"/>
</g>
<defs>
<filter id="filter0_d_122_900" x="0" y="0" width="309.471" height="392.496" filterUnits="userSpaceOnUse" color-interpolation-filters="sRGB">
<feFlood flood-opacity="0" result="BackgroundImageFix"/>
<feColorMatrix in="SourceAlpha" type="matrix" values="0 0 0 0 0 0 0 0 0 0 0 0 0 0 0 0 0 0 127 0" result="hardAlpha"/>
<feOffset dy="8"/>
<feGaussianBlur stdDeviation="5"/>
<feComposite in2="hardAlpha" operator="out"/>
<feColorMatrix type="matrix" values="0 0 0 0 0.839216 0 0 0 0 0.568627 0 0 0 0 0.823529 0 0 0 0.32 0"/>
<feBlend mode="normal" in2="BackgroundImageFix" result="effect1_dropShadow_122_900"/>
<feBlend mode="normal" in="SourceGraphic" in2="effect1_dropShadow_122_900" result="shape"/>
</filter>
<linearGradient id="paint0_linear_122_900" x1="166.827" y1="14.0918" x2="248.905" y2="14.0918" gradientUnits="userSpaceOnUse">
<stop stop-color="#85656E"/>
<stop offset="0.53" stop-color="#EBB2C3"/>
</linearGradient>
<linearGradient id="paint1_linear_122_900" x1="138.891" y1="34.9835" x2="220.969" y2="34.9835" gradientUnits="userSpaceOnUse">
<stop stop-color="#85656E"/>
<stop offset="0.44" stop-color="#EBB2C3"/>
</linearGradient>
<linearGradient id="paint2_linear_122_900" x1="0" y1="12.0918" x2="82.078" y2="12.0918" gradientUnits="userSpaceOnUse">
<stop stop-color="#85656E"/>
<stop offset="0.44" stop-color="#EBB2C3"/>
</linearGradient>
<linearGradient id="paint3_linear_122_900" x1="255.494" y1="277.248" x2="173.494" y2="277.248" gradientUnits="userSpaceOnUse">
<stop stop-color="#916E79"/>
<stop offset="0.6" stop-color="#EBB2C3"/>
</linearGradient>
<linearGradient id="paint4_linear_122_900" x1="218.739" y1="290.804" x2="116.964" y2="293.996" gradientUnits="userSpaceOnUse">
<stop stop-color="#916E79"/>
<stop offset="0.845" stop-color="#EBB2C3"/>
</linearGradient>
<linearGradient id="paint5_linear_122_900" x1="99.6991" y1="31.4773" x2="-21.246" y2="24.7298" gradientUnits="userSpaceOnUse">
<stop stop-color="#916E79"/>
<stop offset="0.6" stop-color="#EBB2C3"/>
</linearGradient>
<linearGradient id="paint6_linear_122_900" x1="154.736" y1="259.227" x2="154.736" y2="291.471" gradientUnits="userSpaceOnUse">
<stop stop-color="#916E79"/>
<stop offset="0.855" stop-color="#E5ADBE"/>
<stop offset="0.92" stop-color="#EBB2C3"/>
</linearGradient>
</defs>
</svg>
