<svg width="1512" height="505" viewBox="0 0 1512 505" fill="none" xmlns="http://www.w3.org/2000/svg">
<path fill-rule="evenodd" clip-rule="evenodd" d="M1167.4 494.619C1165.62 495.37 1163.86 496.156 1162.12 496.977C1147.23 468.251 1113.92 448.245 1075.21 448.245C1034.85 448.245 1000.35 469.997 986.491 500.707C967.598 487.09 944.033 478.171 918.186 476.021C921.54 464.717 923.318 452.902 923.318 440.746C923.318 359.035 842.981 292.795 743.88 292.795C683.52 292.795 630.121 317.369 597.595 355.044C566.557 322.834 519.861 302.34 467.64 302.34C424.065 302.34 384.336 316.61 354.342 340.051C328.353 311.805 291.411 294.159 250.426 294.159C186.98 294.159 133.222 336.446 114.79 394.882C105.703 393.212 96.3217 392.338 86.7287 392.338C48.0583 392.338 12.8343 406.542 -13.6187 429.827C-31.0869 411.903 -57.2153 400.519 -86.4129 400.519C-132.652 400.519 -171.193 429.069 -179.832 466.93C-207.101 420.958 -261.469 389.611 -324.089 389.611C-402.807 389.611 -468.485 439.146 -483.685 505C-485.859 495.476 -487 485.615 -487 475.514C-487 471.188 -486.791 466.906 -486.381 462.675H-487V2.82929e-06L1512 2.82929e-06V430V462.675H1509.37C1495.11 391.706 1424.55 337.794 1339.65 337.794C1244.46 337.794 1167.29 405.56 1167.29 489.153C1167.29 490.983 1167.33 492.805 1167.4 494.619Z" fill="url(#paint0_linear_112_762)"/>
<defs>
<linearGradient id="paint0_linear_112_762" x1="512.5" y1="1277.35" x2="512.5" y2="140.846" gradientUnits="userSpaceOnUse">
<stop offset="0.297213" stop-color="#5F60D1"/>
<stop offset="1" stop-color="#E393C9" stop-opacity="0"/>
</linearGradient>
</defs>
</svg>
