<svg width="1300" height="823" viewBox="0 0 1300 823" fill="none" xmlns="http://www.w3.org/2000/svg">
<g filter="url(#filter0_i_2002_215)">
<mask id="mask0_2002_215" style="mask-type:alpha" maskUnits="userSpaceOnUse" x="0" y="0" width="1300" height="819">
<rect width="1300" height="818.779" rx="50" fill="#06A0DB"/>
</mask>
<g mask="url(#mask0_2002_215)">
<rect width="1300" height="818.779" rx="50" fill="url(#paint0_linear_2002_215)"/>
</g>
</g>
<path d="M347.156 698.178C215.639 722.553 213.962 754.941 86 819L1249 819C1276.61 819 1299 796.614 1299 769V678.443V529.558C1299 496.377 1096.67 416.471 892.324 547.817C861.195 567.826 816.009 610.744 783.16 653.995C734.65 717.867 699.402 775.538 635.48 767.934C631.537 767.465 627.686 766.242 624.061 764.62C522.715 719.29 476.359 674.232 347.156 698.178Z" fill="url(#paint1_linear_2002_215)" fill-opacity="0.5"/>
<mask id="mask1_2002_215" style="mask-type:alpha" maskUnits="userSpaceOnUse" x="27" y="35" width="1224" height="749">
<rect x="28" y="36" width="1222" height="746.282" rx="49" stroke="white" stroke-width="2"/>
</mask>
<g mask="url(#mask1_2002_215)">
<rect x="28" y="36" width="1222" height="746.282" rx="49" stroke="white" stroke-width="2"/>
</g>
<path d="M281.822 697.178C155.509 721.553 166.398 754.441 43.5 818.5L1196 818V677.443V528.558C1196 495.377 1001.67 415.471 805.416 546.817C775.52 566.826 732.122 609.744 700.573 652.994C652.563 718.812 618.079 778.043 553.052 766.056C452.003 719.926 408.135 672.803 281.822 697.178Z" fill="url(#paint2_linear_2002_215)" fill-opacity="0.3"/>
<path d="M65.4756 738.993C58.328 744.282 51.6662 750.662 45.0084 756.906C23.9895 776.618 0 758.661 0 729.846V50C0 22.3858 22.3857 0 50 0H911C927.06 23.112 924.205 38.6292 911 68.0601C865.926 101.834 838.092 107.127 782.878 86.6219C753.462 68.2923 736.558 61.3914 704.065 68.0601C704.065 68.0601 592.131 115.889 560.18 194.126C539.501 258.884 520.602 295.883 465.604 363.889C414.202 410.59 381.408 429.339 312.424 443.164C254.982 445.855 223.22 442.532 166.922 428.082C125.349 414.367 102.204 410.816 61.8381 428.082C41.2298 441.128 35.9237 453.196 36.7795 482.608C42.901 519.027 50.1971 539.085 69.5173 574.257C89.2734 612.13 95.9414 635.352 94.1717 674.8C94.068 706.547 86.693 719.945 65.4756 738.993Z" fill="url(#paint3_linear_2002_215)" fill-opacity="0.6"/>
<g filter="url(#filter1_f_2002_215)">
<mask id="path-8-inside-1_2002_215" fill="white">
<path fill-rule="evenodd" clip-rule="evenodd" d="M253.373 807.741C225.867 793.53 207 764.312 207 730.576C207 682.884 244.708 644.222 291.222 644.222C303.784 644.222 315.703 647.042 326.411 652.097C327.002 601.125 365.673 560 413.291 560C459.566 560 497.391 598.838 500.031 647.809C539.191 633.34 584.643 649.77 606.329 688.27C630.314 730.849 616.147 784.299 574.686 807.654C558.966 816.509 541.579 819.766 524.742 818.076C524.209 818.096 523.674 818.106 523.136 818.106H281.487C270.757 818.106 260.939 814.203 253.373 807.741Z"/>
</mask>
<path fill-rule="evenodd" clip-rule="evenodd" d="M253.373 807.741C225.867 793.53 207 764.312 207 730.576C207 682.884 244.708 644.222 291.222 644.222C303.784 644.222 315.703 647.042 326.411 652.097C327.002 601.125 365.673 560 413.291 560C459.566 560 497.391 598.838 500.031 647.809C539.191 633.34 584.643 649.77 606.329 688.27C630.314 730.849 616.147 784.299 574.686 807.654C558.966 816.509 541.579 819.766 524.742 818.076C524.209 818.096 523.674 818.106 523.136 818.106H281.487C270.757 818.106 260.939 814.203 253.373 807.741Z" fill="#5F60D1" fill-opacity="0.19"/>
<path d="M253.373 807.741L254.672 806.22L254.497 806.07L254.291 805.964L253.373 807.741ZM326.411 652.097L325.557 653.906L328.374 655.236L328.41 652.121L326.411 652.097ZM500.031 647.809L498.034 647.917L498.18 650.625L500.725 649.685L500.031 647.809ZM606.329 688.27L604.587 689.251L604.587 689.251L606.329 688.27ZM574.686 807.654L573.704 805.911L573.704 805.911L574.686 807.654ZM524.742 818.076L524.942 816.086L524.806 816.073L524.67 816.078L524.742 818.076ZM254.291 805.964C227.441 792.092 209 763.554 209 730.576H205C205 765.07 224.294 794.968 252.455 809.518L254.291 805.964ZM209 730.576C209 683.941 245.859 646.222 291.222 646.222V642.222C243.556 642.222 205 681.827 205 730.576H209ZM291.222 646.222C303.481 646.222 315.109 648.973 325.557 653.906L327.264 650.289C316.296 645.11 304.086 642.222 291.222 642.222V646.222ZM328.41 652.121C328.991 602.108 366.899 562 413.291 562V558C364.447 558 325.014 600.141 324.411 652.074L328.41 652.121ZM413.291 562C458.376 562 495.444 599.875 498.034 647.917L502.028 647.701C499.338 597.801 460.755 558 413.291 558V562ZM500.725 649.685C538.94 635.565 583.371 651.587 604.587 689.251L608.072 687.288C585.915 647.954 539.441 631.116 499.338 645.933L500.725 649.685ZM604.587 689.251C628.054 730.912 614.159 783.123 573.704 805.911L575.667 809.396C618.134 785.475 632.574 730.786 608.072 687.288L604.587 689.251ZM573.704 805.911C558.358 814.556 541.386 817.736 524.942 816.086L524.543 820.066C541.772 821.795 559.574 818.462 575.667 809.396L573.704 805.911ZM524.67 816.078C524.161 816.096 523.65 816.106 523.136 816.106V820.106C523.698 820.106 524.258 820.095 524.815 820.075L524.67 816.078ZM523.136 816.106H281.487V820.106H523.136V816.106ZM281.487 816.106C271.251 816.106 261.889 812.385 254.672 806.22L252.074 809.262C259.988 816.022 270.263 820.106 281.487 820.106V816.106Z" fill="white" mask="url(#path-8-inside-1_2002_215)"/>
</g>
<g filter="url(#filter2_f_2002_215)">
<path fill-rule="evenodd" clip-rule="evenodd" d="M55 465.035C55 468.72 57.5551 471.794 60.9482 472.495C59.9306 473.798 59.3219 475.451 59.3219 477.25C59.3219 481.454 62.6455 484.861 66.7452 484.861C69.3589 484.861 71.6571 483.476 72.9798 481.383C75.1936 484.825 79.6599 486.026 83.1787 484.043C86.833 481.985 88.0817 477.274 85.9677 473.521C85.7864 473.199 85.5864 472.895 85.3697 472.609C86.0679 472.454 86.754 472.196 87.4073 471.828C91.0617 469.769 92.3104 465.058 90.1964 461.305C88.285 457.912 84.279 456.464 80.8275 457.739C80.5948 453.423 77.2609 450 73.1823 450C68.9853 450 65.5769 453.625 65.5247 458.117C64.581 457.672 63.5304 457.423 62.4233 457.423C58.3235 457.423 55 460.831 55 465.035Z" fill="white" fill-opacity="0.8"/>
</g>
<g filter="url(#filter3_f_2002_215)">
<path fill-rule="evenodd" clip-rule="evenodd" d="M923 717.457C923 720.511 925.117 723.058 927.928 723.639C927.085 724.718 926.581 726.088 926.581 727.579C926.581 731.061 929.335 733.885 932.732 733.885C934.897 733.885 936.802 732.737 937.898 731.003C939.732 733.855 943.433 734.85 946.348 733.207C949.376 731.502 950.411 727.598 948.659 724.489C948.509 724.222 948.343 723.97 948.164 723.733C948.742 723.605 949.311 723.391 949.852 723.086C952.88 721.38 953.914 717.477 952.163 714.367C950.579 711.556 947.26 710.356 944.4 711.413C944.207 707.836 941.445 705 938.065 705C934.588 705 931.764 708.003 931.72 711.726C930.938 711.357 930.068 711.151 929.151 711.151C925.754 711.151 923 713.974 923 717.457Z" fill="white" fill-opacity="0.8"/>
</g>
<g filter="url(#filter4_f_2002_215)">
<path fill-rule="evenodd" clip-rule="evenodd" d="M1035 473.457C1035 476.511 1037.12 479.058 1039.93 479.639C1039.09 480.718 1038.58 482.088 1038.58 483.579C1038.58 487.061 1041.33 489.885 1044.73 489.885C1046.9 489.885 1048.8 488.737 1049.9 487.003C1051.73 489.855 1055.43 490.85 1058.35 489.207C1061.38 487.502 1062.41 483.598 1060.66 480.489C1060.51 480.222 1060.34 479.97 1060.16 479.733C1060.74 479.605 1061.31 479.391 1061.85 479.086C1064.88 477.38 1065.91 473.477 1064.16 470.367C1062.58 467.556 1059.26 466.356 1056.4 467.413C1056.21 463.836 1053.44 461 1050.07 461C1046.59 461 1043.76 464.003 1043.72 467.726C1042.94 467.357 1042.07 467.151 1041.15 467.151C1037.75 467.151 1035 469.974 1035 473.457Z" fill="white" fill-opacity="0.8"/>
</g>
<g filter="url(#filter5_f_2002_215)">
<path fill-rule="evenodd" clip-rule="evenodd" d="M130.809 588.614C134.929 595.751 143.314 598.847 150.668 596.412C150.154 600.072 150.824 603.953 152.835 607.437C157.534 615.577 167.78 618.46 175.719 613.876C180.78 610.954 183.682 605.702 183.903 600.17C192.039 604.361 202.03 601.692 206.628 593.919C211.403 585.848 208.554 575.329 200.265 570.425C199.554 570.005 198.826 569.639 198.087 569.327C199.266 568.247 200.306 566.98 201.159 565.537C205.934 557.465 203.085 546.946 194.796 542.043C187.301 537.609 177.924 539.283 172.666 545.612C167.39 537.514 157.107 534.612 149.209 539.172C141.082 543.865 138.534 554.694 143.456 563.452C141.13 563.645 138.818 564.338 136.674 565.576C128.735 570.159 126.109 580.474 130.809 588.614Z" fill="white" fill-opacity="0.24"/>
</g>
<g filter="url(#filter6_f_2002_215)">
<circle cx="1085.04" cy="438.037" r="8.03709" fill="white" fill-opacity="0.8"/>
</g>
<g filter="url(#filter7_f_2002_215)">
<circle cx="259.037" cy="165.037" r="8.03709" fill="white" fill-opacity="0.8"/>
</g>
<g filter="url(#filter8_f_2002_215)">
<circle cx="129.037" cy="425.037" r="8.03709" fill="white" fill-opacity="0.8"/>
</g>
<g filter="url(#filter9_f_2002_215)">
<mask id="path-17-inside-2_2002_215" fill="white">
<path fill-rule="evenodd" clip-rule="evenodd" d="M158.651 141.201C162.254 146.988 169.271 149.317 175.284 147.101C174.96 150.141 175.62 153.331 177.378 156.156C181.487 162.756 190.036 164.857 196.474 160.85C200.577 158.295 202.832 153.874 202.863 149.294C209.704 152.536 217.889 150.054 221.477 143.502C225.202 136.698 222.558 128.081 215.57 124.255C214.971 123.926 214.36 123.644 213.74 123.407C214.685 122.482 215.509 121.405 216.175 120.189C219.901 113.385 217.256 104.767 210.269 100.941C203.951 97.4818 196.245 99.1241 192.072 104.5C187.488 97.9507 178.907 95.8348 172.503 99.8217C165.913 103.924 164.105 112.947 168.414 120.052C166.497 120.275 164.605 120.912 162.866 121.994C156.429 126.002 154.542 134.601 158.651 141.201Z"/>
</mask>
<path fill-rule="evenodd" clip-rule="evenodd" d="M158.651 141.201C162.254 146.988 169.271 149.317 175.284 147.101C174.96 150.141 175.62 153.331 177.378 156.156C181.487 162.756 190.036 164.857 196.474 160.85C200.577 158.295 202.832 153.874 202.863 149.294C209.704 152.536 217.889 150.054 221.477 143.502C225.202 136.698 222.558 128.081 215.57 124.255C214.971 123.926 214.36 123.644 213.74 123.407C214.685 122.482 215.509 121.405 216.175 120.189C219.901 113.385 217.256 104.767 210.269 100.941C203.951 97.4818 196.245 99.1241 192.072 104.5C187.488 97.9507 178.907 95.8348 172.503 99.8217C165.913 103.924 164.105 112.947 168.414 120.052C166.497 120.275 164.605 120.912 162.866 121.994C156.429 126.002 154.542 134.601 158.651 141.201Z" fill="#5F60D1" fill-opacity="0.13"/>
<path d="M175.284 147.101L177.273 147.313L177.614 144.111L174.592 145.224L175.284 147.101ZM202.863 149.294L203.719 147.487L200.884 146.144L200.863 149.281L202.863 149.294ZM221.477 143.502L219.723 142.542L219.723 142.542L221.477 143.502ZM215.57 124.255L216.531 122.5L216.531 122.5L215.57 124.255ZM213.74 123.407L212.341 121.978L210.113 124.159L213.024 125.274L213.74 123.407ZM216.175 120.189L217.93 121.15L217.93 121.15L216.175 120.189ZM210.269 100.941L209.308 102.696L209.308 102.696L210.269 100.941ZM192.072 104.5L190.434 105.647L191.989 107.869L193.652 105.727L192.072 104.5ZM168.414 120.052L168.645 122.039L171.74 121.679L170.124 119.015L168.414 120.052ZM174.592 145.224C169.483 147.107 163.458 145.139 160.349 140.144L156.953 142.258C161.049 148.838 169.058 151.527 175.975 148.978L174.592 145.224ZM179.076 155.099C177.559 152.663 176.994 149.921 177.273 147.313L173.295 146.889C172.925 150.361 173.68 154 175.68 157.213L179.076 155.099ZM195.417 159.152C189.957 162.551 182.626 160.801 179.076 155.099L175.68 157.213C180.348 164.71 190.116 167.164 197.531 162.548L195.417 159.152ZM200.863 149.281C200.836 153.219 198.901 156.983 195.417 159.152L197.531 162.548C202.254 159.607 204.828 154.529 204.863 149.308L200.863 149.281ZM219.723 142.542C216.669 148.119 209.65 150.297 203.719 147.487L202.006 151.102C209.757 154.774 219.11 151.989 223.231 144.463L219.723 142.542ZM214.61 126.009C220.673 129.329 222.894 136.75 219.723 142.542L223.231 144.463C227.511 136.646 224.443 126.833 216.531 122.5L214.61 126.009ZM213.024 125.274C213.56 125.48 214.09 125.724 214.61 126.009L216.531 122.5C215.852 122.129 215.159 121.809 214.455 121.539L213.024 125.274ZM214.421 119.229C213.851 120.27 213.147 121.189 212.341 121.978L215.139 124.836C216.223 123.775 217.168 122.541 217.93 121.15L214.421 119.229ZM209.308 102.696C215.371 106.015 217.592 113.437 214.421 119.229L217.93 121.15C222.21 113.333 219.142 103.519 211.229 99.187L209.308 102.696ZM193.652 105.727C197.208 101.145 203.831 99.6964 209.308 102.696L211.229 99.187C204.07 95.2672 195.282 97.1032 190.492 103.274L193.652 105.727ZM173.56 101.52C178.954 98.1614 186.383 99.8603 190.434 105.647L193.711 103.353C188.592 96.0411 178.86 93.5082 171.446 98.1238L173.56 101.52ZM170.124 119.015C166.313 112.731 168.011 104.974 173.56 101.52L171.446 98.1238C163.815 102.874 161.897 113.163 166.704 121.089L170.124 119.015ZM163.923 123.692C165.405 122.77 167.014 122.229 168.645 122.039L168.183 118.066C165.98 118.322 163.804 119.054 161.809 120.296L163.923 123.692ZM160.349 140.144C156.798 134.441 158.464 127.091 163.923 123.692L161.809 120.296C154.395 124.912 152.285 134.76 156.953 142.258L160.349 140.144Z" fill="white" mask="url(#path-17-inside-2_2002_215)"/>
</g>
<path d="M892.254 58.7734C892.254 58.7734 842.421 20.3022 779 0L1248.64 0.0110655C1276.28 0.0117171 1298.71 22.4372 1298.71 50.0763L1298.71 244.935C1274.13 268.688 1270.24 273.436 1237.5 291.63C1204.76 309.824 1146.73 321.547 1081.32 314.947C1022.31 293.802 993.482 274.12 959.824 206.4C943.588 148.611 929.746 116.275 892.254 58.7734Z" fill="url(#paint4_linear_2002_215)" fill-opacity="0.6"/>
<rect x="438" y="381.258" width="482" height="45" rx="22.5" fill="#5F60D1"/>
<g filter="url(#filter10_d_2002_215)">
<path d="M319.48 362.258C319.4 361.698 319.34 361.238 319.3 360.878C319.3 360.478 319.28 360.018 319.24 359.498C317.88 360.858 316.44 361.818 314.92 362.378C313.4 362.938 311.86 363.218 310.3 363.218C307.74 363.218 305.74 362.458 304.3 360.938C302.86 359.418 302.14 357.518 302.14 355.238C302.14 353.318 302.62 351.678 303.58 350.318C304.58 348.958 305.88 347.858 307.48 347.018C309.12 346.138 310.92 345.478 312.88 345.038C314.88 344.558 316.88 344.278 318.88 344.198V341.078C318.88 340.038 318.74 339.098 318.46 338.258C318.22 337.418 317.78 336.758 317.14 336.278C316.54 335.798 315.68 335.578 314.56 335.618C313.8 335.658 313.06 335.818 312.34 336.098C311.62 336.378 311 336.778 310.48 337.298C310.8 337.658 311 338.058 311.08 338.498C311.16 338.898 311.2 339.258 311.2 339.578C311.2 340.378 310.88 341.218 310.24 342.098C309.6 342.938 308.58 343.338 307.18 343.298C305.98 343.258 305.06 342.838 304.42 342.038C303.78 341.238 303.46 340.298 303.46 339.218C303.46 337.618 304.02 336.238 305.14 335.078C306.3 333.878 307.84 332.958 309.76 332.318C311.68 331.638 313.8 331.298 316.12 331.298C319.64 331.298 322.36 332.218 324.28 334.058C326.24 335.858 327.22 338.758 327.22 342.758C327.22 344.118 327.22 345.278 327.22 346.238C327.22 347.198 327.2 348.158 327.16 349.118C327.16 350.078 327.16 351.238 327.16 352.598C327.16 353.158 327.14 353.958 327.1 354.998C327.06 355.998 327 356.958 326.92 357.878C327.6 357.798 328.32 357.758 329.08 357.758C329.84 357.718 330.42 357.698 330.82 357.698V362.258H319.48ZM318.82 348.458C317.7 348.578 316.64 348.778 315.64 349.058C314.64 349.338 313.76 349.718 313 350.198C312.28 350.678 311.7 351.258 311.26 351.938C310.86 352.618 310.66 353.378 310.66 354.218C310.7 355.338 311.06 356.138 311.74 356.618C312.42 357.098 313.2 357.338 314.08 357.338C315 357.338 315.86 357.138 316.66 356.738C317.46 356.338 318.18 355.818 318.82 355.178C318.82 354.778 318.82 354.398 318.82 354.038C318.82 353.638 318.82 353.238 318.82 352.838C318.82 352.118 318.82 351.398 318.82 350.678C318.82 349.918 318.82 349.178 318.82 348.458ZM370.265 358.358C371.385 358.358 372.185 358.138 372.665 357.698C373.145 357.258 373.445 356.638 373.565 355.838C373.725 354.998 373.805 354.058 373.805 353.018V342.938C373.805 342.218 373.825 341.418 373.865 340.538C373.905 339.618 373.965 338.718 374.045 337.838C373.405 337.878 372.645 337.918 371.765 337.958C370.925 337.958 370.285 337.978 369.845 338.018V333.458H372.245C373.805 333.458 375.225 333.258 376.505 332.858C377.825 332.458 378.685 332.058 379.085 331.658H382.025C382.105 332.058 382.165 332.818 382.205 333.938C382.245 335.018 382.265 335.978 382.265 336.818C383.345 335.498 384.365 334.438 385.325 333.638C386.285 332.838 387.225 332.258 388.145 331.898C389.105 331.498 390.065 331.298 391.025 331.298C392.425 331.298 393.645 331.698 394.685 332.498C395.725 333.258 396.245 334.518 396.245 336.278C396.245 336.878 396.105 337.518 395.825 338.198C395.545 338.838 395.105 339.378 394.505 339.818C393.905 340.258 393.085 340.478 392.045 340.478C391.245 340.478 390.425 340.238 389.585 339.758C388.745 339.278 388.265 338.358 388.145 336.998C387.345 336.998 386.545 337.338 385.745 338.018C384.945 338.658 384.225 339.438 383.585 340.358C382.985 341.238 382.565 342.058 382.325 342.818V352.598C382.325 353.158 382.305 353.958 382.265 354.998C382.225 355.998 382.165 356.958 382.085 357.878C382.725 357.798 383.425 357.758 384.185 357.758C384.985 357.718 385.585 357.698 385.985 357.698V362.258H370.265V358.358ZM446.973 363.218C445.773 363.218 444.613 363.078 443.493 362.798C442.413 362.518 441.413 361.998 440.493 361.238C439.613 360.438 438.913 359.278 438.393 357.758C437.873 356.238 437.613 354.218 437.613 351.698L437.733 337.238H433.653V332.258C434.893 332.218 436.093 331.798 437.253 330.998C438.413 330.198 439.393 329.158 440.193 327.878C441.033 326.598 441.593 325.258 441.873 323.858H446.313L446.253 332.258H453.873V336.878L446.253 337.058L446.193 351.818C446.193 352.738 446.273 353.658 446.433 354.578C446.633 355.458 446.993 356.198 447.513 356.798C448.033 357.358 448.793 357.638 449.793 357.638C450.353 357.638 451.113 357.438 452.073 357.038C453.073 356.638 454.133 355.638 455.253 354.038L458.133 356.738C457.053 358.338 455.933 359.578 454.773 360.458C453.613 361.338 452.493 361.978 451.413 362.378C450.373 362.778 449.453 363.018 448.653 363.098C447.853 363.178 447.293 363.218 446.973 363.218ZM551.36 330.518C551.36 325.678 552.42 322.218 554.54 320.138C556.66 318.018 559.52 316.958 563.12 316.958C565 316.958 566.5 317.238 567.62 317.798C568.74 318.318 569.54 318.978 570.02 319.778C570.5 320.578 570.74 321.398 570.74 322.238C570.74 323.278 570.42 324.198 569.78 324.998C569.14 325.798 568.22 326.218 567.02 326.258C565.86 326.298 564.96 325.998 564.32 325.358C563.68 324.678 563.36 323.838 563.36 322.838C563.36 322.638 563.36 322.438 563.36 322.238C563.4 322.038 563.44 321.838 563.48 321.638C563.28 321.438 563.04 321.318 562.76 321.278C562.52 321.198 562.3 321.158 562.1 321.158C561.46 321.158 560.96 321.358 560.6 321.758C560.24 322.118 560 322.578 559.88 323.138C559.76 323.698 559.7 324.278 559.7 324.878V332.258H566.42V336.878L559.76 337.058L559.82 352.478C559.82 353.038 559.8 353.858 559.76 354.938C559.72 355.978 559.66 356.958 559.58 357.878C560.26 357.798 561.02 357.758 561.86 357.758C562.74 357.718 563.38 357.698 563.78 357.698V362.258H547.76V358.358C548.88 358.358 549.68 358.138 550.16 357.698C550.68 357.258 551 356.638 551.12 355.838C551.28 354.998 551.36 354.058 551.36 353.018V337.178L546.98 337.238V332.258H551.36V330.518ZM623.874 362.258C623.794 361.698 623.734 361.238 623.694 360.878C623.694 360.478 623.674 360.018 623.634 359.498C622.274 360.858 620.834 361.818 619.314 362.378C617.794 362.938 616.254 363.218 614.694 363.218C612.134 363.218 610.134 362.458 608.694 360.938C607.254 359.418 606.534 357.518 606.534 355.238C606.534 353.318 607.014 351.678 607.974 350.318C608.974 348.958 610.274 347.858 611.874 347.018C613.514 346.138 615.314 345.478 617.274 345.038C619.274 344.558 621.274 344.278 623.274 344.198V341.078C623.274 340.038 623.134 339.098 622.854 338.258C622.614 337.418 622.174 336.758 621.534 336.278C620.934 335.798 620.074 335.578 618.954 335.618C618.194 335.658 617.454 335.818 616.734 336.098C616.014 336.378 615.394 336.778 614.874 337.298C615.194 337.658 615.394 338.058 615.474 338.498C615.554 338.898 615.594 339.258 615.594 339.578C615.594 340.378 615.274 341.218 614.634 342.098C613.994 342.938 612.974 343.338 611.574 343.298C610.374 343.258 609.454 342.838 608.814 342.038C608.174 341.238 607.854 340.298 607.854 339.218C607.854 337.618 608.414 336.238 609.534 335.078C610.694 333.878 612.234 332.958 614.154 332.318C616.074 331.638 618.194 331.298 620.514 331.298C624.034 331.298 626.754 332.218 628.674 334.058C630.634 335.858 631.614 338.758 631.614 342.758C631.614 344.118 631.614 345.278 631.614 346.238C631.614 347.198 631.594 348.158 631.554 349.118C631.554 350.078 631.554 351.238 631.554 352.598C631.554 353.158 631.534 353.958 631.494 354.998C631.454 355.998 631.394 356.958 631.314 357.878C631.994 357.798 632.714 357.758 633.474 357.758C634.234 357.718 634.814 357.698 635.214 357.698V362.258H623.874ZM623.214 348.458C622.094 348.578 621.034 348.778 620.034 349.058C619.034 349.338 618.154 349.718 617.394 350.198C616.674 350.678 616.094 351.258 615.654 351.938C615.254 352.618 615.054 353.378 615.054 354.218C615.094 355.338 615.454 356.138 616.134 356.618C616.814 357.098 617.594 357.338 618.474 357.338C619.394 357.338 620.254 357.138 621.054 356.738C621.854 356.338 622.574 355.818 623.214 355.178C623.214 354.778 623.214 354.398 623.214 354.038C623.214 353.638 623.214 353.238 623.214 352.838C623.214 352.118 623.214 351.398 623.214 350.678C623.214 349.918 623.214 349.178 623.214 348.458ZM688.819 363.218C686.139 363.218 683.679 362.618 681.439 361.418C679.199 360.218 677.399 358.478 676.039 356.198C674.719 353.918 674.059 351.158 674.059 347.918C674.059 345.638 674.439 343.498 675.199 341.498C675.959 339.498 677.019 337.738 678.379 336.218C679.779 334.698 681.419 333.498 683.299 332.618C685.219 331.738 687.339 331.298 689.659 331.298C692.219 331.298 694.339 331.698 696.019 332.498C697.739 333.258 699.019 334.278 699.859 335.558C700.739 336.798 701.179 338.118 701.179 339.518C701.179 340.678 700.819 341.718 700.099 342.638C699.419 343.518 698.439 343.978 697.159 344.018C695.639 344.058 694.579 343.638 693.979 342.758C693.379 341.838 693.079 340.958 693.079 340.118C693.079 339.758 693.139 339.338 693.259 338.858C693.379 338.338 693.559 337.878 693.799 337.478C693.519 336.878 693.099 336.438 692.539 336.158C691.979 335.878 691.399 335.698 690.799 335.618C690.239 335.498 689.779 335.458 689.419 335.498C687.499 335.618 685.919 336.578 684.679 338.378C683.439 340.178 682.819 342.778 682.819 346.178C682.819 348.178 683.059 350.058 683.539 351.818C684.059 353.538 684.899 354.958 686.059 356.078C687.219 357.198 688.779 357.798 690.739 357.878C692.419 357.918 694.059 357.518 695.659 356.678C697.259 355.838 698.619 354.698 699.739 353.258L702.499 355.958C701.059 357.958 699.559 359.478 697.999 360.518C696.439 361.558 694.879 362.258 693.319 362.618C691.799 363.018 690.299 363.218 688.819 363.218ZM753.594 363.218C752.394 363.218 751.234 363.078 750.114 362.798C749.034 362.518 748.034 361.998 747.114 361.238C746.234 360.438 745.534 359.278 745.014 357.758C744.494 356.238 744.234 354.218 744.234 351.698L744.354 337.238H740.274V332.258C741.514 332.218 742.714 331.798 743.874 330.998C745.034 330.198 746.014 329.158 746.814 327.878C747.654 326.598 748.214 325.258 748.494 323.858H752.934L752.874 332.258H760.494V336.878L752.874 337.058L752.814 351.818C752.814 352.738 752.894 353.658 753.054 354.578C753.254 355.458 753.614 356.198 754.134 356.798C754.654 357.358 755.414 357.638 756.414 357.638C756.974 357.638 757.734 357.438 758.694 357.038C759.694 356.638 760.754 355.638 761.874 354.038L764.754 356.738C763.674 358.338 762.554 359.578 761.394 360.458C760.234 361.338 759.114 361.978 758.034 362.378C756.994 362.778 756.074 363.018 755.274 363.098C754.474 363.178 753.914 363.218 753.594 363.218ZM817.199 363.218C814.319 363.218 811.719 362.598 809.399 361.358C807.079 360.118 805.239 358.358 803.879 356.078C802.559 353.758 801.899 351.038 801.899 347.918C801.899 344.598 802.579 341.698 803.939 339.218C805.339 336.698 807.179 334.758 809.459 333.398C811.779 331.998 814.299 331.298 817.019 331.298C819.899 331.298 822.479 331.918 824.759 333.158C827.039 334.398 828.839 336.178 830.159 338.498C831.479 340.778 832.139 343.518 832.139 346.718C832.139 350.078 831.499 352.998 830.219 355.478C828.939 357.958 827.179 359.878 824.939 361.238C822.699 362.558 820.119 363.218 817.199 363.218ZM817.439 358.958C819.039 358.918 820.239 358.358 821.039 357.278C821.879 356.198 822.459 354.838 822.779 353.198C823.099 351.558 823.259 349.898 823.259 348.218C823.259 346.738 823.139 345.238 822.899 343.718C822.699 342.198 822.359 340.818 821.879 339.578C821.399 338.338 820.739 337.338 819.899 336.578C819.099 335.818 818.099 335.458 816.899 335.498C815.339 335.538 814.099 336.098 813.179 337.178C812.299 338.258 811.659 339.618 811.259 341.258C810.899 342.858 810.719 344.538 810.719 346.298C810.719 348.338 810.939 350.338 811.379 352.298C811.819 354.258 812.519 355.878 813.479 357.158C814.479 358.398 815.799 358.998 817.439 358.958ZM872.483 358.358C873.603 358.358 874.403 358.138 874.883 357.698C875.363 357.258 875.663 356.638 875.783 355.838C875.943 354.998 876.023 354.058 876.023 353.018V342.938C876.023 342.218 876.043 341.418 876.083 340.538C876.123 339.618 876.183 338.718 876.263 337.838C875.623 337.878 874.863 337.918 873.983 337.958C873.143 337.958 872.503 337.978 872.063 338.018V333.458H874.463C876.023 333.458 877.443 333.258 878.723 332.858C880.043 332.458 880.903 332.058 881.303 331.658H884.243C884.323 332.058 884.383 332.818 884.423 333.938C884.463 335.018 884.483 335.978 884.483 336.818C885.563 335.498 886.583 334.438 887.543 333.638C888.503 332.838 889.443 332.258 890.363 331.898C891.323 331.498 892.283 331.298 893.243 331.298C894.643 331.298 895.863 331.698 896.903 332.498C897.943 333.258 898.463 334.518 898.463 336.278C898.463 336.878 898.323 337.518 898.043 338.198C897.763 338.838 897.323 339.378 896.723 339.818C896.123 340.258 895.303 340.478 894.263 340.478C893.463 340.478 892.643 340.238 891.803 339.758C890.963 339.278 890.483 338.358 890.363 336.998C889.563 336.998 888.763 337.338 887.963 338.018C887.163 338.658 886.443 339.438 885.803 340.358C885.203 341.238 884.783 342.058 884.543 342.818V352.598C884.543 353.158 884.523 353.958 884.483 354.998C884.443 355.998 884.383 356.958 884.303 357.878C884.943 357.798 885.643 357.758 886.403 357.758C887.203 357.718 887.803 357.698 888.203 357.698V362.258H872.483V358.358ZM944.493 378.518C942.973 378.518 941.673 378.058 940.593 377.138C939.553 376.258 939.033 375.078 939.033 373.598C939.033 372.518 939.373 371.558 940.053 370.718C940.773 369.918 941.693 369.498 942.813 369.458C943.693 369.418 944.433 369.698 945.033 370.298C945.673 370.938 945.993 371.798 945.993 372.878C945.993 372.998 945.993 373.118 945.993 373.238C945.993 373.358 945.973 373.498 945.933 373.658C946.013 373.658 946.113 373.638 946.233 373.598C946.593 373.478 946.973 373.138 947.373 372.578C947.813 372.058 948.233 371.358 948.633 370.478C949.073 369.558 949.493 368.518 949.893 367.358C950.333 366.238 950.713 365.058 951.033 363.818L941.553 344.798C940.433 342.558 939.693 340.878 939.333 339.758C939.013 338.598 938.793 337.578 938.673 336.698L935.913 336.818V332.258H950.853V336.098C949.373 336.258 948.553 336.818 948.393 337.778C948.273 338.738 948.453 339.738 948.933 340.778L954.813 354.218C955.213 353.178 955.733 351.578 956.373 349.418C957.013 347.218 957.773 344.838 958.653 342.278C958.813 341.758 959.013 341.158 959.253 340.478C959.533 339.758 959.833 339.058 960.153 338.378C960.473 337.658 960.813 337.078 961.173 336.638L957.753 336.818V332.258H968.433V336.098C967.193 336.378 966.153 337.138 965.313 338.378C964.513 339.618 963.793 341.138 963.153 342.938L955.653 364.358C954.533 367.598 953.473 370.258 952.473 372.338C951.473 374.458 950.353 376.018 949.113 377.018C947.873 378.018 946.333 378.518 944.493 378.518Z" fill="white"/>
</g>
<path d="M522.774 410.18C521.987 410.18 521.327 410.033 520.794 409.74C520.274 409.447 519.887 409.013 519.634 408.44C519.381 407.867 519.254 407.147 519.254 406.28V401.04C519.254 400.733 519.327 400.507 519.474 400.36C519.634 400.2 519.861 400.12 520.154 400.12C520.447 400.12 520.674 400.2 520.834 400.36C520.994 400.507 521.074 400.733 521.074 401.04V406.28C521.074 407.107 521.241 407.72 521.574 408.12C521.907 408.507 522.434 408.7 523.154 408.7C523.954 408.7 524.601 408.433 525.094 407.9C525.601 407.367 525.854 406.66 525.854 405.78V401.04C525.854 400.733 525.927 400.507 526.074 400.36C526.234 400.2 526.461 400.12 526.754 400.12C527.047 400.12 527.274 400.2 527.434 400.36C527.594 400.507 527.674 400.733 527.674 401.04V409.2C527.674 409.827 527.381 410.14 526.794 410.14C526.501 410.14 526.274 410.06 526.114 409.9C525.967 409.74 525.894 409.507 525.894 409.2V407.46L526.154 407.8C525.887 408.573 525.454 409.167 524.854 409.58C524.267 409.98 523.574 410.18 522.774 410.18ZM533.503 410.14C533.223 410.14 533.003 410.06 532.843 409.9C532.683 409.74 532.603 409.507 532.603 409.2V401.04C532.603 400.733 532.683 400.507 532.843 400.36C533.003 400.2 533.223 400.12 533.503 400.12C533.783 400.12 533.996 400.2 534.143 400.36C534.303 400.507 534.383 400.733 534.383 401.04V402.68L534.163 402.38C534.443 401.62 534.896 401.047 535.523 400.66C536.163 400.273 536.889 400.08 537.703 400.08C538.489 400.08 539.136 400.22 539.643 400.5C540.149 400.78 540.529 401.207 540.783 401.78C541.036 402.353 541.163 403.08 541.163 403.96V409.2C541.163 409.507 541.083 409.74 540.923 409.9C540.776 410.06 540.556 410.14 540.263 410.14C539.969 410.14 539.743 410.06 539.583 409.9C539.423 409.74 539.343 409.507 539.343 409.2V404.06C539.343 403.193 539.176 402.56 538.843 402.16C538.509 401.76 537.976 401.56 537.243 401.56C536.389 401.56 535.703 401.827 535.183 402.36C534.676 402.88 534.423 403.587 534.423 404.48V409.2C534.423 409.827 534.116 410.14 533.503 410.14ZM546.948 410.1C546.668 410.1 546.448 410.013 546.288 409.84C546.128 409.667 546.048 409.427 546.048 409.12V401.14C546.048 400.82 546.128 400.58 546.288 400.42C546.448 400.247 546.668 400.16 546.948 400.16C547.241 400.16 547.468 400.247 547.628 400.42C547.788 400.58 547.868 400.82 547.868 401.14V409.12C547.868 409.427 547.788 409.667 547.628 409.84C547.481 410.013 547.255 410.1 546.948 410.1ZM546.948 398C546.588 398 546.301 397.907 546.088 397.72C545.888 397.52 545.788 397.26 545.788 396.94C545.788 396.593 545.888 396.333 546.088 396.16C546.301 395.973 546.588 395.88 546.948 395.88C547.335 395.88 547.621 395.973 547.808 396.16C548.008 396.333 548.108 396.593 548.108 396.94C548.108 397.26 548.008 397.52 547.808 397.72C547.621 397.907 547.335 398 546.948 398ZM556.494 410.14C556.241 410.14 556.021 410.073 555.834 409.94C555.647 409.807 555.487 409.593 555.354 409.3L551.954 401.38C551.861 401.153 551.827 400.947 551.854 400.76C551.881 400.573 551.967 400.42 552.114 400.3C552.274 400.18 552.487 400.12 552.754 400.12C552.981 400.12 553.161 400.173 553.294 400.28C553.427 400.387 553.554 400.573 553.674 400.84L556.814 408.58H556.254L559.474 400.84C559.581 400.573 559.701 400.387 559.834 400.28C559.981 400.173 560.181 400.12 560.434 400.12C560.661 400.12 560.834 400.18 560.954 400.3C561.087 400.42 561.167 400.573 561.194 400.76C561.221 400.947 561.181 401.147 561.074 401.36L557.654 409.3C557.534 409.593 557.374 409.807 557.174 409.94C556.987 410.073 556.761 410.14 556.494 410.14ZM569.489 410.18C568.436 410.18 567.529 409.98 566.769 409.58C566.023 409.167 565.443 408.587 565.029 407.84C564.616 407.08 564.409 406.187 564.409 405.16C564.409 404.147 564.609 403.26 565.009 402.5C565.423 401.74 565.983 401.147 566.689 400.72C567.409 400.293 568.229 400.08 569.149 400.08C569.803 400.08 570.389 400.193 570.909 400.42C571.443 400.633 571.896 400.947 572.269 401.36C572.643 401.773 572.923 402.28 573.109 402.88C573.309 403.467 573.409 404.133 573.409 404.88C573.409 405.093 573.343 405.26 573.209 405.38C573.089 405.487 572.909 405.54 572.669 405.54H565.829V404.38H572.209L571.869 404.66C571.869 403.967 571.763 403.38 571.549 402.9C571.349 402.407 571.049 402.033 570.649 401.78C570.263 401.527 569.776 401.4 569.189 401.4C568.549 401.4 568.003 401.553 567.549 401.86C567.096 402.153 566.749 402.573 566.509 403.12C566.269 403.653 566.149 404.273 566.149 404.98V405.1C566.149 406.3 566.436 407.207 567.009 407.82C567.583 408.433 568.409 408.74 569.489 408.74C569.916 408.74 570.349 408.687 570.789 408.58C571.243 408.473 571.676 408.28 572.089 408C572.289 407.88 572.469 407.827 572.629 407.84C572.803 407.84 572.943 407.893 573.049 408C573.156 408.093 573.223 408.213 573.249 408.36C573.276 408.493 573.256 408.64 573.189 408.8C573.123 408.96 572.996 409.1 572.809 409.22C572.369 409.527 571.843 409.767 571.229 409.94C570.629 410.1 570.049 410.18 569.489 410.18ZM578.613 410.14C578.306 410.14 578.073 410.06 577.913 409.9C577.753 409.74 577.673 409.507 577.673 409.2V401.04C577.673 400.733 577.753 400.507 577.913 400.36C578.073 400.2 578.293 400.12 578.573 400.12C578.853 400.12 579.066 400.2 579.213 400.36C579.373 400.507 579.453 400.733 579.453 401.04V402.58H579.253C579.466 401.78 579.866 401.173 580.453 400.76C581.04 400.347 581.78 400.113 582.673 400.06C582.886 400.047 583.06 400.1 583.193 400.22C583.326 400.327 583.4 400.513 583.413 400.78C583.426 401.033 583.366 401.24 583.233 401.4C583.1 401.547 582.893 401.633 582.613 401.66L582.253 401.68C581.373 401.773 580.693 402.06 580.213 402.54C579.746 403.02 579.513 403.68 579.513 404.52V409.2C579.513 409.507 579.433 409.74 579.273 409.9C579.126 410.06 578.906 410.14 578.613 410.14ZM590.24 410.18C589.64 410.18 589.033 410.113 588.42 409.98C587.82 409.833 587.253 409.587 586.72 409.24C586.573 409.147 586.467 409.033 586.4 408.9C586.347 408.753 586.327 408.613 586.34 408.48C586.367 408.333 586.427 408.207 586.52 408.1C586.613 407.993 586.727 407.933 586.86 407.92C587.007 407.893 587.16 407.927 587.32 408.02C587.84 408.313 588.34 408.52 588.82 408.64C589.313 408.76 589.8 408.82 590.28 408.82C591.013 408.82 591.567 408.687 591.94 408.42C592.313 408.153 592.5 407.8 592.5 407.36C592.5 406.987 592.373 406.7 592.12 406.5C591.88 406.287 591.5 406.127 590.98 406.02L589.12 405.64C588.293 405.453 587.667 405.147 587.24 404.72C586.827 404.28 586.62 403.72 586.62 403.04C586.62 402.44 586.78 401.92 587.1 401.48C587.433 401.027 587.893 400.68 588.48 400.44C589.067 400.2 589.74 400.08 590.5 400.08C591.087 400.08 591.64 400.16 592.16 400.32C592.693 400.467 593.173 400.693 593.6 401C593.76 401.093 593.86 401.213 593.9 401.36C593.953 401.493 593.96 401.633 593.92 401.78C593.893 401.913 593.833 402.027 593.74 402.12C593.647 402.213 593.527 402.273 593.38 402.3C593.233 402.313 593.073 402.273 592.9 402.18C592.513 401.913 592.113 401.727 591.7 401.62C591.3 401.5 590.9 401.44 590.5 401.44C589.78 401.44 589.233 401.58 588.86 401.86C588.5 402.14 588.32 402.507 588.32 402.96C588.32 403.307 588.427 403.593 588.64 403.82C588.867 404.047 589.22 404.213 589.7 404.32L591.56 404.7C592.427 404.887 593.08 405.187 593.52 405.6C593.96 406 594.18 406.547 594.18 407.24C594.18 408.147 593.82 408.867 593.1 409.4C592.393 409.92 591.44 410.18 590.24 410.18ZM599.448 410.1C599.168 410.1 598.948 410.013 598.788 409.84C598.628 409.667 598.548 409.427 598.548 409.12V401.14C598.548 400.82 598.628 400.58 598.788 400.42C598.948 400.247 599.168 400.16 599.448 400.16C599.741 400.16 599.968 400.247 600.128 400.42C600.288 400.58 600.368 400.82 600.368 401.14V409.12C600.368 409.427 600.288 409.667 600.128 409.84C599.981 410.013 599.755 410.1 599.448 410.1ZM599.448 398C599.088 398 598.801 397.907 598.588 397.72C598.388 397.52 598.288 397.26 598.288 396.94C598.288 396.593 598.388 396.333 598.588 396.16C598.801 395.973 599.088 395.88 599.448 395.88C599.835 395.88 600.121 395.973 600.308 396.16C600.508 396.333 600.608 396.593 600.608 396.94C600.608 397.26 600.508 397.52 600.308 397.72C600.121 397.907 599.835 398 599.448 398ZM609.334 410.18C608.547 410.18 607.887 410.04 607.354 409.76C606.834 409.48 606.441 409.073 606.174 408.54C605.921 408.007 605.794 407.353 605.794 406.58V401.66H604.514C604.274 401.66 604.087 401.6 603.954 401.48C603.821 401.347 603.754 401.173 603.754 400.96C603.754 400.733 603.821 400.56 603.954 400.44C604.087 400.32 604.274 400.26 604.514 400.26H605.794V398.08C605.794 397.773 605.874 397.547 606.034 397.4C606.194 397.24 606.421 397.16 606.714 397.16C607.007 397.16 607.227 397.24 607.374 397.4C607.534 397.547 607.614 397.773 607.614 398.08V400.26H610.034C610.287 400.26 610.481 400.32 610.614 400.44C610.747 400.56 610.814 400.733 610.814 400.96C610.814 401.173 610.747 401.347 610.614 401.48C610.481 401.6 610.287 401.66 610.034 401.66H607.614V406.42C607.614 407.153 607.767 407.707 608.074 408.08C608.381 408.453 608.887 408.64 609.594 408.64C609.847 408.64 610.061 408.62 610.234 408.58C610.407 408.527 610.561 408.5 610.694 408.5C610.814 408.487 610.914 408.527 610.994 408.62C611.087 408.713 611.134 408.887 611.134 409.14C611.134 409.327 611.101 409.5 611.034 409.66C610.981 409.807 610.867 409.907 610.694 409.96C610.534 410.013 610.321 410.06 610.054 410.1C609.787 410.153 609.547 410.18 609.334 410.18ZM616.839 413.74C616.625 413.74 616.445 413.68 616.299 413.56C616.165 413.453 616.085 413.3 616.059 413.1C616.045 412.913 616.085 412.713 616.179 412.5L617.539 409.42V410.18L613.759 401.38C613.665 401.153 613.632 400.947 613.659 400.76C613.685 400.573 613.772 400.42 613.919 400.3C614.079 400.18 614.292 400.12 614.559 400.12C614.785 400.12 614.965 400.173 615.099 400.28C615.232 400.387 615.359 400.573 615.479 400.84L618.619 408.58H618.059L621.259 400.84C621.365 400.573 621.492 400.387 621.639 400.28C621.785 400.173 621.985 400.12 622.239 400.12C622.465 400.12 622.639 400.18 622.759 400.3C622.892 400.42 622.972 400.573 622.999 400.76C623.025 400.947 622.985 401.147 622.879 401.36L617.839 413.02C617.705 413.3 617.565 413.487 617.419 413.58C617.285 413.687 617.092 413.74 616.839 413.74ZM638.286 410.18C637.326 410.18 636.492 409.973 635.786 409.56C635.079 409.147 634.532 408.56 634.146 407.8C633.759 407.04 633.566 406.147 633.566 405.12C633.566 404.347 633.672 403.653 633.886 403.04C634.112 402.413 634.432 401.88 634.846 401.44C635.259 401 635.752 400.667 636.326 400.44C636.912 400.2 637.566 400.08 638.286 400.08C639.246 400.08 640.079 400.287 640.786 400.7C641.492 401.113 642.039 401.7 642.426 402.46C642.812 403.207 643.006 404.093 643.006 405.12C643.006 405.893 642.892 406.593 642.666 407.22C642.452 407.847 642.139 408.38 641.726 408.82C641.312 409.26 640.812 409.6 640.226 409.84C639.652 410.067 639.006 410.18 638.286 410.18ZM638.286 408.74C638.872 408.74 639.379 408.6 639.806 408.32C640.246 408.04 640.579 407.633 640.806 407.1C641.046 406.567 641.166 405.907 641.166 405.12C641.166 403.947 640.906 403.053 640.386 402.44C639.866 401.827 639.166 401.52 638.286 401.52C637.712 401.52 637.206 401.66 636.766 401.94C636.339 402.207 636.006 402.607 635.766 403.14C635.526 403.673 635.406 404.333 635.406 405.12C635.406 406.293 635.666 407.193 636.186 407.82C636.719 408.433 637.419 408.74 638.286 408.74ZM648.719 410.14C648.426 410.14 648.199 410.06 648.039 409.9C647.879 409.74 647.799 409.507 647.799 409.2V401.66H646.599C646.359 401.66 646.173 401.6 646.039 401.48C645.906 401.347 645.839 401.173 645.839 400.96C645.839 400.733 645.906 400.56 646.039 400.44C646.173 400.32 646.359 400.26 646.599 400.26H648.299L647.799 400.74V400C647.799 398.707 648.113 397.727 648.739 397.06C649.379 396.38 650.313 395.987 651.539 395.88L652.159 395.84C652.359 395.813 652.519 395.847 652.639 395.94C652.759 396.02 652.839 396.127 652.879 396.26C652.919 396.393 652.919 396.533 652.879 396.68C652.853 396.813 652.793 396.933 652.699 397.04C652.606 397.147 652.486 397.207 652.339 397.22L651.899 397.24C651.099 397.307 650.519 397.547 650.159 397.96C649.799 398.36 649.619 398.96 649.619 399.76V400.56L649.359 400.26H651.659C651.913 400.26 652.106 400.32 652.239 400.44C652.373 400.56 652.439 400.733 652.439 400.96C652.439 401.173 652.373 401.347 652.239 401.48C652.106 401.6 651.913 401.66 651.659 401.66H649.619V409.2C649.619 409.827 649.319 410.14 648.719 410.14ZM667.471 410.18C666.484 410.18 665.631 409.973 664.911 409.56C664.191 409.133 663.638 408.54 663.251 407.78C662.864 407.007 662.671 406.1 662.671 405.06C662.671 404.287 662.778 403.593 662.991 402.98C663.218 402.367 663.538 401.847 663.951 401.42C664.364 400.98 664.864 400.647 665.451 400.42C666.051 400.193 666.724 400.08 667.471 400.08C667.938 400.08 668.431 400.153 668.951 400.3C669.471 400.447 669.951 400.687 670.391 401.02C670.538 401.127 670.631 401.253 670.671 401.4C670.711 401.533 670.711 401.673 670.671 401.82C670.644 401.967 670.578 402.093 670.471 402.2C670.378 402.293 670.251 402.347 670.091 402.36C669.944 402.373 669.784 402.327 669.611 402.22C669.291 401.98 668.951 401.807 668.591 401.7C668.244 401.593 667.911 401.54 667.591 401.54C667.098 401.54 666.658 401.62 666.271 401.78C665.898 401.94 665.578 402.173 665.311 402.48C665.058 402.773 664.864 403.14 664.731 403.58C664.598 404.007 664.531 404.507 664.531 405.08C664.531 406.213 664.798 407.107 665.331 407.76C665.864 408.4 666.618 408.72 667.591 408.72C667.911 408.72 668.244 408.673 668.591 408.58C668.938 408.473 669.278 408.3 669.611 408.06C669.784 407.953 669.944 407.913 670.091 407.94C670.238 407.953 670.358 408.013 670.451 408.12C670.558 408.213 670.624 408.333 670.651 408.48C670.678 408.613 670.664 408.753 670.611 408.9C670.571 409.047 670.478 409.167 670.331 409.26C669.904 409.58 669.438 409.813 668.931 409.96C668.424 410.107 667.938 410.18 667.471 410.18ZM677.57 410.18C676.903 410.18 676.296 410.047 675.75 409.78C675.216 409.513 674.796 409.153 674.49 408.7C674.196 408.247 674.05 407.74 674.05 407.18C674.05 406.46 674.23 405.893 674.59 405.48C674.95 405.067 675.556 404.773 676.41 404.6C677.263 404.413 678.41 404.32 679.85 404.32H680.79V405.48H679.89C678.863 405.48 678.05 405.527 677.45 405.62C676.863 405.713 676.45 405.88 676.21 406.12C675.97 406.347 675.85 406.667 675.85 407.08C675.85 407.6 676.03 408.027 676.39 408.36C676.763 408.693 677.27 408.86 677.91 408.86C678.416 408.86 678.863 408.74 679.25 408.5C679.636 408.247 679.943 407.913 680.17 407.5C680.396 407.073 680.51 406.587 680.51 406.04V403.74C680.51 402.953 680.35 402.387 680.03 402.04C679.71 401.68 679.17 401.5 678.41 401.5C677.97 401.5 677.516 401.56 677.05 401.68C676.583 401.8 676.096 401.987 675.59 402.24C675.39 402.333 675.216 402.367 675.07 402.34C674.923 402.3 674.803 402.22 674.71 402.1C674.63 401.967 674.583 401.827 674.57 401.68C674.57 401.52 674.603 401.367 674.67 401.22C674.75 401.073 674.883 400.967 675.07 400.9C675.656 400.607 676.236 400.4 676.81 400.28C677.396 400.147 677.943 400.08 678.45 400.08C679.316 400.08 680.03 400.22 680.59 400.5C681.15 400.767 681.57 401.187 681.85 401.76C682.13 402.32 682.27 403.04 682.27 403.92V409.2C682.27 409.507 682.196 409.74 682.05 409.9C681.903 410.06 681.69 410.14 681.41 410.14C681.143 410.14 680.93 410.06 680.77 409.9C680.623 409.74 680.55 409.507 680.55 409.2V407.78H680.73C680.623 408.273 680.423 408.7 680.13 409.06C679.836 409.42 679.47 409.7 679.03 409.9C678.603 410.087 678.116 410.18 677.57 410.18ZM690.194 410.18C689.194 410.18 688.434 409.887 687.914 409.3C687.394 408.7 687.134 407.84 687.134 406.72V396.68C687.134 396.373 687.214 396.147 687.374 396C687.534 395.84 687.754 395.76 688.034 395.76C688.327 395.76 688.554 395.84 688.714 396C688.874 396.147 688.954 396.373 688.954 396.68V406.58C688.954 407.273 689.094 407.793 689.374 408.14C689.667 408.473 690.08 408.64 690.614 408.64C690.734 408.64 690.84 408.64 690.934 408.64C691.027 408.627 691.12 408.613 691.214 408.6C691.36 408.587 691.467 408.627 691.534 408.72C691.6 408.813 691.634 409 691.634 409.28C691.634 409.533 691.574 409.733 691.454 409.88C691.347 410.013 691.167 410.1 690.914 410.14C690.794 410.153 690.674 410.16 690.554 410.16C690.434 410.173 690.314 410.18 690.194 410.18ZM696.049 410.1C695.769 410.1 695.549 410.013 695.389 409.84C695.229 409.667 695.149 409.427 695.149 409.12V401.14C695.149 400.82 695.229 400.58 695.389 400.42C695.549 400.247 695.769 400.16 696.049 400.16C696.343 400.16 696.569 400.247 696.729 400.42C696.889 400.58 696.969 400.82 696.969 401.14V409.12C696.969 409.427 696.889 409.667 696.729 409.84C696.583 410.013 696.356 410.1 696.049 410.1ZM696.049 398C695.689 398 695.403 397.907 695.189 397.72C694.989 397.52 694.889 397.26 694.889 396.94C694.889 396.593 694.989 396.333 695.189 396.16C695.403 395.973 695.689 395.88 696.049 395.88C696.436 395.88 696.723 395.973 696.909 396.16C697.109 396.333 697.209 396.593 697.209 396.94C697.209 397.26 697.109 397.52 696.909 397.72C696.723 397.907 696.436 398 696.049 398ZM703.376 410.14C703.082 410.14 702.856 410.06 702.696 409.9C702.536 409.74 702.456 409.507 702.456 409.2V401.66H701.256C701.016 401.66 700.829 401.6 700.696 401.48C700.562 401.347 700.496 401.173 700.496 400.96C700.496 400.733 700.562 400.56 700.696 400.44C700.829 400.32 701.016 400.26 701.256 400.26H702.956L702.456 400.74V400C702.456 398.707 702.769 397.727 703.396 397.06C704.036 396.38 704.969 395.987 706.196 395.88L706.816 395.84C707.016 395.813 707.176 395.847 707.296 395.94C707.416 396.02 707.496 396.127 707.536 396.26C707.576 396.393 707.576 396.533 707.536 396.68C707.509 396.813 707.449 396.933 707.356 397.04C707.262 397.147 707.142 397.207 706.996 397.22L706.556 397.24C705.756 397.307 705.176 397.547 704.816 397.96C704.456 398.36 704.276 398.96 704.276 399.76V400.56L704.016 400.26H706.316C706.569 400.26 706.762 400.32 706.896 400.44C707.029 400.56 707.096 400.733 707.096 400.96C707.096 401.173 707.029 401.347 706.896 401.48C706.762 401.6 706.569 401.66 706.316 401.66H704.276V409.2C704.276 409.827 703.976 410.14 703.376 410.14ZM714.559 410.18C713.599 410.18 712.766 409.973 712.059 409.56C711.352 409.147 710.806 408.56 710.419 407.8C710.032 407.04 709.839 406.147 709.839 405.12C709.839 404.347 709.946 403.653 710.159 403.04C710.386 402.413 710.706 401.88 711.119 401.44C711.532 401 712.026 400.667 712.599 400.44C713.186 400.2 713.839 400.08 714.559 400.08C715.519 400.08 716.352 400.287 717.059 400.7C717.766 401.113 718.312 401.7 718.699 402.46C719.086 403.207 719.279 404.093 719.279 405.12C719.279 405.893 719.166 406.593 718.939 407.22C718.726 407.847 718.412 408.38 717.999 408.82C717.586 409.26 717.086 409.6 716.499 409.84C715.926 410.067 715.279 410.18 714.559 410.18ZM714.559 408.74C715.146 408.74 715.652 408.6 716.079 408.32C716.519 408.04 716.852 407.633 717.079 407.1C717.319 406.567 717.439 405.907 717.439 405.12C717.439 403.947 717.179 403.053 716.659 402.44C716.139 401.827 715.439 401.52 714.559 401.52C713.986 401.52 713.479 401.66 713.039 401.94C712.612 402.207 712.279 402.607 712.039 403.14C711.799 403.673 711.679 404.333 711.679 405.12C711.679 406.293 711.939 407.193 712.459 407.82C712.992 408.433 713.692 408.74 714.559 408.74ZM724.55 410.14C724.244 410.14 724.01 410.06 723.85 409.9C723.69 409.74 723.61 409.507 723.61 409.2V401.04C723.61 400.733 723.69 400.507 723.85 400.36C724.01 400.2 724.23 400.12 724.51 400.12C724.79 400.12 725.004 400.2 725.15 400.36C725.31 400.507 725.39 400.733 725.39 401.04V402.58H725.19C725.404 401.78 725.804 401.173 726.39 400.76C726.977 400.347 727.717 400.113 728.61 400.06C728.824 400.047 728.997 400.1 729.13 400.22C729.264 400.327 729.337 400.513 729.35 400.78C729.364 401.033 729.304 401.24 729.17 401.4C729.037 401.547 728.83 401.633 728.55 401.66L728.19 401.68C727.31 401.773 726.63 402.06 726.15 402.54C725.684 403.02 725.45 403.68 725.45 404.52V409.2C725.45 409.507 725.37 409.74 725.21 409.9C725.064 410.06 724.844 410.14 724.55 410.14ZM733.815 410.14C733.535 410.14 733.315 410.06 733.155 409.9C732.995 409.74 732.915 409.507 732.915 409.2V401.04C732.915 400.733 732.995 400.507 733.155 400.36C733.315 400.2 733.535 400.12 733.815 400.12C734.095 400.12 734.308 400.2 734.455 400.36C734.615 400.507 734.695 400.733 734.695 401.04V402.68L734.475 402.38C734.755 401.62 735.208 401.047 735.835 400.66C736.475 400.273 737.202 400.08 738.015 400.08C738.802 400.08 739.448 400.22 739.955 400.5C740.462 400.78 740.842 401.207 741.095 401.78C741.348 402.353 741.475 403.08 741.475 403.96V409.2C741.475 409.507 741.395 409.74 741.235 409.9C741.088 410.06 740.868 410.14 740.575 410.14C740.282 410.14 740.055 410.06 739.895 409.9C739.735 409.74 739.655 409.507 739.655 409.2V404.06C739.655 403.193 739.488 402.56 739.155 402.16C738.822 401.76 738.288 401.56 737.555 401.56C736.702 401.56 736.015 401.827 735.495 402.36C734.988 402.88 734.735 403.587 734.735 404.48V409.2C734.735 409.827 734.428 410.14 733.815 410.14ZM747.26 410.1C746.98 410.1 746.76 410.013 746.6 409.84C746.44 409.667 746.36 409.427 746.36 409.12V401.14C746.36 400.82 746.44 400.58 746.6 400.42C746.76 400.247 746.98 400.16 747.26 400.16C747.554 400.16 747.78 400.247 747.94 400.42C748.1 400.58 748.18 400.82 748.18 401.14V409.12C748.18 409.427 748.1 409.667 747.94 409.84C747.794 410.013 747.567 410.1 747.26 410.1ZM747.26 398C746.9 398 746.614 397.907 746.4 397.72C746.2 397.52 746.1 397.26 746.1 396.94C746.1 396.593 746.2 396.333 746.4 396.16C746.614 395.973 746.9 395.88 747.26 395.88C747.647 395.88 747.934 395.973 748.12 396.16C748.32 396.333 748.42 396.593 748.42 396.94C748.42 397.26 748.32 397.52 748.12 397.72C747.934 397.907 747.647 398 747.26 398ZM756.206 410.18C755.54 410.18 754.933 410.047 754.386 409.78C753.853 409.513 753.433 409.153 753.126 408.7C752.833 408.247 752.686 407.74 752.686 407.18C752.686 406.46 752.866 405.893 753.226 405.48C753.586 405.067 754.193 404.773 755.046 404.6C755.9 404.413 757.046 404.32 758.486 404.32H759.426V405.48H758.526C757.5 405.48 756.686 405.527 756.086 405.62C755.5 405.713 755.086 405.88 754.846 406.12C754.606 406.347 754.486 406.667 754.486 407.08C754.486 407.6 754.666 408.027 755.026 408.36C755.4 408.693 755.906 408.86 756.546 408.86C757.053 408.86 757.5 408.74 757.886 408.5C758.273 408.247 758.58 407.913 758.806 407.5C759.033 407.073 759.146 406.587 759.146 406.04V403.74C759.146 402.953 758.986 402.387 758.666 402.04C758.346 401.68 757.806 401.5 757.046 401.5C756.606 401.5 756.153 401.56 755.686 401.68C755.22 401.8 754.733 401.987 754.226 402.24C754.026 402.333 753.853 402.367 753.706 402.34C753.56 402.3 753.44 402.22 753.346 402.1C753.266 401.967 753.22 401.827 753.206 401.68C753.206 401.52 753.24 401.367 753.306 401.22C753.386 401.073 753.52 400.967 753.706 400.9C754.293 400.607 754.873 400.4 755.446 400.28C756.033 400.147 756.58 400.08 757.086 400.08C757.953 400.08 758.666 400.22 759.226 400.5C759.786 400.767 760.206 401.187 760.486 401.76C760.766 402.32 760.906 403.04 760.906 403.92V409.2C760.906 409.507 760.833 409.74 760.686 409.9C760.54 410.06 760.326 410.14 760.046 410.14C759.78 410.14 759.566 410.06 759.406 409.9C759.26 409.74 759.186 409.507 759.186 409.2V407.78H759.366C759.26 408.273 759.06 408.7 758.766 409.06C758.473 409.42 758.106 409.7 757.666 409.9C757.24 410.087 756.753 410.18 756.206 410.18ZM766.851 411.96C766.717 412.133 766.571 412.233 766.411 412.26C766.264 412.287 766.131 412.26 766.011 412.18C765.904 412.1 765.844 411.98 765.831 411.82C765.817 411.66 765.884 411.487 766.031 411.3C766.257 411.007 766.411 410.713 766.491 410.42C766.584 410.127 766.631 409.853 766.631 409.6L766.711 410.08C766.337 410.08 766.031 409.973 765.791 409.76C765.564 409.533 765.451 409.24 765.451 408.88C765.451 408.533 765.557 408.253 765.771 408.04C765.984 407.827 766.271 407.72 766.631 407.72C766.991 407.72 767.277 407.847 767.491 408.1C767.717 408.34 767.831 408.7 767.831 409.18C767.831 409.46 767.797 409.753 767.731 410.06C767.677 410.38 767.584 410.7 767.451 411.02C767.317 411.34 767.117 411.653 766.851 411.96ZM780.593 410.14C780.287 410.14 780.053 410.06 779.893 409.9C779.733 409.74 779.653 409.507 779.653 409.2V401.04C779.653 400.733 779.733 400.507 779.893 400.36C780.053 400.2 780.273 400.12 780.553 400.12C780.833 400.12 781.047 400.2 781.193 400.36C781.353 400.507 781.433 400.733 781.433 401.04V402.58H781.233C781.447 401.78 781.847 401.173 782.433 400.76C783.02 400.347 783.76 400.113 784.653 400.06C784.867 400.047 785.04 400.1 785.173 400.22C785.307 400.327 785.38 400.513 785.393 400.78C785.407 401.033 785.347 401.24 785.213 401.4C785.08 401.547 784.873 401.633 784.593 401.66L784.233 401.68C783.353 401.773 782.673 402.06 782.193 402.54C781.727 403.02 781.493 403.68 781.493 404.52V409.2C781.493 409.507 781.413 409.74 781.253 409.9C781.107 410.06 780.887 410.14 780.593 410.14ZM789.858 410.1C789.578 410.1 789.358 410.013 789.198 409.84C789.038 409.667 788.958 409.427 788.958 409.12V401.14C788.958 400.82 789.038 400.58 789.198 400.42C789.358 400.247 789.578 400.16 789.858 400.16C790.151 400.16 790.378 400.247 790.538 400.42C790.698 400.58 790.778 400.82 790.778 401.14V409.12C790.778 409.427 790.698 409.667 790.538 409.84C790.391 410.013 790.165 410.1 789.858 410.1ZM789.858 398C789.498 398 789.211 397.907 788.998 397.72C788.798 397.52 788.698 397.26 788.698 396.94C788.698 396.593 788.798 396.333 788.998 396.16C789.211 395.973 789.498 395.88 789.858 395.88C790.245 395.88 790.531 395.973 790.718 396.16C790.918 396.333 791.018 396.593 791.018 396.94C791.018 397.26 790.918 397.52 790.718 397.72C790.531 397.907 790.245 398 789.858 398ZM799.404 410.14C799.151 410.14 798.931 410.073 798.744 409.94C798.557 409.807 798.397 409.593 798.264 409.3L794.864 401.38C794.771 401.153 794.737 400.947 794.764 400.76C794.791 400.573 794.877 400.42 795.024 400.3C795.184 400.18 795.397 400.12 795.664 400.12C795.891 400.12 796.071 400.173 796.204 400.28C796.337 400.387 796.464 400.573 796.584 400.84L799.724 408.58H799.164L802.384 400.84C802.491 400.573 802.611 400.387 802.744 400.28C802.891 400.173 803.091 400.12 803.344 400.12C803.571 400.12 803.744 400.18 803.864 400.3C803.997 400.42 804.077 400.573 804.104 400.76C804.131 400.947 804.091 401.147 803.984 401.36L800.564 409.3C800.444 409.593 800.284 409.807 800.084 409.94C799.897 410.073 799.671 410.14 799.404 410.14ZM812.399 410.18C811.346 410.18 810.439 409.98 809.679 409.58C808.933 409.167 808.353 408.587 807.939 407.84C807.526 407.08 807.319 406.187 807.319 405.16C807.319 404.147 807.519 403.26 807.919 402.5C808.333 401.74 808.893 401.147 809.599 400.72C810.319 400.293 811.139 400.08 812.059 400.08C812.713 400.08 813.299 400.193 813.819 400.42C814.353 400.633 814.806 400.947 815.179 401.36C815.553 401.773 815.833 402.28 816.019 402.88C816.219 403.467 816.319 404.133 816.319 404.88C816.319 405.093 816.253 405.26 816.119 405.38C815.999 405.487 815.819 405.54 815.579 405.54H808.739V404.38H815.119L814.779 404.66C814.779 403.967 814.673 403.38 814.459 402.9C814.259 402.407 813.959 402.033 813.559 401.78C813.173 401.527 812.686 401.4 812.099 401.4C811.459 401.4 810.913 401.553 810.459 401.86C810.006 402.153 809.659 402.573 809.419 403.12C809.179 403.653 809.059 404.273 809.059 404.98V405.1C809.059 406.3 809.346 407.207 809.919 407.82C810.493 408.433 811.319 408.74 812.399 408.74C812.826 408.74 813.259 408.687 813.699 408.58C814.153 408.473 814.586 408.28 814.999 408C815.199 407.88 815.379 407.827 815.539 407.84C815.713 407.84 815.853 407.893 815.959 408C816.066 408.093 816.133 408.213 816.159 408.36C816.186 408.493 816.166 408.64 816.099 408.8C816.033 408.96 815.906 409.1 815.719 409.22C815.279 409.527 814.753 409.767 814.139 409.94C813.539 410.1 812.959 410.18 812.399 410.18ZM821.523 410.14C821.216 410.14 820.983 410.06 820.823 409.9C820.663 409.74 820.583 409.507 820.583 409.2V401.04C820.583 400.733 820.663 400.507 820.823 400.36C820.983 400.2 821.203 400.12 821.483 400.12C821.763 400.12 821.976 400.2 822.123 400.36C822.283 400.507 822.363 400.733 822.363 401.04V402.58H822.163C822.376 401.78 822.776 401.173 823.363 400.76C823.95 400.347 824.69 400.113 825.583 400.06C825.796 400.047 825.97 400.1 826.103 400.22C826.236 400.327 826.31 400.513 826.323 400.78C826.336 401.033 826.276 401.24 826.143 401.4C826.01 401.547 825.803 401.633 825.523 401.66L825.163 401.68C824.283 401.773 823.603 402.06 823.123 402.54C822.656 403.02 822.423 403.68 822.423 404.52V409.2C822.423 409.507 822.343 409.74 822.183 409.9C822.036 410.06 821.816 410.14 821.523 410.14ZM833.15 410.18C832.55 410.18 831.943 410.113 831.33 409.98C830.73 409.833 830.163 409.587 829.63 409.24C829.483 409.147 829.377 409.033 829.31 408.9C829.257 408.753 829.237 408.613 829.25 408.48C829.277 408.333 829.337 408.207 829.43 408.1C829.523 407.993 829.637 407.933 829.77 407.92C829.917 407.893 830.07 407.927 830.23 408.02C830.75 408.313 831.25 408.52 831.73 408.64C832.223 408.76 832.71 408.82 833.19 408.82C833.923 408.82 834.477 408.687 834.85 408.42C835.223 408.153 835.41 407.8 835.41 407.36C835.41 406.987 835.283 406.7 835.03 406.5C834.79 406.287 834.41 406.127 833.89 406.02L832.03 405.64C831.203 405.453 830.577 405.147 830.15 404.72C829.737 404.28 829.53 403.72 829.53 403.04C829.53 402.44 829.69 401.92 830.01 401.48C830.343 401.027 830.803 400.68 831.39 400.44C831.977 400.2 832.65 400.08 833.41 400.08C833.997 400.08 834.55 400.16 835.07 400.32C835.603 400.467 836.083 400.693 836.51 401C836.67 401.093 836.77 401.213 836.81 401.36C836.863 401.493 836.87 401.633 836.83 401.78C836.803 401.913 836.743 402.027 836.65 402.12C836.557 402.213 836.437 402.273 836.29 402.3C836.143 402.313 835.983 402.273 835.81 402.18C835.423 401.913 835.023 401.727 834.61 401.62C834.21 401.5 833.81 401.44 833.41 401.44C832.69 401.44 832.143 401.58 831.77 401.86C831.41 402.14 831.23 402.507 831.23 402.96C831.23 403.307 831.337 403.593 831.55 403.82C831.777 404.047 832.13 404.213 832.61 404.32L834.47 404.7C835.337 404.887 835.99 405.187 836.43 405.6C836.87 406 837.09 406.547 837.09 407.24C837.09 408.147 836.73 408.867 836.01 409.4C835.303 409.92 834.35 410.18 833.15 410.18ZM842.358 410.1C842.078 410.1 841.858 410.013 841.698 409.84C841.538 409.667 841.458 409.427 841.458 409.12V401.14C841.458 400.82 841.538 400.58 841.698 400.42C841.858 400.247 842.078 400.16 842.358 400.16C842.651 400.16 842.878 400.247 843.038 400.42C843.198 400.58 843.278 400.82 843.278 401.14V409.12C843.278 409.427 843.198 409.667 843.038 409.84C842.891 410.013 842.665 410.1 842.358 410.1ZM842.358 398C841.998 398 841.711 397.907 841.498 397.72C841.298 397.52 841.198 397.26 841.198 396.94C841.198 396.593 841.298 396.333 841.498 396.16C841.711 395.973 841.998 395.88 842.358 395.88C842.745 395.88 843.031 395.973 843.218 396.16C843.418 396.333 843.518 396.593 843.518 396.94C843.518 397.26 843.418 397.52 843.218 397.72C843.031 397.907 842.745 398 842.358 398ZM851.924 410.18C851.071 410.18 850.317 409.98 849.664 409.58C849.024 409.167 848.524 408.58 848.164 407.82C847.804 407.047 847.624 406.147 847.624 405.12C847.624 404.08 847.797 403.187 848.144 402.44C848.504 401.68 849.004 401.1 849.644 400.7C850.297 400.287 851.057 400.08 851.924 400.08C852.791 400.08 853.537 400.3 854.164 400.74C854.791 401.167 855.211 401.74 855.424 402.46H855.204V396.68C855.204 396.373 855.277 396.147 855.424 396C855.584 395.84 855.811 395.76 856.104 395.76C856.397 395.76 856.624 395.84 856.784 396C856.944 396.147 857.024 396.373 857.024 396.68V409.2C857.024 409.507 856.944 409.74 856.784 409.9C856.624 410.06 856.397 410.14 856.104 410.14C855.824 410.14 855.604 410.06 855.444 409.9C855.284 409.74 855.204 409.507 855.204 409.2V407.38L855.424 407.74C855.224 408.487 854.804 409.08 854.164 409.52C853.537 409.96 852.791 410.18 851.924 410.18ZM852.344 408.74C852.931 408.74 853.437 408.6 853.864 408.32C854.304 408.04 854.637 407.633 854.864 407.1C855.104 406.567 855.224 405.907 855.224 405.12C855.224 403.947 854.964 403.053 854.444 402.44C853.924 401.827 853.224 401.52 852.344 401.52C851.771 401.52 851.264 401.66 850.824 401.94C850.397 402.207 850.064 402.607 849.824 403.14C849.584 403.673 849.464 404.333 849.464 405.12C849.464 406.293 849.724 407.193 850.244 407.82C850.777 408.433 851.477 408.74 852.344 408.74ZM866.442 410.18C865.389 410.18 864.482 409.98 863.722 409.58C862.976 409.167 862.396 408.587 861.982 407.84C861.569 407.08 861.362 406.187 861.362 405.16C861.362 404.147 861.562 403.26 861.962 402.5C862.376 401.74 862.936 401.147 863.642 400.72C864.362 400.293 865.182 400.08 866.102 400.08C866.756 400.08 867.342 400.193 867.862 400.42C868.396 400.633 868.849 400.947 869.222 401.36C869.596 401.773 869.876 402.28 870.062 402.88C870.262 403.467 870.362 404.133 870.362 404.88C870.362 405.093 870.296 405.26 870.162 405.38C870.042 405.487 869.862 405.54 869.622 405.54H862.782V404.38H869.162L868.822 404.66C868.822 403.967 868.716 403.38 868.502 402.9C868.302 402.407 868.002 402.033 867.602 401.78C867.216 401.527 866.729 401.4 866.142 401.4C865.502 401.4 864.956 401.553 864.502 401.86C864.049 402.153 863.702 402.573 863.462 403.12C863.222 403.653 863.102 404.273 863.102 404.98V405.1C863.102 406.3 863.389 407.207 863.962 407.82C864.536 408.433 865.362 408.74 866.442 408.74C866.869 408.74 867.302 408.687 867.742 408.58C868.196 408.473 868.629 408.28 869.042 408C869.242 407.88 869.422 407.827 869.582 407.84C869.756 407.84 869.896 407.893 870.002 408C870.109 408.093 870.176 408.213 870.202 408.36C870.229 408.493 870.209 408.64 870.142 408.8C870.076 408.96 869.949 409.1 869.762 409.22C869.322 409.527 868.796 409.767 868.182 409.94C867.582 410.1 867.002 410.18 866.442 410.18Z" fill="white"/>
<g filter="url(#filter11_d_2002_215)">
<path d="M286.078 358.586C226.026 392.91 235.943 440.474 289.067 456.356C342.191 472.238 468.173 470.654 542.211 437.411" stroke="white" stroke-width="3"/>
</g>
<g filter="url(#filter12_d_2002_215)">
<path d="M765 308.258C829.18 284.565 985.812 270.892 1024.69 292.945C1063.56 314.998 1062.77 362.948 1009.38 389.4C982.02 403.279 964.653 408.229 930 411.758" stroke="white" stroke-width="3"/>
</g>
<mask id="mask2_2002_215" style="mask-type:alpha" maskUnits="userSpaceOnUse" x="927" y="165" width="37" height="37">
<path fill-rule="evenodd" clip-rule="evenodd" d="M929.86 171.473C928.224 174.776 929.15 178.665 931.879 180.799C930.39 181.515 929.111 182.726 928.312 184.338C926.447 188.105 927.913 192.634 931.587 194.453C933.93 195.613 936.604 195.391 938.718 194.102C939.174 198.17 942.644 201.227 946.677 201.012C950.865 200.789 954.075 197.121 953.846 192.82C953.826 192.451 953.782 192.09 953.715 191.737C954.409 191.909 955.138 191.982 955.887 191.942C960.075 191.719 963.285 188.051 963.056 183.75C962.849 179.861 959.901 176.785 956.242 176.396C957.949 172.425 956.48 167.878 952.825 166.068C949.064 164.206 944.401 165.942 942.361 169.945C941.713 169.127 940.882 168.438 939.89 167.946C936.216 166.127 931.725 167.706 929.86 171.473Z" fill="white" fill-opacity="0.8"/>
</mask>
<g mask="url(#mask2_2002_215)">
</g>
<g filter="url(#filter13_f_2002_215)">
<path fill-rule="evenodd" clip-rule="evenodd" d="M980.896 105.931C978.447 106.314 976.67 108.331 976.556 110.659C975.585 110.118 974.423 109.886 973.228 110.073C970.435 110.51 968.516 113.073 968.942 115.797C969.214 117.534 970.373 118.917 971.901 119.578C969.844 121.407 969.511 124.5 971.193 126.632C972.941 128.846 976.202 129.186 978.476 127.391C978.671 127.237 978.852 127.073 979.02 126.899C979.195 127.347 979.438 127.776 979.751 128.172C981.498 130.386 984.759 130.726 987.033 128.932C989.089 127.309 989.635 124.496 988.428 122.335C991.272 121.732 993.2 119.16 992.776 116.45C992.34 113.661 989.577 111.773 986.586 112.205C986.784 111.532 986.84 110.808 986.725 110.072C986.299 107.348 983.689 105.494 980.896 105.931Z" fill="white" fill-opacity="0.8"/>
</g>
<g filter="url(#filter14_f_2002_215)">
<path fill-rule="evenodd" clip-rule="evenodd" d="M266.267 81.563C263.818 81.9461 262.041 83.9635 261.928 86.2912C260.956 85.7504 259.795 85.5179 258.599 85.7049C255.806 86.1419 253.887 88.7046 254.313 91.4289C254.585 93.1657 255.744 94.5488 257.273 95.2101C255.215 97.0391 254.882 100.132 256.565 102.264C258.313 104.478 261.573 104.818 263.847 103.023C264.042 102.869 264.224 102.705 264.391 102.531C264.567 102.979 264.81 103.408 265.122 103.804C266.87 106.019 270.13 106.359 272.404 104.564C274.46 102.941 275.006 100.128 273.8 97.967C276.644 97.3636 278.572 94.7924 278.148 92.0822C277.712 89.2933 274.949 87.4052 271.958 87.8375C272.156 87.1641 272.212 86.4402 272.097 85.7045C271.671 82.9802 269.061 81.126 266.267 81.563Z" fill="white" fill-opacity="0.8"/>
</g>
<path d="M492.34 412.826C492.643 413.212 492.832 413.677 492.886 414.166C492.939 414.656 492.855 415.15 492.642 415.594C492.43 416.032 492.101 416.401 491.69 416.658C491.279 416.915 490.805 417.051 490.322 417.048H485.96C485.147 417.048 484.342 416.875 483.6 416.542C482.857 416.208 482.192 415.721 481.648 415.112C481.105 414.503 480.694 413.785 480.444 413.006C480.193 412.227 480.109 411.403 480.195 410.589L467.661 399.014C467.217 398.612 466.86 398.124 466.61 397.579C466.36 397.033 466.223 396.442 466.207 395.842C466.192 395.241 466.298 394.644 466.519 394.086C466.741 393.529 467.073 393.022 467.495 392.598C467.917 392.173 468.421 391.84 468.975 391.618C469.529 391.396 470.123 391.291 470.719 391.308C471.315 391.324 471.902 391.463 472.443 391.716C472.985 391.968 473.469 392.33 473.867 392.777L485.38 405.403C486.186 405.321 487 405.411 487.77 405.665C488.539 405.92 489.248 406.334 489.849 406.881C490.45 407.428 490.93 408.095 491.259 408.841C491.589 409.586 491.759 410.392 491.76 411.208C491.76 411.799 491.965 412.371 492.34 412.826ZM472.156 394.36C471.975 394.129 471.748 393.94 471.49 393.804C471.231 393.668 470.947 393.589 470.656 393.572C470.365 393.555 470.074 393.6 469.801 393.704C469.529 393.809 469.281 393.97 469.075 394.177C468.869 394.385 468.709 394.634 468.605 394.909C468.501 395.183 468.457 395.476 468.474 395.769C468.491 396.062 468.569 396.349 468.704 396.609C468.839 396.869 469.027 397.098 469.256 397.28L481.013 408.165C481.494 407.369 482.159 406.7 482.95 406.215L472.156 394.36ZM490.525 414.268C489.823 413.405 489.44 412.323 489.44 411.208C489.44 410.682 489.322 410.162 489.095 409.688C488.868 409.214 488.538 408.797 488.129 408.469C487.516 407.969 486.749 407.698 485.96 407.704C485.677 407.702 485.394 407.736 485.119 407.803C484.5 407.952 483.934 408.27 483.483 408.722C483.033 409.175 482.716 409.744 482.567 410.367C482.44 410.889 482.433 411.433 482.548 411.957C482.662 412.482 482.895 412.973 483.228 413.392C483.555 413.805 483.971 414.139 484.444 414.367C484.917 414.596 485.435 414.714 485.96 414.712H490.327C490.376 414.715 490.424 414.703 490.465 414.678C490.506 414.653 490.539 414.616 490.559 414.572C490.584 414.523 490.594 414.469 490.588 414.415C490.582 414.361 490.56 414.31 490.525 414.268Z" fill="white"/>
<path d="M491.28 394.856C491.588 394.856 491.883 394.979 492.1 395.198C492.318 395.417 492.44 395.714 492.44 396.024V397.192H493.6C493.908 397.192 494.203 397.315 494.42 397.534C494.638 397.753 494.76 398.05 494.76 398.36C494.76 398.67 494.638 398.967 494.42 399.186C494.203 399.405 493.908 399.528 493.6 399.528H492.44V400.696C492.44 401.006 492.318 401.303 492.1 401.522C491.883 401.741 491.588 401.864 491.28 401.864C490.972 401.864 490.677 401.741 490.46 401.522C490.242 401.303 490.12 401.006 490.12 400.696V399.528H488.96C488.652 399.528 488.357 399.405 488.14 399.186C487.922 398.967 487.8 398.67 487.8 398.36C487.8 398.05 487.922 397.753 488.14 397.534C488.357 397.315 488.652 397.192 488.96 397.192H490.12V396.024C490.12 395.714 490.242 395.417 490.46 395.198C490.677 394.979 490.972 394.856 491.28 394.856Z" fill="white"/>
<path d="M465.08 411.04C465.08 410.73 465.202 410.433 465.42 410.214C465.637 409.995 465.932 409.872 466.24 409.872H468.56V407.536C468.56 407.226 468.682 406.929 468.9 406.71C469.117 406.491 469.412 406.368 469.72 406.368C470.028 406.368 470.323 406.491 470.54 406.71C470.758 406.929 470.88 407.226 470.88 407.536V409.872H473.2C473.508 409.872 473.803 409.995 474.02 410.214C474.238 410.433 474.36 410.73 474.36 411.04C474.36 411.35 474.238 411.647 474.02 411.866C473.803 412.085 473.508 412.208 473.2 412.208H470.88V414.544C470.88 414.854 470.758 415.151 470.54 415.37C470.323 415.589 470.028 415.712 469.72 415.712C469.412 415.712 469.117 415.589 468.9 415.37C468.682 415.151 468.56 414.854 468.56 414.544V412.208H466.24C465.932 412.208 465.637 412.085 465.42 411.866C465.202 411.647 465.08 411.35 465.08 411.04Z" fill="white"/>
<path d="M481.752 392.856C480.791 392.856 480.012 392.072 480.012 391.104C480.012 390.136 480.791 389.352 481.752 389.352C482.713 389.352 483.492 390.136 483.492 391.104C483.492 392.072 482.713 392.856 481.752 392.856Z" fill="white"/>
<defs>
<filter id="filter0_i_2002_215" x="0" y="0" width="1300" height="822.779" filterUnits="userSpaceOnUse" color-interpolation-filters="sRGB">
<feFlood flood-opacity="0" result="BackgroundImageFix"/>
<feBlend mode="normal" in="SourceGraphic" in2="BackgroundImageFix" result="shape"/>
<feColorMatrix in="SourceAlpha" type="matrix" values="0 0 0 0 0 0 0 0 0 0 0 0 0 0 0 0 0 0 127 0" result="hardAlpha"/>
<feOffset dy="4"/>
<feGaussianBlur stdDeviation="14.45"/>
<feComposite in2="hardAlpha" operator="arithmetic" k2="-1" k3="1"/>
<feColorMatrix type="matrix" values="0 0 0 0 0 0 0 0 0 0 0 0 0 0 0 0 0 0 0.25 0"/>
<feBlend mode="normal" in2="shape" result="effect1_innerShadow_2002_215"/>
</filter>
<filter id="filter1_f_2002_215" x="203" y="556" width="419" height="266.506" filterUnits="userSpaceOnUse" color-interpolation-filters="sRGB">
<feFlood flood-opacity="0" result="BackgroundImageFix"/>
<feBlend mode="normal" in="SourceGraphic" in2="BackgroundImageFix" result="shape"/>
<feGaussianBlur stdDeviation="2" result="effect1_foregroundBlur_2002_215"/>
</filter>
<filter id="filter2_f_2002_215" x="51" y="446" width="44.2251" height="43" filterUnits="userSpaceOnUse" color-interpolation-filters="sRGB">
<feFlood flood-opacity="0" result="BackgroundImageFix"/>
<feBlend mode="normal" in="SourceGraphic" in2="BackgroundImageFix" result="shape"/>
<feGaussianBlur stdDeviation="2" result="effect1_foregroundBlur_2002_215"/>
</filter>
<filter id="filter3_f_2002_215" x="919" y="701" width="38.0151" height="37" filterUnits="userSpaceOnUse" color-interpolation-filters="sRGB">
<feFlood flood-opacity="0" result="BackgroundImageFix"/>
<feBlend mode="normal" in="SourceGraphic" in2="BackgroundImageFix" result="shape"/>
<feGaussianBlur stdDeviation="2" result="effect1_foregroundBlur_2002_215"/>
</filter>
<filter id="filter4_f_2002_215" x="1031" y="457" width="38.0151" height="37" filterUnits="userSpaceOnUse" color-interpolation-filters="sRGB">
<feFlood flood-opacity="0" result="BackgroundImageFix"/>
<feBlend mode="normal" in="SourceGraphic" in2="BackgroundImageFix" result="shape"/>
<feGaussianBlur stdDeviation="2" result="effect1_foregroundBlur_2002_215"/>
</filter>
<filter id="filter5_f_2002_215" x="124.476" y="533.013" width="88.4668" height="87.0424" filterUnits="userSpaceOnUse" color-interpolation-filters="sRGB">
<feFlood flood-opacity="0" result="BackgroundImageFix"/>
<feBlend mode="normal" in="SourceGraphic" in2="BackgroundImageFix" result="shape"/>
<feGaussianBlur stdDeviation="2" result="effect1_foregroundBlur_2002_215"/>
</filter>
<filter id="filter6_f_2002_215" x="1073" y="426" width="24.0742" height="24.0742" filterUnits="userSpaceOnUse" color-interpolation-filters="sRGB">
<feFlood flood-opacity="0" result="BackgroundImageFix"/>
<feBlend mode="normal" in="SourceGraphic" in2="BackgroundImageFix" result="shape"/>
<feGaussianBlur stdDeviation="2" result="effect1_foregroundBlur_2002_215"/>
</filter>
<filter id="filter7_f_2002_215" x="247" y="153" width="24.0742" height="24.0742" filterUnits="userSpaceOnUse" color-interpolation-filters="sRGB">
<feFlood flood-opacity="0" result="BackgroundImageFix"/>
<feBlend mode="normal" in="SourceGraphic" in2="BackgroundImageFix" result="shape"/>
<feGaussianBlur stdDeviation="2" result="effect1_foregroundBlur_2002_215"/>
</filter>
<filter id="filter8_f_2002_215" x="117" y="413" width="24.0742" height="24.0742" filterUnits="userSpaceOnUse" color-interpolation-filters="sRGB">
<feFlood flood-opacity="0" result="BackgroundImageFix"/>
<feBlend mode="normal" in="SourceGraphic" in2="BackgroundImageFix" result="shape"/>
<feGaussianBlur stdDeviation="2" result="effect1_foregroundBlur_2002_215"/>
</filter>
<filter id="filter9_f_2002_215" x="152.477" y="93.8058" width="74.6887" height="73.0767" filterUnits="userSpaceOnUse" color-interpolation-filters="sRGB">
<feFlood flood-opacity="0" result="BackgroundImageFix"/>
<feBlend mode="normal" in="SourceGraphic" in2="BackgroundImageFix" result="shape"/>
<feGaussianBlur stdDeviation="2" result="effect1_foregroundBlur_2002_215"/>
</filter>
<filter id="filter10_d_2002_215" x="298.14" y="316.958" width="674.293" height="69.5601" filterUnits="userSpaceOnUse" color-interpolation-filters="sRGB">
<feFlood flood-opacity="0" result="BackgroundImageFix"/>
<feColorMatrix in="SourceAlpha" type="matrix" values="0 0 0 0 0 0 0 0 0 0 0 0 0 0 0 0 0 0 127 0" result="hardAlpha"/>
<feOffset dy="4"/>
<feGaussianBlur stdDeviation="2"/>
<feComposite in2="hardAlpha" operator="out"/>
<feColorMatrix type="matrix" values="0 0 0 0 0 0 0 0 0 0 0 0 0 0 0 0 0 0 0.25 0"/>
<feBlend mode="normal" in2="BackgroundImageFix" result="effect1_dropShadow_2002_215"/>
<feBlend mode="normal" in="SourceGraphic" in2="effect1_dropShadow_2002_215" result="shape"/>
</filter>
<filter id="filter11_d_2002_215" x="239.493" y="357.284" width="307.333" height="118.343" filterUnits="userSpaceOnUse" color-interpolation-filters="sRGB">
<feFlood flood-opacity="0" result="BackgroundImageFix"/>
<feColorMatrix in="SourceAlpha" type="matrix" values="0 0 0 0 0 0 0 0 0 0 0 0 0 0 0 0 0 0 127 0" result="hardAlpha"/>
<feOffset dy="4"/>
<feGaussianBlur stdDeviation="2"/>
<feComposite in2="hardAlpha" operator="out"/>
<feColorMatrix type="matrix" values="0 0 0 0 0 0 0 0 0 0 0 0 0 0 0 0 0 0 0.25 0"/>
<feBlend mode="normal" in2="BackgroundImageFix" result="effect1_dropShadow_2002_215"/>
<feBlend mode="normal" in="SourceGraphic" in2="effect1_dropShadow_2002_215" result="shape"/>
</filter>
<filter id="filter12_d_2002_215" x="760.48" y="280.315" width="296.919" height="140.935" filterUnits="userSpaceOnUse" color-interpolation-filters="sRGB">
<feFlood flood-opacity="0" result="BackgroundImageFix"/>
<feColorMatrix in="SourceAlpha" type="matrix" values="0 0 0 0 0 0 0 0 0 0 0 0 0 0 0 0 0 0 127 0" result="hardAlpha"/>
<feOffset dy="4"/>
<feGaussianBlur stdDeviation="2"/>
<feComposite in2="hardAlpha" operator="out"/>
<feColorMatrix type="matrix" values="0 0 0 0 0 0 0 0 0 0 0 0 0 0 0 0 0 0 0.25 0"/>
<feBlend mode="normal" in2="BackgroundImageFix" result="effect1_dropShadow_2002_215"/>
<feBlend mode="normal" in="SourceGraphic" in2="effect1_dropShadow_2002_215" result="shape"/>
</filter>
<filter id="filter13_f_2002_215" x="964.883" y="101.867" width="31.9524" height="32.2164" filterUnits="userSpaceOnUse" color-interpolation-filters="sRGB">
<feFlood flood-opacity="0" result="BackgroundImageFix"/>
<feBlend mode="normal" in="SourceGraphic" in2="BackgroundImageFix" result="shape"/>
<feGaussianBlur stdDeviation="2" result="effect1_foregroundBlur_2002_215"/>
</filter>
<filter id="filter14_f_2002_215" x="250.254" y="77.4991" width="31.9524" height="32.2164" filterUnits="userSpaceOnUse" color-interpolation-filters="sRGB">
<feFlood flood-opacity="0" result="BackgroundImageFix"/>
<feBlend mode="normal" in="SourceGraphic" in2="BackgroundImageFix" result="shape"/>
<feGaussianBlur stdDeviation="2" result="effect1_foregroundBlur_2002_215"/>
</filter>
<linearGradient id="paint0_linear_2002_215" x1="650" y1="0" x2="650" y2="818.779" gradientUnits="userSpaceOnUse">
<stop stop-color="#C08CE1"/>
<stop offset="0.522213" stop-color="#E793C5"/>
<stop offset="1" stop-color="#EBB2C3"/>
</linearGradient>
<linearGradient id="paint1_linear_2002_215" x1="86" y1="647" x2="1299" y2="647" gradientUnits="userSpaceOnUse">
<stop stop-color="#5F60D1" stop-opacity="0.2"/>
<stop offset="0.527213" stop-color="#C08CE1"/>
<stop offset="1" stop-color="#CCD8E8" stop-opacity="0.5"/>
</linearGradient>
<linearGradient id="paint2_linear_2002_215" x1="31" y1="646" x2="1196" y2="646" gradientUnits="userSpaceOnUse">
<stop stop-color="#5F60D1" stop-opacity="0.5"/>
<stop offset="0.332213" stop-color="#C08CE1"/>
<stop offset="0.787213" stop-color="#EBB2C3"/>
<stop offset="1" stop-color="#B2DAFE" stop-opacity="0"/>
</linearGradient>
<linearGradient id="paint3_linear_2002_215" x1="922" y1="25.5" x2="-2.13938e-05" y2="765" gradientUnits="userSpaceOnUse">
<stop stop-color="#BBBCF1"/>
<stop offset="0.477213" stop-color="#C08CE1"/>
<stop offset="1" stop-color="white" stop-opacity="0.42"/>
</linearGradient>
<linearGradient id="paint4_linear_2002_215" x1="822.589" y1="32.091" x2="1327.71" y2="267.566" gradientUnits="userSpaceOnUse">
<stop stop-color="#C08CE1"/>
<stop offset="0.512213" stop-color="#BAB0EE"/>
<stop offset="0.9998" stop-color="#5F60D1"/>
<stop offset="0.9999" stop-color="#B2DAFE"/>
<stop offset="1" stop-color="white"/>
</linearGradient>
</defs>
</svg>
