<svg width="823" height="244" viewBox="0 0 823 244" fill="none" xmlns="http://www.w3.org/2000/svg">
<rect x="199" y="147.258" width="482" height="45" rx="22.5" fill="#5F60D1"/>
<g filter="url(#filter0_d_2009_321)">
<path d="M80.4798 126C80.3998 125.44 80.3398 124.98 80.2998 124.62C80.2998 124.22 80.2798 123.76 80.2398 123.24C78.8798 124.6 77.4398 125.56 75.9198 126.12C74.3998 126.68 72.8598 126.96 71.2998 126.96C68.7398 126.96 66.7398 126.2 65.2998 124.68C63.8598 123.16 63.1398 121.26 63.1398 118.98C63.1398 117.06 63.6198 115.42 64.5798 114.06C65.5798 112.7 66.8798 111.6 68.4798 110.76C70.1198 109.88 71.9198 109.22 73.8798 108.78C75.8798 108.3 77.8798 108.02 79.8798 107.94V104.82C79.8798 103.78 79.7398 102.84 79.4598 102C79.2198 101.16 78.7798 100.5 78.1398 100.02C77.5398 99.54 76.6798 99.32 75.5598 99.36C74.7998 99.4 74.0598 99.56 73.3398 99.84C72.6198 100.12 71.9998 100.52 71.4798 101.04C71.7998 101.4 71.9998 101.8 72.0798 102.24C72.1598 102.64 72.1998 103 72.1998 103.32C72.1998 104.12 71.8798 104.96 71.2398 105.84C70.5998 106.68 69.5798 107.08 68.1798 107.04C66.9798 107 66.0598 106.58 65.4198 105.78C64.7798 104.98 64.4598 104.04 64.4598 102.96C64.4598 101.36 65.0198 99.98 66.1398 98.82C67.2998 97.62 68.8398 96.7 70.7598 96.06C72.6798 95.38 74.7998 95.04 77.1198 95.04C80.6398 95.04 83.3598 95.96 85.2798 97.8C87.2398 99.6 88.2198 102.5 88.2198 106.5C88.2198 107.86 88.2198 109.02 88.2198 109.98C88.2198 110.94 88.1998 111.9 88.1598 112.86C88.1598 113.82 88.1598 114.98 88.1598 116.34C88.1598 116.9 88.1398 117.7 88.0998 118.74C88.0598 119.74 87.9998 120.7 87.9198 121.62C88.5998 121.54 89.3198 121.5 90.0798 121.5C90.8398 121.46 91.4198 121.44 91.8198 121.44V126H80.4798ZM79.8198 112.2C78.6998 112.32 77.6398 112.52 76.6398 112.8C75.6398 113.08 74.7598 113.46 73.9998 113.94C73.2798 114.42 72.6998 115 72.2598 115.68C71.8598 116.36 71.6598 117.12 71.6598 117.96C71.6998 119.08 72.0598 119.88 72.7398 120.36C73.4198 120.84 74.1998 121.08 75.0798 121.08C75.9998 121.08 76.8598 120.88 77.6598 120.48C78.4598 120.08 79.1798 119.56 79.8198 118.92C79.8198 118.52 79.8198 118.14 79.8198 117.78C79.8198 117.38 79.8198 116.98 79.8198 116.58C79.8198 115.86 79.8198 115.14 79.8198 114.42C79.8198 113.66 79.8198 112.92 79.8198 112.2ZM131.265 122.1C132.385 122.1 133.185 121.88 133.665 121.44C134.145 121 134.445 120.38 134.565 119.58C134.725 118.74 134.805 117.8 134.805 116.76V106.68C134.805 105.96 134.825 105.16 134.865 104.28C134.905 103.36 134.965 102.46 135.045 101.58C134.405 101.62 133.645 101.66 132.765 101.7C131.925 101.7 131.285 101.72 130.845 101.76V97.2H133.245C134.805 97.2 136.225 97 137.505 96.6C138.825 96.2 139.685 95.8 140.085 95.4H143.025C143.105 95.8 143.165 96.56 143.205 97.68C143.245 98.76 143.265 99.72 143.265 100.56C144.345 99.24 145.365 98.18 146.325 97.38C147.285 96.58 148.225 96 149.145 95.64C150.105 95.24 151.065 95.04 152.025 95.04C153.425 95.04 154.645 95.44 155.685 96.24C156.725 97 157.245 98.26 157.245 100.02C157.245 100.62 157.105 101.26 156.825 101.94C156.545 102.58 156.105 103.12 155.505 103.56C154.905 104 154.085 104.22 153.045 104.22C152.245 104.22 151.425 103.98 150.585 103.5C149.745 103.02 149.265 102.1 149.145 100.74C148.345 100.74 147.545 101.08 146.745 101.76C145.945 102.4 145.225 103.18 144.585 104.1C143.985 104.98 143.565 105.8 143.325 106.56V116.34C143.325 116.9 143.305 117.7 143.265 118.74C143.225 119.74 143.165 120.7 143.085 121.62C143.725 121.54 144.425 121.5 145.185 121.5C145.985 121.46 146.585 121.44 146.985 121.44V126H131.265V122.1ZM207.973 126.96C206.773 126.96 205.613 126.82 204.493 126.54C203.413 126.26 202.413 125.74 201.493 124.98C200.613 124.18 199.913 123.02 199.393 121.5C198.873 119.98 198.613 117.96 198.613 115.44L198.733 100.98H194.653V96C195.893 95.96 197.093 95.54 198.253 94.74C199.413 93.94 200.393 92.9 201.193 91.62C202.033 90.34 202.593 89 202.873 87.6H207.313L207.253 96H214.873V100.62L207.253 100.8L207.193 115.56C207.193 116.48 207.273 117.4 207.433 118.32C207.633 119.2 207.993 119.94 208.513 120.54C209.033 121.1 209.793 121.38 210.793 121.38C211.353 121.38 212.113 121.18 213.073 120.78C214.073 120.38 215.133 119.38 216.253 117.78L219.133 120.48C218.053 122.08 216.933 123.32 215.773 124.2C214.613 125.08 213.493 125.72 212.413 126.12C211.373 126.52 210.453 126.76 209.653 126.84C208.853 126.92 208.293 126.96 207.973 126.96ZM312.36 94.26C312.36 89.42 313.42 85.96 315.54 83.88C317.66 81.76 320.52 80.7 324.12 80.7C326 80.7 327.5 80.98 328.62 81.54C329.74 82.06 330.54 82.72 331.02 83.52C331.5 84.32 331.74 85.14 331.74 85.98C331.74 87.02 331.42 87.94 330.78 88.74C330.14 89.54 329.22 89.96 328.02 90C326.86 90.04 325.96 89.74 325.32 89.1C324.68 88.42 324.36 87.58 324.36 86.58C324.36 86.38 324.36 86.18 324.36 85.98C324.4 85.78 324.44 85.58 324.48 85.38C324.28 85.18 324.04 85.06 323.76 85.02C323.52 84.94 323.3 84.9 323.1 84.9C322.46 84.9 321.96 85.1 321.6 85.5C321.24 85.86 321 86.32 320.88 86.88C320.76 87.44 320.7 88.02 320.7 88.62V96H327.42V100.62L320.76 100.8L320.82 116.22C320.82 116.78 320.8 117.6 320.76 118.68C320.72 119.72 320.66 120.7 320.58 121.62C321.26 121.54 322.02 121.5 322.86 121.5C323.74 121.46 324.38 121.44 324.78 121.44V126H308.76V122.1C309.88 122.1 310.68 121.88 311.16 121.44C311.68 121 312 120.38 312.12 119.58C312.28 118.74 312.36 117.8 312.36 116.76V100.92L307.98 100.98V96H312.36V94.26ZM384.874 126C384.794 125.44 384.734 124.98 384.694 124.62C384.694 124.22 384.674 123.76 384.634 123.24C383.274 124.6 381.834 125.56 380.314 126.12C378.794 126.68 377.254 126.96 375.694 126.96C373.134 126.96 371.134 126.2 369.694 124.68C368.254 123.16 367.534 121.26 367.534 118.98C367.534 117.06 368.014 115.42 368.974 114.06C369.974 112.7 371.274 111.6 372.874 110.76C374.514 109.88 376.314 109.22 378.274 108.78C380.274 108.3 382.274 108.02 384.274 107.94V104.82C384.274 103.78 384.134 102.84 383.854 102C383.614 101.16 383.174 100.5 382.534 100.02C381.934 99.54 381.074 99.32 379.954 99.36C379.194 99.4 378.454 99.56 377.734 99.84C377.014 100.12 376.394 100.52 375.874 101.04C376.194 101.4 376.394 101.8 376.474 102.24C376.554 102.64 376.594 103 376.594 103.32C376.594 104.12 376.274 104.96 375.634 105.84C374.994 106.68 373.974 107.08 372.574 107.04C371.374 107 370.454 106.58 369.814 105.78C369.174 104.98 368.854 104.04 368.854 102.96C368.854 101.36 369.414 99.98 370.534 98.82C371.694 97.62 373.234 96.7 375.154 96.06C377.074 95.38 379.194 95.04 381.514 95.04C385.034 95.04 387.754 95.96 389.674 97.8C391.634 99.6 392.614 102.5 392.614 106.5C392.614 107.86 392.614 109.02 392.614 109.98C392.614 110.94 392.594 111.9 392.554 112.86C392.554 113.82 392.554 114.98 392.554 116.34C392.554 116.9 392.534 117.7 392.494 118.74C392.454 119.74 392.394 120.7 392.314 121.62C392.994 121.54 393.714 121.5 394.474 121.5C395.234 121.46 395.814 121.44 396.214 121.44V126H384.874ZM384.214 112.2C383.094 112.32 382.034 112.52 381.034 112.8C380.034 113.08 379.154 113.46 378.394 113.94C377.674 114.42 377.094 115 376.654 115.68C376.254 116.36 376.054 117.12 376.054 117.96C376.094 119.08 376.454 119.88 377.134 120.36C377.814 120.84 378.594 121.08 379.474 121.08C380.394 121.08 381.254 120.88 382.054 120.48C382.854 120.08 383.574 119.56 384.214 118.92C384.214 118.52 384.214 118.14 384.214 117.78C384.214 117.38 384.214 116.98 384.214 116.58C384.214 115.86 384.214 115.14 384.214 114.42C384.214 113.66 384.214 112.92 384.214 112.2ZM449.819 126.96C447.139 126.96 444.679 126.36 442.439 125.16C440.199 123.96 438.399 122.22 437.039 119.94C435.719 117.66 435.059 114.9 435.059 111.66C435.059 109.38 435.439 107.24 436.199 105.24C436.959 103.24 438.019 101.48 439.379 99.96C440.779 98.44 442.419 97.24 444.299 96.36C446.219 95.48 448.339 95.04 450.659 95.04C453.219 95.04 455.339 95.44 457.019 96.24C458.739 97 460.019 98.02 460.859 99.3C461.739 100.54 462.179 101.86 462.179 103.26C462.179 104.42 461.819 105.46 461.099 106.38C460.419 107.26 459.439 107.72 458.159 107.76C456.639 107.8 455.579 107.38 454.979 106.5C454.379 105.58 454.079 104.7 454.079 103.86C454.079 103.5 454.139 103.08 454.259 102.6C454.379 102.08 454.559 101.62 454.799 101.22C454.519 100.62 454.099 100.18 453.539 99.9C452.979 99.62 452.399 99.44 451.799 99.36C451.239 99.24 450.779 99.2 450.419 99.24C448.499 99.36 446.919 100.32 445.679 102.12C444.439 103.92 443.819 106.52 443.819 109.92C443.819 111.92 444.059 113.8 444.539 115.56C445.059 117.28 445.899 118.7 447.059 119.82C448.219 120.94 449.779 121.54 451.739 121.62C453.419 121.66 455.059 121.26 456.659 120.42C458.259 119.58 459.619 118.44 460.739 117L463.499 119.7C462.059 121.7 460.559 123.22 458.999 124.26C457.439 125.3 455.879 126 454.319 126.36C452.799 126.76 451.299 126.96 449.819 126.96ZM514.594 126.96C513.394 126.96 512.234 126.82 511.114 126.54C510.034 126.26 509.034 125.74 508.114 124.98C507.234 124.18 506.534 123.02 506.014 121.5C505.494 119.98 505.234 117.96 505.234 115.44L505.354 100.98H501.274V96C502.514 95.96 503.714 95.54 504.874 94.74C506.034 93.94 507.014 92.9 507.814 91.62C508.654 90.34 509.214 89 509.494 87.6H513.934L513.874 96H521.494V100.62L513.874 100.8L513.814 115.56C513.814 116.48 513.894 117.4 514.054 118.32C514.254 119.2 514.614 119.94 515.134 120.54C515.654 121.1 516.414 121.38 517.414 121.38C517.974 121.38 518.734 121.18 519.694 120.78C520.694 120.38 521.754 119.38 522.874 117.78L525.754 120.48C524.674 122.08 523.554 123.32 522.394 124.2C521.234 125.08 520.114 125.72 519.034 126.12C517.994 126.52 517.074 126.76 516.274 126.84C515.474 126.92 514.914 126.96 514.594 126.96ZM578.199 126.96C575.319 126.96 572.719 126.34 570.399 125.1C568.079 123.86 566.239 122.1 564.879 119.82C563.559 117.5 562.899 114.78 562.899 111.66C562.899 108.34 563.579 105.44 564.939 102.96C566.339 100.44 568.179 98.5 570.459 97.14C572.779 95.74 575.299 95.04 578.019 95.04C580.899 95.04 583.479 95.66 585.759 96.9C588.039 98.14 589.839 99.92 591.159 102.24C592.479 104.52 593.139 107.26 593.139 110.46C593.139 113.82 592.499 116.74 591.219 119.22C589.939 121.7 588.179 123.62 585.939 124.98C583.699 126.3 581.119 126.96 578.199 126.96ZM578.439 122.7C580.039 122.66 581.239 122.1 582.039 121.02C582.879 119.94 583.459 118.58 583.779 116.94C584.099 115.3 584.259 113.64 584.259 111.96C584.259 110.48 584.139 108.98 583.899 107.46C583.699 105.94 583.359 104.56 582.879 103.32C582.399 102.08 581.739 101.08 580.899 100.32C580.099 99.56 579.099 99.2 577.899 99.24C576.339 99.28 575.099 99.84 574.179 100.92C573.299 102 572.659 103.36 572.259 105C571.899 106.6 571.719 108.28 571.719 110.04C571.719 112.08 571.939 114.08 572.379 116.04C572.819 118 573.519 119.62 574.479 120.9C575.479 122.14 576.799 122.74 578.439 122.7ZM633.483 122.1C634.603 122.1 635.403 121.88 635.883 121.44C636.363 121 636.663 120.38 636.783 119.58C636.943 118.74 637.023 117.8 637.023 116.76V106.68C637.023 105.96 637.043 105.16 637.083 104.28C637.123 103.36 637.183 102.46 637.263 101.58C636.623 101.62 635.863 101.66 634.983 101.7C634.143 101.7 633.503 101.72 633.063 101.76V97.2H635.463C637.023 97.2 638.443 97 639.723 96.6C641.043 96.2 641.903 95.8 642.303 95.4H645.243C645.323 95.8 645.383 96.56 645.423 97.68C645.463 98.76 645.483 99.72 645.483 100.56C646.563 99.24 647.583 98.18 648.543 97.38C649.503 96.58 650.443 96 651.363 95.64C652.323 95.24 653.283 95.04 654.243 95.04C655.643 95.04 656.863 95.44 657.903 96.24C658.943 97 659.463 98.26 659.463 100.02C659.463 100.62 659.323 101.26 659.043 101.94C658.763 102.58 658.323 103.12 657.723 103.56C657.123 104 656.303 104.22 655.263 104.22C654.463 104.22 653.643 103.98 652.803 103.5C651.963 103.02 651.483 102.1 651.363 100.74C650.563 100.74 649.763 101.08 648.963 101.76C648.163 102.4 647.443 103.18 646.803 104.1C646.203 104.98 645.783 105.8 645.543 106.56V116.34C645.543 116.9 645.523 117.7 645.483 118.74C645.443 119.74 645.383 120.7 645.303 121.62C645.943 121.54 646.643 121.5 647.403 121.5C648.203 121.46 648.803 121.44 649.203 121.44V126H633.483V122.1ZM705.493 142.26C703.973 142.26 702.673 141.8 701.593 140.88C700.553 140 700.033 138.82 700.033 137.34C700.033 136.26 700.373 135.3 701.053 134.46C701.773 133.66 702.693 133.24 703.813 133.2C704.693 133.16 705.433 133.44 706.033 134.04C706.673 134.68 706.993 135.54 706.993 136.62C706.993 136.74 706.993 136.86 706.993 136.98C706.993 137.1 706.973 137.24 706.933 137.4C707.013 137.4 707.113 137.38 707.233 137.34C707.593 137.22 707.973 136.88 708.373 136.32C708.813 135.8 709.233 135.1 709.633 134.22C710.073 133.3 710.493 132.26 710.893 131.1C711.333 129.98 711.713 128.8 712.033 127.56L702.553 108.54C701.433 106.3 700.693 104.62 700.333 103.5C700.013 102.34 699.793 101.32 699.673 100.44L696.913 100.56V96H711.853V99.84C710.373 100 709.553 100.56 709.393 101.52C709.273 102.48 709.453 103.48 709.933 104.52L715.813 117.96C716.213 116.92 716.733 115.32 717.373 113.16C718.013 110.96 718.773 108.58 719.653 106.02C719.813 105.5 720.013 104.9 720.253 104.22C720.533 103.5 720.833 102.8 721.153 102.12C721.473 101.4 721.813 100.82 722.173 100.38L718.753 100.56V96H729.433V99.84C728.193 100.12 727.153 100.88 726.313 102.12C725.513 103.36 724.793 104.88 724.153 106.68L716.653 128.1C715.533 131.34 714.473 134 713.473 136.08C712.473 138.2 711.353 139.76 710.113 140.76C708.873 141.76 707.333 142.26 705.493 142.26Z" fill="white"/>
</g>
<path d="M283.774 176.18C282.987 176.18 282.327 176.033 281.794 175.74C281.274 175.447 280.887 175.013 280.634 174.44C280.381 173.867 280.254 173.147 280.254 172.28V167.04C280.254 166.733 280.327 166.507 280.474 166.36C280.634 166.2 280.861 166.12 281.154 166.12C281.447 166.12 281.674 166.2 281.834 166.36C281.994 166.507 282.074 166.733 282.074 167.04V172.28C282.074 173.107 282.241 173.72 282.574 174.12C282.907 174.507 283.434 174.7 284.154 174.7C284.954 174.7 285.601 174.433 286.094 173.9C286.601 173.367 286.854 172.66 286.854 171.78V167.04C286.854 166.733 286.927 166.507 287.074 166.36C287.234 166.2 287.461 166.12 287.754 166.12C288.047 166.12 288.274 166.2 288.434 166.36C288.594 166.507 288.674 166.733 288.674 167.04V175.2C288.674 175.827 288.381 176.14 287.794 176.14C287.501 176.14 287.274 176.06 287.114 175.9C286.967 175.74 286.894 175.507 286.894 175.2V173.46L287.154 173.8C286.887 174.573 286.454 175.167 285.854 175.58C285.267 175.98 284.574 176.18 283.774 176.18ZM294.503 176.14C294.223 176.14 294.003 176.06 293.843 175.9C293.683 175.74 293.603 175.507 293.603 175.2V167.04C293.603 166.733 293.683 166.507 293.843 166.36C294.003 166.2 294.223 166.12 294.503 166.12C294.783 166.12 294.996 166.2 295.143 166.36C295.303 166.507 295.383 166.733 295.383 167.04V168.68L295.163 168.38C295.443 167.62 295.896 167.047 296.523 166.66C297.163 166.273 297.889 166.08 298.703 166.08C299.489 166.08 300.136 166.22 300.643 166.5C301.149 166.78 301.529 167.207 301.783 167.78C302.036 168.353 302.163 169.08 302.163 169.96V175.2C302.163 175.507 302.083 175.74 301.923 175.9C301.776 176.06 301.556 176.14 301.263 176.14C300.969 176.14 300.743 176.06 300.583 175.9C300.423 175.74 300.343 175.507 300.343 175.2V170.06C300.343 169.193 300.176 168.56 299.843 168.16C299.509 167.76 298.976 167.56 298.243 167.56C297.389 167.56 296.703 167.827 296.183 168.36C295.676 168.88 295.423 169.587 295.423 170.48V175.2C295.423 175.827 295.116 176.14 294.503 176.14ZM307.948 176.1C307.668 176.1 307.448 176.013 307.288 175.84C307.128 175.667 307.048 175.427 307.048 175.12V167.14C307.048 166.82 307.128 166.58 307.288 166.42C307.448 166.247 307.668 166.16 307.948 166.16C308.241 166.16 308.468 166.247 308.628 166.42C308.788 166.58 308.868 166.82 308.868 167.14V175.12C308.868 175.427 308.788 175.667 308.628 175.84C308.481 176.013 308.255 176.1 307.948 176.1ZM307.948 164C307.588 164 307.301 163.907 307.088 163.72C306.888 163.52 306.788 163.26 306.788 162.94C306.788 162.593 306.888 162.333 307.088 162.16C307.301 161.973 307.588 161.88 307.948 161.88C308.335 161.88 308.621 161.973 308.808 162.16C309.008 162.333 309.108 162.593 309.108 162.94C309.108 163.26 309.008 163.52 308.808 163.72C308.621 163.907 308.335 164 307.948 164ZM317.494 176.14C317.241 176.14 317.021 176.073 316.834 175.94C316.647 175.807 316.487 175.593 316.354 175.3L312.954 167.38C312.861 167.153 312.827 166.947 312.854 166.76C312.881 166.573 312.967 166.42 313.114 166.3C313.274 166.18 313.487 166.12 313.754 166.12C313.981 166.12 314.161 166.173 314.294 166.28C314.427 166.387 314.554 166.573 314.674 166.84L317.814 174.58H317.254L320.474 166.84C320.581 166.573 320.701 166.387 320.834 166.28C320.981 166.173 321.181 166.12 321.434 166.12C321.661 166.12 321.834 166.18 321.954 166.3C322.087 166.42 322.167 166.573 322.194 166.76C322.221 166.947 322.181 167.147 322.074 167.36L318.654 175.3C318.534 175.593 318.374 175.807 318.174 175.94C317.987 176.073 317.761 176.14 317.494 176.14ZM330.489 176.18C329.436 176.18 328.529 175.98 327.769 175.58C327.023 175.167 326.443 174.587 326.029 173.84C325.616 173.08 325.409 172.187 325.409 171.16C325.409 170.147 325.609 169.26 326.009 168.5C326.423 167.74 326.983 167.147 327.689 166.72C328.409 166.293 329.229 166.08 330.149 166.08C330.803 166.08 331.389 166.193 331.909 166.42C332.443 166.633 332.896 166.947 333.269 167.36C333.643 167.773 333.923 168.28 334.109 168.88C334.309 169.467 334.409 170.133 334.409 170.88C334.409 171.093 334.343 171.26 334.209 171.38C334.089 171.487 333.909 171.54 333.669 171.54H326.829V170.38H333.209L332.869 170.66C332.869 169.967 332.763 169.38 332.549 168.9C332.349 168.407 332.049 168.033 331.649 167.78C331.263 167.527 330.776 167.4 330.189 167.4C329.549 167.4 329.003 167.553 328.549 167.86C328.096 168.153 327.749 168.573 327.509 169.12C327.269 169.653 327.149 170.273 327.149 170.98V171.1C327.149 172.3 327.436 173.207 328.009 173.82C328.583 174.433 329.409 174.74 330.489 174.74C330.916 174.74 331.349 174.687 331.789 174.58C332.243 174.473 332.676 174.28 333.089 174C333.289 173.88 333.469 173.827 333.629 173.84C333.803 173.84 333.943 173.893 334.049 174C334.156 174.093 334.223 174.213 334.249 174.36C334.276 174.493 334.256 174.64 334.189 174.8C334.123 174.96 333.996 175.1 333.809 175.22C333.369 175.527 332.843 175.767 332.229 175.94C331.629 176.1 331.049 176.18 330.489 176.18ZM339.613 176.14C339.306 176.14 339.073 176.06 338.913 175.9C338.753 175.74 338.673 175.507 338.673 175.2V167.04C338.673 166.733 338.753 166.507 338.913 166.36C339.073 166.2 339.293 166.12 339.573 166.12C339.853 166.12 340.066 166.2 340.213 166.36C340.373 166.507 340.453 166.733 340.453 167.04V168.58H340.253C340.466 167.78 340.866 167.173 341.453 166.76C342.04 166.347 342.78 166.113 343.673 166.06C343.886 166.047 344.06 166.1 344.193 166.22C344.326 166.327 344.4 166.513 344.413 166.78C344.426 167.033 344.366 167.24 344.233 167.4C344.1 167.547 343.893 167.633 343.613 167.66L343.253 167.68C342.373 167.773 341.693 168.06 341.213 168.54C340.746 169.02 340.513 169.68 340.513 170.52V175.2C340.513 175.507 340.433 175.74 340.273 175.9C340.126 176.06 339.906 176.14 339.613 176.14ZM351.24 176.18C350.64 176.18 350.033 176.113 349.42 175.98C348.82 175.833 348.253 175.587 347.72 175.24C347.573 175.147 347.467 175.033 347.4 174.9C347.347 174.753 347.327 174.613 347.34 174.48C347.367 174.333 347.427 174.207 347.52 174.1C347.613 173.993 347.727 173.933 347.86 173.92C348.007 173.893 348.16 173.927 348.32 174.02C348.84 174.313 349.34 174.52 349.82 174.64C350.313 174.76 350.8 174.82 351.28 174.82C352.013 174.82 352.567 174.687 352.94 174.42C353.313 174.153 353.5 173.8 353.5 173.36C353.5 172.987 353.373 172.7 353.12 172.5C352.88 172.287 352.5 172.127 351.98 172.02L350.12 171.64C349.293 171.453 348.667 171.147 348.24 170.72C347.827 170.28 347.62 169.72 347.62 169.04C347.62 168.44 347.78 167.92 348.1 167.48C348.433 167.027 348.893 166.68 349.48 166.44C350.067 166.2 350.74 166.08 351.5 166.08C352.087 166.08 352.64 166.16 353.16 166.32C353.693 166.467 354.173 166.693 354.6 167C354.76 167.093 354.86 167.213 354.9 167.36C354.953 167.493 354.96 167.633 354.92 167.78C354.893 167.913 354.833 168.027 354.74 168.12C354.647 168.213 354.527 168.273 354.38 168.3C354.233 168.313 354.073 168.273 353.9 168.18C353.513 167.913 353.113 167.727 352.7 167.62C352.3 167.5 351.9 167.44 351.5 167.44C350.78 167.44 350.233 167.58 349.86 167.86C349.5 168.14 349.32 168.507 349.32 168.96C349.32 169.307 349.427 169.593 349.64 169.82C349.867 170.047 350.22 170.213 350.7 170.32L352.56 170.7C353.427 170.887 354.08 171.187 354.52 171.6C354.96 172 355.18 172.547 355.18 173.24C355.18 174.147 354.82 174.867 354.1 175.4C353.393 175.92 352.44 176.18 351.24 176.18ZM360.448 176.1C360.168 176.1 359.948 176.013 359.788 175.84C359.628 175.667 359.548 175.427 359.548 175.12V167.14C359.548 166.82 359.628 166.58 359.788 166.42C359.948 166.247 360.168 166.16 360.448 166.16C360.741 166.16 360.968 166.247 361.128 166.42C361.288 166.58 361.368 166.82 361.368 167.14V175.12C361.368 175.427 361.288 175.667 361.128 175.84C360.981 176.013 360.755 176.1 360.448 176.1ZM360.448 164C360.088 164 359.801 163.907 359.588 163.72C359.388 163.52 359.288 163.26 359.288 162.94C359.288 162.593 359.388 162.333 359.588 162.16C359.801 161.973 360.088 161.88 360.448 161.88C360.835 161.88 361.121 161.973 361.308 162.16C361.508 162.333 361.608 162.593 361.608 162.94C361.608 163.26 361.508 163.52 361.308 163.72C361.121 163.907 360.835 164 360.448 164ZM370.334 176.18C369.547 176.18 368.887 176.04 368.354 175.76C367.834 175.48 367.441 175.073 367.174 174.54C366.921 174.007 366.794 173.353 366.794 172.58V167.66H365.514C365.274 167.66 365.087 167.6 364.954 167.48C364.821 167.347 364.754 167.173 364.754 166.96C364.754 166.733 364.821 166.56 364.954 166.44C365.087 166.32 365.274 166.26 365.514 166.26H366.794V164.08C366.794 163.773 366.874 163.547 367.034 163.4C367.194 163.24 367.421 163.16 367.714 163.16C368.007 163.16 368.227 163.24 368.374 163.4C368.534 163.547 368.614 163.773 368.614 164.08V166.26H371.034C371.287 166.26 371.481 166.32 371.614 166.44C371.747 166.56 371.814 166.733 371.814 166.96C371.814 167.173 371.747 167.347 371.614 167.48C371.481 167.6 371.287 167.66 371.034 167.66H368.614V172.42C368.614 173.153 368.767 173.707 369.074 174.08C369.381 174.453 369.887 174.64 370.594 174.64C370.847 174.64 371.061 174.62 371.234 174.58C371.407 174.527 371.561 174.5 371.694 174.5C371.814 174.487 371.914 174.527 371.994 174.62C372.087 174.713 372.134 174.887 372.134 175.14C372.134 175.327 372.101 175.5 372.034 175.66C371.981 175.807 371.867 175.907 371.694 175.96C371.534 176.013 371.321 176.06 371.054 176.1C370.787 176.153 370.547 176.18 370.334 176.18ZM377.839 179.74C377.625 179.74 377.445 179.68 377.299 179.56C377.165 179.453 377.085 179.3 377.059 179.1C377.045 178.913 377.085 178.713 377.179 178.5L378.539 175.42V176.18L374.759 167.38C374.665 167.153 374.632 166.947 374.659 166.76C374.685 166.573 374.772 166.42 374.919 166.3C375.079 166.18 375.292 166.12 375.559 166.12C375.785 166.12 375.965 166.173 376.099 166.28C376.232 166.387 376.359 166.573 376.479 166.84L379.619 174.58H379.059L382.259 166.84C382.365 166.573 382.492 166.387 382.639 166.28C382.785 166.173 382.985 166.12 383.239 166.12C383.465 166.12 383.639 166.18 383.759 166.3C383.892 166.42 383.972 166.573 383.999 166.76C384.025 166.947 383.985 167.147 383.879 167.36L378.839 179.02C378.705 179.3 378.565 179.487 378.419 179.58C378.285 179.687 378.092 179.74 377.839 179.74ZM399.286 176.18C398.326 176.18 397.492 175.973 396.786 175.56C396.079 175.147 395.532 174.56 395.146 173.8C394.759 173.04 394.566 172.147 394.566 171.12C394.566 170.347 394.672 169.653 394.886 169.04C395.112 168.413 395.432 167.88 395.846 167.44C396.259 167 396.752 166.667 397.326 166.44C397.912 166.2 398.566 166.08 399.286 166.08C400.246 166.08 401.079 166.287 401.786 166.7C402.492 167.113 403.039 167.7 403.426 168.46C403.812 169.207 404.006 170.093 404.006 171.12C404.006 171.893 403.892 172.593 403.666 173.22C403.452 173.847 403.139 174.38 402.726 174.82C402.312 175.26 401.812 175.6 401.226 175.84C400.652 176.067 400.006 176.18 399.286 176.18ZM399.286 174.74C399.872 174.74 400.379 174.6 400.806 174.32C401.246 174.04 401.579 173.633 401.806 173.1C402.046 172.567 402.166 171.907 402.166 171.12C402.166 169.947 401.906 169.053 401.386 168.44C400.866 167.827 400.166 167.52 399.286 167.52C398.712 167.52 398.206 167.66 397.766 167.94C397.339 168.207 397.006 168.607 396.766 169.14C396.526 169.673 396.406 170.333 396.406 171.12C396.406 172.293 396.666 173.193 397.186 173.82C397.719 174.433 398.419 174.74 399.286 174.74ZM409.719 176.14C409.426 176.14 409.199 176.06 409.039 175.9C408.879 175.74 408.799 175.507 408.799 175.2V167.66H407.599C407.359 167.66 407.173 167.6 407.039 167.48C406.906 167.347 406.839 167.173 406.839 166.96C406.839 166.733 406.906 166.56 407.039 166.44C407.173 166.32 407.359 166.26 407.599 166.26H409.299L408.799 166.74V166C408.799 164.707 409.113 163.727 409.739 163.06C410.379 162.38 411.313 161.987 412.539 161.88L413.159 161.84C413.359 161.813 413.519 161.847 413.639 161.94C413.759 162.02 413.839 162.127 413.879 162.26C413.919 162.393 413.919 162.533 413.879 162.68C413.853 162.813 413.793 162.933 413.699 163.04C413.606 163.147 413.486 163.207 413.339 163.22L412.899 163.24C412.099 163.307 411.519 163.547 411.159 163.96C410.799 164.36 410.619 164.96 410.619 165.76V166.56L410.359 166.26H412.659C412.913 166.26 413.106 166.32 413.239 166.44C413.373 166.56 413.439 166.733 413.439 166.96C413.439 167.173 413.373 167.347 413.239 167.48C413.106 167.6 412.913 167.66 412.659 167.66H410.619V175.2C410.619 175.827 410.319 176.14 409.719 176.14ZM428.471 176.18C427.484 176.18 426.631 175.973 425.911 175.56C425.191 175.133 424.638 174.54 424.251 173.78C423.864 173.007 423.671 172.1 423.671 171.06C423.671 170.287 423.778 169.593 423.991 168.98C424.218 168.367 424.538 167.847 424.951 167.42C425.364 166.98 425.864 166.647 426.451 166.42C427.051 166.193 427.724 166.08 428.471 166.08C428.938 166.08 429.431 166.153 429.951 166.3C430.471 166.447 430.951 166.687 431.391 167.02C431.538 167.127 431.631 167.253 431.671 167.4C431.711 167.533 431.711 167.673 431.671 167.82C431.644 167.967 431.578 168.093 431.471 168.2C431.378 168.293 431.251 168.347 431.091 168.36C430.944 168.373 430.784 168.327 430.611 168.22C430.291 167.98 429.951 167.807 429.591 167.7C429.244 167.593 428.911 167.54 428.591 167.54C428.098 167.54 427.658 167.62 427.271 167.78C426.898 167.94 426.578 168.173 426.311 168.48C426.058 168.773 425.864 169.14 425.731 169.58C425.598 170.007 425.531 170.507 425.531 171.08C425.531 172.213 425.798 173.107 426.331 173.76C426.864 174.4 427.618 174.72 428.591 174.72C428.911 174.72 429.244 174.673 429.591 174.58C429.938 174.473 430.278 174.3 430.611 174.06C430.784 173.953 430.944 173.913 431.091 173.94C431.238 173.953 431.358 174.013 431.451 174.12C431.558 174.213 431.624 174.333 431.651 174.48C431.678 174.613 431.664 174.753 431.611 174.9C431.571 175.047 431.478 175.167 431.331 175.26C430.904 175.58 430.438 175.813 429.931 175.96C429.424 176.107 428.938 176.18 428.471 176.18ZM438.57 176.18C437.903 176.18 437.296 176.047 436.75 175.78C436.216 175.513 435.796 175.153 435.49 174.7C435.196 174.247 435.05 173.74 435.05 173.18C435.05 172.46 435.23 171.893 435.59 171.48C435.95 171.067 436.556 170.773 437.41 170.6C438.263 170.413 439.41 170.32 440.85 170.32H441.79V171.48H440.89C439.863 171.48 439.05 171.527 438.45 171.62C437.863 171.713 437.45 171.88 437.21 172.12C436.97 172.347 436.85 172.667 436.85 173.08C436.85 173.6 437.03 174.027 437.39 174.36C437.763 174.693 438.27 174.86 438.91 174.86C439.416 174.86 439.863 174.74 440.25 174.5C440.636 174.247 440.943 173.913 441.17 173.5C441.396 173.073 441.51 172.587 441.51 172.04V169.74C441.51 168.953 441.35 168.387 441.03 168.04C440.71 167.68 440.17 167.5 439.41 167.5C438.97 167.5 438.516 167.56 438.05 167.68C437.583 167.8 437.096 167.987 436.59 168.24C436.39 168.333 436.216 168.367 436.07 168.34C435.923 168.3 435.803 168.22 435.71 168.1C435.63 167.967 435.583 167.827 435.57 167.68C435.57 167.52 435.603 167.367 435.67 167.22C435.75 167.073 435.883 166.967 436.07 166.9C436.656 166.607 437.236 166.4 437.81 166.28C438.396 166.147 438.943 166.08 439.45 166.08C440.316 166.08 441.03 166.22 441.59 166.5C442.15 166.767 442.57 167.187 442.85 167.76C443.13 168.32 443.27 169.04 443.27 169.92V175.2C443.27 175.507 443.196 175.74 443.05 175.9C442.903 176.06 442.69 176.14 442.41 176.14C442.143 176.14 441.93 176.06 441.77 175.9C441.623 175.74 441.55 175.507 441.55 175.2V173.78H441.73C441.623 174.273 441.423 174.7 441.13 175.06C440.836 175.42 440.47 175.7 440.03 175.9C439.603 176.087 439.116 176.18 438.57 176.18ZM451.194 176.18C450.194 176.18 449.434 175.887 448.914 175.3C448.394 174.7 448.134 173.84 448.134 172.72V162.68C448.134 162.373 448.214 162.147 448.374 162C448.534 161.84 448.754 161.76 449.034 161.76C449.327 161.76 449.554 161.84 449.714 162C449.874 162.147 449.954 162.373 449.954 162.68V172.58C449.954 173.273 450.094 173.793 450.374 174.14C450.667 174.473 451.08 174.64 451.614 174.64C451.734 174.64 451.84 174.64 451.934 174.64C452.027 174.627 452.12 174.613 452.214 174.6C452.36 174.587 452.467 174.627 452.534 174.72C452.6 174.813 452.634 175 452.634 175.28C452.634 175.533 452.574 175.733 452.454 175.88C452.347 176.013 452.167 176.1 451.914 176.14C451.794 176.153 451.674 176.16 451.554 176.16C451.434 176.173 451.314 176.18 451.194 176.18ZM457.049 176.1C456.769 176.1 456.549 176.013 456.389 175.84C456.229 175.667 456.149 175.427 456.149 175.12V167.14C456.149 166.82 456.229 166.58 456.389 166.42C456.549 166.247 456.769 166.16 457.049 166.16C457.343 166.16 457.569 166.247 457.729 166.42C457.889 166.58 457.969 166.82 457.969 167.14V175.12C457.969 175.427 457.889 175.667 457.729 175.84C457.583 176.013 457.356 176.1 457.049 176.1ZM457.049 164C456.689 164 456.403 163.907 456.189 163.72C455.989 163.52 455.889 163.26 455.889 162.94C455.889 162.593 455.989 162.333 456.189 162.16C456.403 161.973 456.689 161.88 457.049 161.88C457.436 161.88 457.723 161.973 457.909 162.16C458.109 162.333 458.209 162.593 458.209 162.94C458.209 163.26 458.109 163.52 457.909 163.72C457.723 163.907 457.436 164 457.049 164ZM464.376 176.14C464.082 176.14 463.856 176.06 463.696 175.9C463.536 175.74 463.456 175.507 463.456 175.2V167.66H462.256C462.016 167.66 461.829 167.6 461.696 167.48C461.562 167.347 461.496 167.173 461.496 166.96C461.496 166.733 461.562 166.56 461.696 166.44C461.829 166.32 462.016 166.26 462.256 166.26H463.956L463.456 166.74V166C463.456 164.707 463.769 163.727 464.396 163.06C465.036 162.38 465.969 161.987 467.196 161.88L467.816 161.84C468.016 161.813 468.176 161.847 468.296 161.94C468.416 162.02 468.496 162.127 468.536 162.26C468.576 162.393 468.576 162.533 468.536 162.68C468.509 162.813 468.449 162.933 468.356 163.04C468.262 163.147 468.142 163.207 467.996 163.22L467.556 163.24C466.756 163.307 466.176 163.547 465.816 163.96C465.456 164.36 465.276 164.96 465.276 165.76V166.56L465.016 166.26H467.316C467.569 166.26 467.762 166.32 467.896 166.44C468.029 166.56 468.096 166.733 468.096 166.96C468.096 167.173 468.029 167.347 467.896 167.48C467.762 167.6 467.569 167.66 467.316 167.66H465.276V175.2C465.276 175.827 464.976 176.14 464.376 176.14ZM475.559 176.18C474.599 176.18 473.766 175.973 473.059 175.56C472.352 175.147 471.806 174.56 471.419 173.8C471.032 173.04 470.839 172.147 470.839 171.12C470.839 170.347 470.946 169.653 471.159 169.04C471.386 168.413 471.706 167.88 472.119 167.44C472.532 167 473.026 166.667 473.599 166.44C474.186 166.2 474.839 166.08 475.559 166.08C476.519 166.08 477.352 166.287 478.059 166.7C478.766 167.113 479.312 167.7 479.699 168.46C480.086 169.207 480.279 170.093 480.279 171.12C480.279 171.893 480.166 172.593 479.939 173.22C479.726 173.847 479.412 174.38 478.999 174.82C478.586 175.26 478.086 175.6 477.499 175.84C476.926 176.067 476.279 176.18 475.559 176.18ZM475.559 174.74C476.146 174.74 476.652 174.6 477.079 174.32C477.519 174.04 477.852 173.633 478.079 173.1C478.319 172.567 478.439 171.907 478.439 171.12C478.439 169.947 478.179 169.053 477.659 168.44C477.139 167.827 476.439 167.52 475.559 167.52C474.986 167.52 474.479 167.66 474.039 167.94C473.612 168.207 473.279 168.607 473.039 169.14C472.799 169.673 472.679 170.333 472.679 171.12C472.679 172.293 472.939 173.193 473.459 173.82C473.992 174.433 474.692 174.74 475.559 174.74ZM485.55 176.14C485.244 176.14 485.01 176.06 484.85 175.9C484.69 175.74 484.61 175.507 484.61 175.2V167.04C484.61 166.733 484.69 166.507 484.85 166.36C485.01 166.2 485.23 166.12 485.51 166.12C485.79 166.12 486.004 166.2 486.15 166.36C486.31 166.507 486.39 166.733 486.39 167.04V168.58H486.19C486.404 167.78 486.804 167.173 487.39 166.76C487.977 166.347 488.717 166.113 489.61 166.06C489.824 166.047 489.997 166.1 490.13 166.22C490.264 166.327 490.337 166.513 490.35 166.78C490.364 167.033 490.304 167.24 490.17 167.4C490.037 167.547 489.83 167.633 489.55 167.66L489.19 167.68C488.31 167.773 487.63 168.06 487.15 168.54C486.684 169.02 486.45 169.68 486.45 170.52V175.2C486.45 175.507 486.37 175.74 486.21 175.9C486.064 176.06 485.844 176.14 485.55 176.14ZM494.815 176.14C494.535 176.14 494.315 176.06 494.155 175.9C493.995 175.74 493.915 175.507 493.915 175.2V167.04C493.915 166.733 493.995 166.507 494.155 166.36C494.315 166.2 494.535 166.12 494.815 166.12C495.095 166.12 495.308 166.2 495.455 166.36C495.615 166.507 495.695 166.733 495.695 167.04V168.68L495.475 168.38C495.755 167.62 496.208 167.047 496.835 166.66C497.475 166.273 498.202 166.08 499.015 166.08C499.802 166.08 500.448 166.22 500.955 166.5C501.462 166.78 501.842 167.207 502.095 167.78C502.348 168.353 502.475 169.08 502.475 169.96V175.2C502.475 175.507 502.395 175.74 502.235 175.9C502.088 176.06 501.868 176.14 501.575 176.14C501.282 176.14 501.055 176.06 500.895 175.9C500.735 175.74 500.655 175.507 500.655 175.2V170.06C500.655 169.193 500.488 168.56 500.155 168.16C499.822 167.76 499.288 167.56 498.555 167.56C497.702 167.56 497.015 167.827 496.495 168.36C495.988 168.88 495.735 169.587 495.735 170.48V175.2C495.735 175.827 495.428 176.14 494.815 176.14ZM508.26 176.1C507.98 176.1 507.76 176.013 507.6 175.84C507.44 175.667 507.36 175.427 507.36 175.12V167.14C507.36 166.82 507.44 166.58 507.6 166.42C507.76 166.247 507.98 166.16 508.26 166.16C508.554 166.16 508.78 166.247 508.94 166.42C509.1 166.58 509.18 166.82 509.18 167.14V175.12C509.18 175.427 509.1 175.667 508.94 175.84C508.794 176.013 508.567 176.1 508.26 176.1ZM508.26 164C507.9 164 507.614 163.907 507.4 163.72C507.2 163.52 507.1 163.26 507.1 162.94C507.1 162.593 507.2 162.333 507.4 162.16C507.614 161.973 507.9 161.88 508.26 161.88C508.647 161.88 508.934 161.973 509.12 162.16C509.32 162.333 509.42 162.593 509.42 162.94C509.42 163.26 509.32 163.52 509.12 163.72C508.934 163.907 508.647 164 508.26 164ZM517.206 176.18C516.54 176.18 515.933 176.047 515.386 175.78C514.853 175.513 514.433 175.153 514.126 174.7C513.833 174.247 513.686 173.74 513.686 173.18C513.686 172.46 513.866 171.893 514.226 171.48C514.586 171.067 515.193 170.773 516.046 170.6C516.9 170.413 518.046 170.32 519.486 170.32H520.426V171.48H519.526C518.5 171.48 517.686 171.527 517.086 171.62C516.5 171.713 516.086 171.88 515.846 172.12C515.606 172.347 515.486 172.667 515.486 173.08C515.486 173.6 515.666 174.027 516.026 174.36C516.4 174.693 516.906 174.86 517.546 174.86C518.053 174.86 518.5 174.74 518.886 174.5C519.273 174.247 519.58 173.913 519.806 173.5C520.033 173.073 520.146 172.587 520.146 172.04V169.74C520.146 168.953 519.986 168.387 519.666 168.04C519.346 167.68 518.806 167.5 518.046 167.5C517.606 167.5 517.153 167.56 516.686 167.68C516.22 167.8 515.733 167.987 515.226 168.24C515.026 168.333 514.853 168.367 514.706 168.34C514.56 168.3 514.44 168.22 514.346 168.1C514.266 167.967 514.22 167.827 514.206 167.68C514.206 167.52 514.24 167.367 514.306 167.22C514.386 167.073 514.52 166.967 514.706 166.9C515.293 166.607 515.873 166.4 516.446 166.28C517.033 166.147 517.58 166.08 518.086 166.08C518.953 166.08 519.666 166.22 520.226 166.5C520.786 166.767 521.206 167.187 521.486 167.76C521.766 168.32 521.906 169.04 521.906 169.92V175.2C521.906 175.507 521.833 175.74 521.686 175.9C521.54 176.06 521.326 176.14 521.046 176.14C520.78 176.14 520.566 176.06 520.406 175.9C520.26 175.74 520.186 175.507 520.186 175.2V173.78H520.366C520.26 174.273 520.06 174.7 519.766 175.06C519.473 175.42 519.106 175.7 518.666 175.9C518.24 176.087 517.753 176.18 517.206 176.18ZM527.851 177.96C527.717 178.133 527.571 178.233 527.411 178.26C527.264 178.287 527.131 178.26 527.011 178.18C526.904 178.1 526.844 177.98 526.831 177.82C526.817 177.66 526.884 177.487 527.031 177.3C527.257 177.007 527.411 176.713 527.491 176.42C527.584 176.127 527.631 175.853 527.631 175.6L527.711 176.08C527.337 176.08 527.031 175.973 526.791 175.76C526.564 175.533 526.451 175.24 526.451 174.88C526.451 174.533 526.557 174.253 526.771 174.04C526.984 173.827 527.271 173.72 527.631 173.72C527.991 173.72 528.277 173.847 528.491 174.1C528.717 174.34 528.831 174.7 528.831 175.18C528.831 175.46 528.797 175.753 528.731 176.06C528.677 176.38 528.584 176.7 528.451 177.02C528.317 177.34 528.117 177.653 527.851 177.96ZM541.593 176.14C541.287 176.14 541.053 176.06 540.893 175.9C540.733 175.74 540.653 175.507 540.653 175.2V167.04C540.653 166.733 540.733 166.507 540.893 166.36C541.053 166.2 541.273 166.12 541.553 166.12C541.833 166.12 542.047 166.2 542.193 166.36C542.353 166.507 542.433 166.733 542.433 167.04V168.58H542.233C542.447 167.78 542.847 167.173 543.433 166.76C544.02 166.347 544.76 166.113 545.653 166.06C545.867 166.047 546.04 166.1 546.173 166.22C546.307 166.327 546.38 166.513 546.393 166.78C546.407 167.033 546.347 167.24 546.213 167.4C546.08 167.547 545.873 167.633 545.593 167.66L545.233 167.68C544.353 167.773 543.673 168.06 543.193 168.54C542.727 169.02 542.493 169.68 542.493 170.52V175.2C542.493 175.507 542.413 175.74 542.253 175.9C542.107 176.06 541.887 176.14 541.593 176.14ZM550.858 176.1C550.578 176.1 550.358 176.013 550.198 175.84C550.038 175.667 549.958 175.427 549.958 175.12V167.14C549.958 166.82 550.038 166.58 550.198 166.42C550.358 166.247 550.578 166.16 550.858 166.16C551.151 166.16 551.378 166.247 551.538 166.42C551.698 166.58 551.778 166.82 551.778 167.14V175.12C551.778 175.427 551.698 175.667 551.538 175.84C551.391 176.013 551.165 176.1 550.858 176.1ZM550.858 164C550.498 164 550.211 163.907 549.998 163.72C549.798 163.52 549.698 163.26 549.698 162.94C549.698 162.593 549.798 162.333 549.998 162.16C550.211 161.973 550.498 161.88 550.858 161.88C551.245 161.88 551.531 161.973 551.718 162.16C551.918 162.333 552.018 162.593 552.018 162.94C552.018 163.26 551.918 163.52 551.718 163.72C551.531 163.907 551.245 164 550.858 164ZM560.404 176.14C560.151 176.14 559.931 176.073 559.744 175.94C559.557 175.807 559.397 175.593 559.264 175.3L555.864 167.38C555.771 167.153 555.737 166.947 555.764 166.76C555.791 166.573 555.877 166.42 556.024 166.3C556.184 166.18 556.397 166.12 556.664 166.12C556.891 166.12 557.071 166.173 557.204 166.28C557.337 166.387 557.464 166.573 557.584 166.84L560.724 174.58H560.164L563.384 166.84C563.491 166.573 563.611 166.387 563.744 166.28C563.891 166.173 564.091 166.12 564.344 166.12C564.571 166.12 564.744 166.18 564.864 166.3C564.997 166.42 565.077 166.573 565.104 166.76C565.131 166.947 565.091 167.147 564.984 167.36L561.564 175.3C561.444 175.593 561.284 175.807 561.084 175.94C560.897 176.073 560.671 176.14 560.404 176.14ZM573.399 176.18C572.346 176.18 571.439 175.98 570.679 175.58C569.933 175.167 569.353 174.587 568.939 173.84C568.526 173.08 568.319 172.187 568.319 171.16C568.319 170.147 568.519 169.26 568.919 168.5C569.333 167.74 569.893 167.147 570.599 166.72C571.319 166.293 572.139 166.08 573.059 166.08C573.713 166.08 574.299 166.193 574.819 166.42C575.353 166.633 575.806 166.947 576.179 167.36C576.553 167.773 576.833 168.28 577.019 168.88C577.219 169.467 577.319 170.133 577.319 170.88C577.319 171.093 577.253 171.26 577.119 171.38C576.999 171.487 576.819 171.54 576.579 171.54H569.739V170.38H576.119L575.779 170.66C575.779 169.967 575.673 169.38 575.459 168.9C575.259 168.407 574.959 168.033 574.559 167.78C574.173 167.527 573.686 167.4 573.099 167.4C572.459 167.4 571.913 167.553 571.459 167.86C571.006 168.153 570.659 168.573 570.419 169.12C570.179 169.653 570.059 170.273 570.059 170.98V171.1C570.059 172.3 570.346 173.207 570.919 173.82C571.493 174.433 572.319 174.74 573.399 174.74C573.826 174.74 574.259 174.687 574.699 174.58C575.153 174.473 575.586 174.28 575.999 174C576.199 173.88 576.379 173.827 576.539 173.84C576.713 173.84 576.853 173.893 576.959 174C577.066 174.093 577.133 174.213 577.159 174.36C577.186 174.493 577.166 174.64 577.099 174.8C577.033 174.96 576.906 175.1 576.719 175.22C576.279 175.527 575.753 175.767 575.139 175.94C574.539 176.1 573.959 176.18 573.399 176.18ZM582.523 176.14C582.216 176.14 581.983 176.06 581.823 175.9C581.663 175.74 581.583 175.507 581.583 175.2V167.04C581.583 166.733 581.663 166.507 581.823 166.36C581.983 166.2 582.203 166.12 582.483 166.12C582.763 166.12 582.976 166.2 583.123 166.36C583.283 166.507 583.363 166.733 583.363 167.04V168.58H583.163C583.376 167.78 583.776 167.173 584.363 166.76C584.95 166.347 585.69 166.113 586.583 166.06C586.796 166.047 586.97 166.1 587.103 166.22C587.236 166.327 587.31 166.513 587.323 166.78C587.336 167.033 587.276 167.24 587.143 167.4C587.01 167.547 586.803 167.633 586.523 167.66L586.163 167.68C585.283 167.773 584.603 168.06 584.123 168.54C583.656 169.02 583.423 169.68 583.423 170.52V175.2C583.423 175.507 583.343 175.74 583.183 175.9C583.036 176.06 582.816 176.14 582.523 176.14ZM594.15 176.18C593.55 176.18 592.943 176.113 592.33 175.98C591.73 175.833 591.163 175.587 590.63 175.24C590.483 175.147 590.377 175.033 590.31 174.9C590.257 174.753 590.237 174.613 590.25 174.48C590.277 174.333 590.337 174.207 590.43 174.1C590.523 173.993 590.637 173.933 590.77 173.92C590.917 173.893 591.07 173.927 591.23 174.02C591.75 174.313 592.25 174.52 592.73 174.64C593.223 174.76 593.71 174.82 594.19 174.82C594.923 174.82 595.477 174.687 595.85 174.42C596.223 174.153 596.41 173.8 596.41 173.36C596.41 172.987 596.283 172.7 596.03 172.5C595.79 172.287 595.41 172.127 594.89 172.02L593.03 171.64C592.203 171.453 591.577 171.147 591.15 170.72C590.737 170.28 590.53 169.72 590.53 169.04C590.53 168.44 590.69 167.92 591.01 167.48C591.343 167.027 591.803 166.68 592.39 166.44C592.977 166.2 593.65 166.08 594.41 166.08C594.997 166.08 595.55 166.16 596.07 166.32C596.603 166.467 597.083 166.693 597.51 167C597.67 167.093 597.77 167.213 597.81 167.36C597.863 167.493 597.87 167.633 597.83 167.78C597.803 167.913 597.743 168.027 597.65 168.12C597.557 168.213 597.437 168.273 597.29 168.3C597.143 168.313 596.983 168.273 596.81 168.18C596.423 167.913 596.023 167.727 595.61 167.62C595.21 167.5 594.81 167.44 594.41 167.44C593.69 167.44 593.143 167.58 592.77 167.86C592.41 168.14 592.23 168.507 592.23 168.96C592.23 169.307 592.337 169.593 592.55 169.82C592.777 170.047 593.13 170.213 593.61 170.32L595.47 170.7C596.337 170.887 596.99 171.187 597.43 171.6C597.87 172 598.09 172.547 598.09 173.24C598.09 174.147 597.73 174.867 597.01 175.4C596.303 175.92 595.35 176.18 594.15 176.18ZM603.358 176.1C603.078 176.1 602.858 176.013 602.698 175.84C602.538 175.667 602.458 175.427 602.458 175.12V167.14C602.458 166.82 602.538 166.58 602.698 166.42C602.858 166.247 603.078 166.16 603.358 166.16C603.651 166.16 603.878 166.247 604.038 166.42C604.198 166.58 604.278 166.82 604.278 167.14V175.12C604.278 175.427 604.198 175.667 604.038 175.84C603.891 176.013 603.665 176.1 603.358 176.1ZM603.358 164C602.998 164 602.711 163.907 602.498 163.72C602.298 163.52 602.198 163.26 602.198 162.94C602.198 162.593 602.298 162.333 602.498 162.16C602.711 161.973 602.998 161.88 603.358 161.88C603.745 161.88 604.031 161.973 604.218 162.16C604.418 162.333 604.518 162.593 604.518 162.94C604.518 163.26 604.418 163.52 604.218 163.72C604.031 163.907 603.745 164 603.358 164ZM612.924 176.18C612.071 176.18 611.317 175.98 610.664 175.58C610.024 175.167 609.524 174.58 609.164 173.82C608.804 173.047 608.624 172.147 608.624 171.12C608.624 170.08 608.797 169.187 609.144 168.44C609.504 167.68 610.004 167.1 610.644 166.7C611.297 166.287 612.057 166.08 612.924 166.08C613.791 166.08 614.537 166.3 615.164 166.74C615.791 167.167 616.211 167.74 616.424 168.46H616.204V162.68C616.204 162.373 616.277 162.147 616.424 162C616.584 161.84 616.811 161.76 617.104 161.76C617.397 161.76 617.624 161.84 617.784 162C617.944 162.147 618.024 162.373 618.024 162.68V175.2C618.024 175.507 617.944 175.74 617.784 175.9C617.624 176.06 617.397 176.14 617.104 176.14C616.824 176.14 616.604 176.06 616.444 175.9C616.284 175.74 616.204 175.507 616.204 175.2V173.38L616.424 173.74C616.224 174.487 615.804 175.08 615.164 175.52C614.537 175.96 613.791 176.18 612.924 176.18ZM613.344 174.74C613.931 174.74 614.437 174.6 614.864 174.32C615.304 174.04 615.637 173.633 615.864 173.1C616.104 172.567 616.224 171.907 616.224 171.12C616.224 169.947 615.964 169.053 615.444 168.44C614.924 167.827 614.224 167.52 613.344 167.52C612.771 167.52 612.264 167.66 611.824 167.94C611.397 168.207 611.064 168.607 610.824 169.14C610.584 169.673 610.464 170.333 610.464 171.12C610.464 172.293 610.724 173.193 611.244 173.82C611.777 174.433 612.477 174.74 613.344 174.74ZM627.442 176.18C626.389 176.18 625.482 175.98 624.722 175.58C623.976 175.167 623.396 174.587 622.982 173.84C622.569 173.08 622.362 172.187 622.362 171.16C622.362 170.147 622.562 169.26 622.962 168.5C623.376 167.74 623.936 167.147 624.642 166.72C625.362 166.293 626.182 166.08 627.102 166.08C627.756 166.08 628.342 166.193 628.862 166.42C629.396 166.633 629.849 166.947 630.222 167.36C630.596 167.773 630.876 168.28 631.062 168.88C631.262 169.467 631.362 170.133 631.362 170.88C631.362 171.093 631.296 171.26 631.162 171.38C631.042 171.487 630.862 171.54 630.622 171.54H623.782V170.38H630.162L629.822 170.66C629.822 169.967 629.716 169.38 629.502 168.9C629.302 168.407 629.002 168.033 628.602 167.78C628.216 167.527 627.729 167.4 627.142 167.4C626.502 167.4 625.956 167.553 625.502 167.86C625.049 168.153 624.702 168.573 624.462 169.12C624.222 169.653 624.102 170.273 624.102 170.98V171.1C624.102 172.3 624.389 173.207 624.962 173.82C625.536 174.433 626.362 174.74 627.442 174.74C627.869 174.74 628.302 174.687 628.742 174.58C629.196 174.473 629.629 174.28 630.042 174C630.242 173.88 630.422 173.827 630.582 173.84C630.756 173.84 630.896 173.893 631.002 174C631.109 174.093 631.176 174.213 631.202 174.36C631.229 174.493 631.209 174.64 631.142 174.8C631.076 174.96 630.949 175.1 630.762 175.22C630.322 175.527 629.796 175.767 629.182 175.94C628.582 176.1 628.002 176.18 627.442 176.18Z" fill="white"/>
<g filter="url(#filter1_d_2009_321)">
<path d="M47.0777 124.586C-12.9742 158.91 -3.0573 206.474 50.067 222.356C103.191 238.238 229.173 236.654 303.211 203.411" stroke="white" stroke-width="3"/>
</g>
<g filter="url(#filter2_d_2009_321)">
<path d="M525.97 74.2581C590.15 50.5655 746.782 36.8915 785.658 58.9446C824.535 80.9976 823.739 128.948 770.353 155.4C742.99 169.279 725.623 174.229 690.97 177.758" stroke="white" stroke-width="3"/>
</g>
<path d="M253.34 178.826C253.643 179.212 253.832 179.677 253.886 180.166C253.939 180.656 253.855 181.15 253.642 181.594C253.43 182.032 253.101 182.401 252.69 182.658C252.279 182.915 251.805 183.051 251.322 183.048H246.96C246.147 183.048 245.342 182.875 244.6 182.542C243.857 182.208 243.192 181.721 242.648 181.112C242.105 180.503 241.694 179.785 241.444 179.006C241.193 178.227 241.109 177.403 241.195 176.589L228.661 165.014C228.217 164.612 227.86 164.124 227.61 163.579C227.36 163.033 227.223 162.442 227.207 161.842C227.192 161.241 227.298 160.644 227.519 160.086C227.741 159.529 228.073 159.022 228.495 158.598C228.917 158.173 229.421 157.84 229.975 157.618C230.529 157.396 231.123 157.291 231.719 157.308C232.315 157.324 232.902 157.463 233.443 157.716C233.985 157.968 234.469 158.33 234.867 158.777L246.38 171.403C247.186 171.321 248 171.411 248.77 171.665C249.539 171.92 250.248 172.334 250.849 172.881C251.45 173.428 251.93 174.095 252.259 174.841C252.589 175.586 252.759 176.392 252.76 177.208C252.76 177.799 252.965 178.371 253.34 178.826ZM233.156 160.36C232.975 160.129 232.748 159.94 232.49 159.804C232.231 159.668 231.947 159.589 231.656 159.572C231.365 159.555 231.074 159.6 230.801 159.704C230.529 159.809 230.281 159.97 230.075 160.177C229.869 160.385 229.709 160.634 229.605 160.909C229.501 161.183 229.457 161.476 229.474 161.769C229.491 162.062 229.569 162.349 229.704 162.609C229.839 162.869 230.027 163.098 230.256 163.28L242.013 174.165C242.494 173.369 243.159 172.7 243.95 172.215L233.156 160.36ZM251.525 180.268C250.823 179.405 250.44 178.323 250.44 177.208C250.44 176.682 250.322 176.162 250.095 175.688C249.868 175.214 249.538 174.797 249.129 174.469C248.516 173.969 247.749 173.698 246.96 173.704C246.677 173.702 246.394 173.736 246.119 173.803C245.5 173.952 244.934 174.27 244.483 174.722C244.033 175.175 243.716 175.744 243.567 176.367C243.44 176.889 243.433 177.433 243.548 177.957C243.662 178.482 243.895 178.973 244.228 179.392C244.555 179.805 244.971 180.139 245.444 180.367C245.917 180.596 246.435 180.714 246.96 180.712H251.327C251.376 180.715 251.424 180.703 251.465 180.678C251.506 180.653 251.539 180.616 251.559 180.572C251.584 180.523 251.594 180.469 251.588 180.415C251.582 180.361 251.56 180.31 251.525 180.268Z" fill="white"/>
<path d="M252.28 160.856C252.588 160.856 252.883 160.979 253.1 161.198C253.318 161.417 253.44 161.714 253.44 162.024V163.192H254.6C254.908 163.192 255.203 163.315 255.42 163.534C255.638 163.753 255.76 164.05 255.76 164.36C255.76 164.67 255.638 164.967 255.42 165.186C255.203 165.405 254.908 165.528 254.6 165.528H253.44V166.696C253.44 167.006 253.318 167.303 253.1 167.522C252.883 167.741 252.588 167.864 252.28 167.864C251.972 167.864 251.677 167.741 251.46 167.522C251.242 167.303 251.12 167.006 251.12 166.696V165.528H249.96C249.652 165.528 249.357 165.405 249.14 165.186C248.922 164.967 248.8 164.67 248.8 164.36C248.8 164.05 248.922 163.753 249.14 163.534C249.357 163.315 249.652 163.192 249.96 163.192H251.12V162.024C251.12 161.714 251.242 161.417 251.46 161.198C251.677 160.979 251.972 160.856 252.28 160.856Z" fill="white"/>
<path d="M226.08 177.04C226.08 176.73 226.202 176.433 226.42 176.214C226.637 175.995 226.932 175.872 227.24 175.872H229.56V173.536C229.56 173.226 229.682 172.929 229.9 172.71C230.117 172.491 230.412 172.368 230.72 172.368C231.028 172.368 231.323 172.491 231.54 172.71C231.758 172.929 231.88 173.226 231.88 173.536V175.872H234.2C234.508 175.872 234.803 175.995 235.02 176.214C235.238 176.433 235.36 176.73 235.36 177.04C235.36 177.35 235.238 177.647 235.02 177.866C234.803 178.085 234.508 178.208 234.2 178.208H231.88V180.544C231.88 180.854 231.758 181.151 231.54 181.37C231.323 181.589 231.028 181.712 230.72 181.712C230.412 181.712 230.117 181.589 229.9 181.37C229.682 181.151 229.56 180.854 229.56 180.544V178.208H227.24C226.932 178.208 226.637 178.085 226.42 177.866C226.202 177.647 226.08 177.35 226.08 177.04Z" fill="white"/>
<path d="M242.752 158.856C241.791 158.856 241.012 158.072 241.012 157.104C241.012 156.136 241.791 155.352 242.752 155.352C243.713 155.352 244.492 156.136 244.492 157.104C244.492 158.072 243.713 158.856 242.752 158.856Z" fill="white"/>
<defs>
<filter id="filter0_d_2009_321" x="59.1399" y="80.7" width="674.293" height="69.5601" filterUnits="userSpaceOnUse" color-interpolation-filters="sRGB">
<feFlood flood-opacity="0" result="BackgroundImageFix"/>
<feColorMatrix in="SourceAlpha" type="matrix" values="0 0 0 0 0 0 0 0 0 0 0 0 0 0 0 0 0 0 127 0" result="hardAlpha"/>
<feOffset dy="4"/>
<feGaussianBlur stdDeviation="2"/>
<feComposite in2="hardAlpha" operator="out"/>
<feColorMatrix type="matrix" values="0 0 0 0 0 0 0 0 0 0 0 0 0 0 0 0 0 0 0.25 0"/>
<feBlend mode="normal" in2="BackgroundImageFix" result="effect1_dropShadow_2009_321"/>
<feBlend mode="normal" in="SourceGraphic" in2="effect1_dropShadow_2009_321" result="shape"/>
</filter>
<filter id="filter1_d_2009_321" x="0.493164" y="123.284" width="307.333" height="118.343" filterUnits="userSpaceOnUse" color-interpolation-filters="sRGB">
<feFlood flood-opacity="0" result="BackgroundImageFix"/>
<feColorMatrix in="SourceAlpha" type="matrix" values="0 0 0 0 0 0 0 0 0 0 0 0 0 0 0 0 0 0 127 0" result="hardAlpha"/>
<feOffset dy="4"/>
<feGaussianBlur stdDeviation="2"/>
<feComposite in2="hardAlpha" operator="out"/>
<feColorMatrix type="matrix" values="0 0 0 0 0 0 0 0 0 0 0 0 0 0 0 0 0 0 0.25 0"/>
<feBlend mode="normal" in2="BackgroundImageFix" result="effect1_dropShadow_2009_321"/>
<feBlend mode="normal" in="SourceGraphic" in2="effect1_dropShadow_2009_321" result="shape"/>
</filter>
<filter id="filter2_d_2009_321" x="521.45" y="46.3153" width="296.919" height="140.935" filterUnits="userSpaceOnUse" color-interpolation-filters="sRGB">
<feFlood flood-opacity="0" result="BackgroundImageFix"/>
<feColorMatrix in="SourceAlpha" type="matrix" values="0 0 0 0 0 0 0 0 0 0 0 0 0 0 0 0 0 0 127 0" result="hardAlpha"/>
<feOffset dy="4"/>
<feGaussianBlur stdDeviation="2"/>
<feComposite in2="hardAlpha" operator="out"/>
<feColorMatrix type="matrix" values="0 0 0 0 0 0 0 0 0 0 0 0 0 0 0 0 0 0 0.25 0"/>
<feBlend mode="normal" in2="BackgroundImageFix" result="effect1_dropShadow_2009_321"/>
<feBlend mode="normal" in="SourceGraphic" in2="effect1_dropShadow_2009_321" result="shape"/>
</filter>
</defs>
</svg>
