<svg width="63" height="61" viewBox="0 0 63 61" fill="none" xmlns="http://www.w3.org/2000/svg">
<path d="M25.4931 35.7017C22.7897 41.5137 24.57 48.8623 24.6359 49.1963C24.7678 49.7975 25.1634 50.332 25.6909 50.666C26.0206 50.8664 26.4822 51 26.8778 51C27.0756 51 27.2734 51 27.4053 50.9332C27.5372 50.8664 27.735 50.7996 27.8669 50.7996C27.9328 50.7328 34.8562 47.3257 37.6256 41.5137C38.5487 39.4428 38.4169 37.0378 37.2959 35.1005C40.5928 29.422 51.4066 6.77521 51.5384 6.50799C51.5384 6.50799 51.5384 6.44118 51.6044 6.44118C52.1319 5.30549 52.1319 4.03619 51.6044 2.90051C51.1428 1.76482 50.2197 0.89637 49.0987 0.361931C46.9228 -0.573337 44.3512 0.361939 43.2303 2.49969C43.0984 2.70011 32.8122 25.681 30.5703 31.8938C28.3944 32.2279 26.4822 33.6307 25.4931 35.7017ZM46.1316 3.90258C46.4612 3.23453 47.2525 2.96731 47.9119 3.23453C48.2416 3.36814 48.5712 3.63537 48.7031 4.0362C48.835 4.37022 48.835 4.77106 48.7031 5.10508C47.3184 7.97769 37.6256 28.0859 34.8562 33.0295L33.7353 32.4951C35.7794 27.0839 45.4722 5.30548 46.1316 3.90258ZM28.3944 37.1046C28.9219 35.9021 30.1747 35.1005 31.4275 35.1005L34.4606 36.5034C35.2519 37.5722 35.3837 38.9083 34.8562 40.1776C33.2078 43.7183 29.3834 46.3237 27.6031 47.3925C27.2734 45.188 26.7459 40.5785 28.3944 37.1046Z" fill="white"/>
<path d="M53.781 25.0801C53.0518 24.547 52.0574 24.7469 51.527 25.4133C50.9967 26.1464 51.1956 27.146 51.8585 27.6125C57.6261 31.8109 59.6812 35.3429 59.6812 37.2756V37.3422C59.7475 37.942 59.416 38.5417 58.9519 39.0082C58.4216 39.4747 56.3002 39.8746 54.8417 40.1411C52.8529 40.541 51.1293 40.8742 50.1349 41.6073C47.682 43.5399 46.6876 45.939 45.8258 48.1381C45.0966 49.9375 44.4336 51.6035 42.9752 52.9363C40.7875 54.869 36.2795 56.535 31.2412 57.2681C27.9928 57.8012 24.8107 57.8012 21.6949 57.4013C10.7565 55.8019 2.86752 48.6046 3.19899 40.8076C3.53045 33.3437 11.6846 25.6799 22.0264 22.9476C23.6174 22.5477 25.3411 22.2812 26.9984 22.2145C27.9265 22.1479 28.5894 21.4148 28.5232 20.4818C28.4569 19.6155 27.6613 18.8824 26.7995 19.0157C24.9433 19.149 23.0871 19.4156 21.2309 19.8821C9.56317 22.9476 0.480946 31.8109 0.0168907 40.6743C-0.447165 50.204 8.70136 58.7342 21.2309 60.6668C22.8219 60.8667 24.4792 61 26.1366 61C27.9928 61 29.849 60.8667 31.7052 60.6001C37.4065 59.8004 42.4448 57.8678 45.0966 55.4687C47.0854 53.6694 47.9472 51.4702 48.809 49.471C49.6708 47.4717 50.4 45.6724 52.19 44.2729C52.5877 43.9397 54.3777 43.6065 55.5047 43.4066C57.6923 43.0067 59.8137 42.6069 61.0733 41.5406C62.3329 40.4077 63.0621 38.875 62.9958 37.2756C62.8633 33.6769 59.5486 29.3452 53.781 25.0801Z" fill="white"/>
</svg>
