<svg width="27" height="27" viewBox="0 0 27 27" fill="none" xmlns="http://www.w3.org/2000/svg">
<path d="M26.3399 21.8255C26.6433 22.2118 26.8325 22.6764 26.8858 23.166C26.9392 23.6555 26.8545 24.1503 26.6415 24.5937C26.4304 25.0317 26.1005 25.4007 25.69 25.658C25.2795 25.9153 24.8051 26.0504 24.3215 26.0478H19.9599C19.1466 26.0475 18.3424 25.875 17.5996 25.5414C16.8567 25.2078 16.1919 24.7207 15.6482 24.1116C15.1045 23.5024 14.6942 22.785 14.4438 22.0058C14.1934 21.2266 14.1085 20.4031 14.1947 19.5888L1.66092 8.01391C1.21734 7.61231 0.859692 7.1239 0.609798 6.5785C0.359905 6.0331 0.223009 5.44215 0.207468 4.84171C0.191929 4.24127 0.298071 3.64394 0.519413 3.08617C0.740755 2.52841 1.07266 2.02191 1.49486 1.59759C1.91707 1.17327 2.42072 0.840022 2.97508 0.618197C3.52943 0.396372 4.12287 0.290617 4.71917 0.307388C5.31547 0.324158 5.90211 0.463101 6.44331 0.715738C6.98451 0.968375 7.4689 1.32941 7.86692 1.7768L19.3799 14.4029C20.186 14.3213 21 14.4107 21.7697 14.6652C22.5393 14.9197 23.2475 15.3337 23.8486 15.8806C24.4496 16.4275 24.9302 17.0951 25.2594 17.8404C25.5886 18.5857 25.7591 19.3921 25.7599 20.2078C25.7601 20.7986 25.9652 21.3708 26.3399 21.8255ZM6.15592 3.35944C5.97531 3.12899 5.74828 2.93967 5.48977 2.80393C5.23126 2.6682 4.94713 2.58912 4.65608 2.57191C4.36503 2.55471 4.07366 2.59975 3.80115 2.70409C3.52864 2.80843 3.28117 2.9697 3.07501 3.17727C2.86885 3.38485 2.70869 3.63404 2.60507 3.90843C2.50144 4.18282 2.4567 4.4762 2.47379 4.76925C2.49088 5.06231 2.56942 5.34839 2.70422 5.60869C2.83903 5.86898 3.02705 6.09758 3.25592 6.27944L15.0125 17.1652C15.4943 16.3686 16.1586 15.6997 16.9497 15.2146L6.15592 3.35944ZM24.5245 23.268C23.8233 22.4044 23.4401 21.3233 23.4399 20.2078C23.4398 19.6815 23.3219 19.1619 23.0949 18.6877C22.868 18.2136 22.5379 17.797 22.1291 17.4689C21.516 16.9684 20.7492 16.698 19.9599 16.7038C19.6766 16.7023 19.3942 16.7357 19.1189 16.8031C18.4999 16.9515 17.9338 17.2696 17.4833 17.7221C17.0329 18.1746 16.7157 18.7439 16.5669 19.3669C16.4395 19.8884 16.4329 20.4325 16.5475 20.957C16.6622 21.4815 16.895 21.9725 17.2281 22.392C17.5552 22.8051 17.9708 23.1384 18.4439 23.367C18.9169 23.5956 19.4352 23.7134 19.9599 23.7118H24.3273C24.3756 23.715 24.4236 23.7033 24.465 23.6782C24.5065 23.6532 24.5394 23.616 24.5593 23.5717C24.5841 23.5233 24.594 23.4686 24.5878 23.4145C24.5816 23.3604 24.5596 23.3094 24.5245 23.268Z" fill="white"/>
</svg>
