<svg width="58" height="73" viewBox="0 0 58 73" fill="none" xmlns="http://www.w3.org/2000/svg">
<path d="M43.3399 37.8256C43.6433 38.212 43.8325 38.6765 43.8858 39.1661C43.9392 39.6556 43.8545 40.1504 43.6415 40.5938C43.4304 41.0318 43.1005 41.4008 42.69 41.6581C42.2795 41.9154 41.8051 42.0506 41.3215 42.048H36.9599C36.1466 42.0477 35.3424 41.8751 34.5996 41.5415C33.8567 41.2079 33.1919 40.7208 32.6482 40.1117C32.1045 39.5026 31.6942 38.7851 31.4438 38.0059C31.1934 37.2268 31.1085 36.4033 31.1947 35.5889L18.6609 24.014C18.2173 23.6124 17.8597 23.124 17.6098 22.5786C17.3599 22.0332 17.223 21.4423 17.2075 20.8418C17.1919 20.2414 17.2981 19.6441 17.5194 19.0863C17.7408 18.5285 18.0727 18.022 18.4949 17.5977C18.9171 17.1734 19.4207 16.8401 19.9751 16.6183C20.5294 16.3965 21.1229 16.2907 21.7192 16.3075C22.3155 16.3243 22.9021 16.4632 23.4433 16.7159C23.9845 16.9685 24.4689 17.3295 24.8669 17.7769L36.3799 30.403C37.186 30.3214 38 30.4108 38.7697 30.6653C39.5393 30.9198 40.2475 31.3338 40.8486 31.8807C41.4496 32.4276 41.9302 33.0952 42.2594 33.8405C42.5886 34.5858 42.7591 35.3923 42.7599 36.208C42.7601 36.7988 42.9652 37.371 43.3399 37.8256ZM23.1559 19.3596C22.9753 19.1291 22.7483 18.9398 22.4898 18.8041C22.2313 18.6683 21.9471 18.5892 21.6561 18.572C21.365 18.5548 21.0737 18.5999 20.8012 18.7042C20.5286 18.8086 20.2812 18.9698 20.075 19.1774C19.8689 19.385 19.7087 19.6342 19.6051 19.9086C19.5014 20.1829 19.4567 20.4763 19.4738 20.7694C19.4909 21.0624 19.5694 21.3485 19.7042 21.6088C19.839 21.8691 20.0271 22.0977 20.2559 22.2796L32.0125 33.1653C32.4943 32.3687 33.1586 31.6999 33.9497 31.2148L23.1559 19.3596ZM41.5245 39.2681C40.8233 38.4046 40.4401 37.3234 40.4399 36.208C40.4398 35.6816 40.3219 35.162 40.0949 34.6879C39.868 34.2137 39.5379 33.7971 39.1291 33.469C38.516 32.9685 37.7492 32.6981 36.9599 32.704C36.6766 32.7025 36.3942 32.7358 36.1189 32.8032C35.4999 32.9516 34.9338 33.2697 34.4833 33.7222C34.0329 34.1747 33.7157 34.744 33.5669 35.367C33.4395 35.8885 33.4329 36.4326 33.5475 36.9571C33.6622 37.4816 33.895 37.9726 34.2281 38.3921C34.5552 38.8052 34.9708 39.1386 35.4439 39.3671C35.9169 39.5957 36.4352 39.7136 36.9599 39.712H41.3273C41.3756 39.7151 41.4236 39.7034 41.465 39.6783C41.5065 39.6533 41.5394 39.6161 41.5593 39.5718C41.5841 39.5234 41.594 39.4687 41.5878 39.4146C41.5816 39.3606 41.5596 39.3096 41.5245 39.2681Z" fill="white"/>
<path d="M42.28 19.856C42.5877 19.856 42.8827 19.979 43.1003 20.1981C43.3178 20.4171 43.44 20.7142 43.44 21.024V22.192H44.6C44.9077 22.192 45.2027 22.315 45.4203 22.5341C45.6378 22.7531 45.76 23.0502 45.76 23.36C45.76 23.6697 45.6378 23.9668 45.4203 24.1859C45.2027 24.4049 44.9077 24.528 44.6 24.528H43.44V25.696C43.44 26.0057 43.3178 26.3028 43.1003 26.5219C42.8827 26.7409 42.5877 26.864 42.28 26.864C41.9724 26.864 41.6773 26.7409 41.4598 26.5219C41.2422 26.3028 41.12 26.0057 41.12 25.696V24.528H39.96C39.6524 24.528 39.3573 24.4049 39.1398 24.1859C38.9222 23.9668 38.8 23.6697 38.8 23.36C38.8 23.0502 38.9222 22.7531 39.1398 22.5341C39.3573 22.315 39.6524 22.192 39.96 22.192H41.12V21.024C41.12 20.7142 41.2422 20.4171 41.4598 20.1981C41.6773 19.979 41.9724 19.856 42.28 19.856Z" fill="white"/>
<path d="M16.0801 36.04C16.0801 35.7303 16.2023 35.4332 16.4199 35.2141C16.6374 34.9951 16.9325 34.872 17.2401 34.872H19.5601V32.536C19.5601 32.2263 19.6823 31.9292 19.8999 31.7101C20.1174 31.4911 20.4125 31.368 20.7201 31.368C21.0278 31.368 21.3228 31.4911 21.5404 31.7101C21.7579 31.9292 21.8801 32.2263 21.8801 32.536V34.872H24.2001C24.5078 34.872 24.8028 34.9951 25.0204 35.2141C25.2379 35.4332 25.3601 35.7303 25.3601 36.04C25.3601 36.3498 25.2379 36.6469 25.0204 36.8659C24.8028 37.085 24.5078 37.208 24.2001 37.208H21.8801V39.544C21.8801 39.8538 21.7579 40.1509 21.5404 40.3699C21.3228 40.589 21.0278 40.712 20.7201 40.712C20.4125 40.712 20.1174 40.589 19.8999 40.3699C19.6823 40.1509 19.5601 39.8538 19.5601 39.544V37.208H17.2401C16.9325 37.208 16.6374 37.085 16.4199 36.8659C16.2023 36.6469 16.0801 36.3498 16.0801 36.04Z" fill="white"/>
<path d="M32.7517 17.8561C31.7907 17.8561 31.0117 17.0717 31.0117 16.1041C31.0117 15.1364 31.7907 14.3521 32.7517 14.3521C33.7127 14.3521 34.4917 15.1364 34.4917 16.1041C34.4917 17.0717 33.7127 17.8561 32.7517 17.8561Z" fill="white"/>
</svg>