<svg width="620" height="515" viewBox="0 0 620 515" fill="none" xmlns="http://www.w3.org/2000/svg">
<g filter="url(#filter0_d_0_1)">
<rect x="374.925" y="124.203" width="81.078" height="23.1837" rx="11.5918" transform="rotate(90 374.925 124.203)" fill="url(#paint0_linear_0_1)" stroke="black"/>
<rect x="346.819" y="144.824" width="81.078" height="23.1837" rx="11.5918" transform="rotate(116.08 346.819 144.824)" fill="url(#paint1_linear_0_1)" stroke="black"/>
<rect x="0.668905" y="0.229273" width="81.078" height="23.1837" rx="11.5918" transform="matrix(0.439632 0.898178 0.898178 -0.439632 379.258 144.324)" fill="url(#paint2_linear_0_1)" stroke="black"/>
<rect x="381.521" y="381.43" width="81.078" height="35.642" rx="17.821" transform="rotate(90 381.521 381.43)" fill="url(#paint3_linear_0_1)" stroke="black"/>
<rect x="310.965" y="401.33" width="106.122" height="35.642" rx="17.821" transform="rotate(110.409 310.965 401.33)" fill="url(#paint4_linear_0_1)" stroke="black"/>
<rect x="0.642974" y="0.294253" width="106.122" height="35.642" rx="17.821" transform="matrix(0.348721 0.937227 0.937227 -0.348721 415.874 400.83)" fill="url(#paint5_linear_0_1)" stroke="black"/>
<rect x="255.74" y="165.242" width="215.188" height="215.188" rx="29.5" fill="white" stroke="black"/>
<rect x="219.098" y="381.43" width="288.471" height="31.2449" rx="15.6225" fill="url(#paint6_linear_0_1)" stroke="black"/>
</g>
<g filter="url(#filter1_f_0_1)">
<mask id="path-9-inside-1_0_1" fill="white">
<path fill-rule="evenodd" clip-rule="evenodd" d="M58.6538 43.1032C57.4292 38.8163 53.4361 36.09 49.2565 36.4013C50.0073 34.548 50.1659 32.4231 49.5682 30.3308C48.1714 25.4414 43.1734 22.5821 38.4047 23.9444C35.3645 24.8129 33.1515 27.1877 32.3086 30.0621C28.5897 26.793 22.9956 26.8809 19.561 30.3559C15.9945 33.9645 16.1074 39.859 19.8133 43.5218C20.1312 43.836 20.4651 44.1235 20.8123 44.3844C20.0518 44.7962 19.34 45.3244 18.7025 45.9694C15.1359 49.578 15.2489 55.4726 18.9548 59.1353C22.3054 62.447 27.446 62.8004 31.0368 60.1706C32.7418 65.1136 37.7569 67.9872 42.5009 66.632C47.3826 65.2375 50.1427 59.8889 48.7106 54.646C49.9563 54.8506 51.2607 54.7906 52.5484 54.4228C57.3171 53.0605 60.0506 47.9925 58.6538 43.1032Z"/>
</mask>
<path fill-rule="evenodd" clip-rule="evenodd" d="M58.6538 43.1032C57.4292 38.8163 53.4361 36.09 49.2565 36.4013C50.0073 34.548 50.1659 32.4231 49.5682 30.3308C48.1714 25.4414 43.1734 22.5821 38.4047 23.9444C35.3645 24.8129 33.1515 27.1877 32.3086 30.0621C28.5897 26.793 22.9956 26.8809 19.561 30.3559C15.9945 33.9645 16.1074 39.859 19.8133 43.5218C20.1312 43.836 20.4651 44.1235 20.8123 44.3844C20.0518 44.7962 19.34 45.3244 18.7025 45.9694C15.1359 49.578 15.2489 55.4726 18.9548 59.1353C22.3054 62.447 27.446 62.8004 31.0368 60.1706C32.7418 65.1136 37.7569 67.9872 42.5009 66.632C47.3826 65.2375 50.1427 59.8889 48.7106 54.646C49.9563 54.8506 51.2607 54.7906 52.5484 54.4228C57.3171 53.0605 60.0506 47.9925 58.6538 43.1032Z" fill="#5F60D1" fill-opacity="0.15"/>
<path d="M49.2565 36.4013L47.4028 35.6504L46.1938 38.6351L49.4051 38.3958L49.2565 36.4013ZM32.3086 30.0621L30.9881 31.5642L33.3449 33.6359L34.2278 30.6248L32.3086 30.0621ZM19.561 30.3559L18.1386 28.95L18.1386 28.95L19.561 30.3559ZM19.8133 43.5218L18.4074 44.9443L18.4074 44.9443L19.8133 43.5218ZM20.8123 44.3844L21.7647 46.1431L24.5064 44.6584L22.0137 42.7854L20.8123 44.3844ZM18.7025 45.9694L20.125 47.3753L20.125 47.3753L18.7025 45.9694ZM18.9548 59.1353L17.5489 60.5578L17.5489 60.5578L18.9548 59.1353ZM31.0368 60.1706L32.9275 59.5185L32.0431 56.9546L29.8551 58.5571L31.0368 60.1706ZM48.7106 54.646L49.0348 52.6724L45.9604 52.1674L46.7813 55.173L48.7106 54.646ZM49.4051 38.3958C52.6239 38.156 55.7625 40.2631 56.7307 43.6525L60.5769 42.5538C59.0959 37.3694 54.2484 34.0239 49.1079 34.4069L49.4051 38.3958ZM47.6451 30.8802C48.1172 32.5326 47.9903 34.2002 47.4028 35.6504L51.1102 37.1523C52.0242 34.8959 52.2146 32.3135 51.4913 29.7815L47.6451 30.8802ZM38.9541 25.8675C42.6156 24.8215 46.5387 27.0073 47.6451 30.8802L51.4913 29.7815C49.8041 23.8756 43.7312 20.3428 37.8554 22.0213L38.9541 25.8675ZM34.2278 30.6248C34.8901 28.3662 36.6151 26.5356 38.9541 25.8675L37.8554 22.0213C34.1138 23.0902 31.4128 26.0091 30.3894 29.4993L34.2278 30.6248ZM20.9835 31.7618C23.637 29.0771 28.0253 28.9597 30.9881 31.5642L33.6291 28.56C29.1542 24.6264 22.3541 24.6848 18.1386 28.95L20.9835 31.7618ZM21.2192 42.0993C18.263 39.1775 18.2284 34.5493 20.9835 31.7618L18.1386 28.95C13.7605 33.3796 13.9518 40.5405 18.4074 44.9443L21.2192 42.0993ZM22.0137 42.7854C21.7384 42.5786 21.4728 42.35 21.2192 42.0993L18.4074 44.9443C18.7895 45.3219 19.1918 45.6684 19.6109 45.9833L22.0137 42.7854ZM20.125 47.3753C20.6222 46.8722 21.1752 46.4623 21.7647 46.1431L19.86 42.6257C18.9285 43.1301 18.0577 43.7766 17.28 44.5635L20.125 47.3753ZM20.3607 57.7129C17.4045 54.7911 17.3699 50.1628 20.125 47.3753L17.28 44.5635C12.902 48.9931 13.0933 56.1541 17.5489 60.5578L20.3607 57.7129ZM29.8551 58.5571C27.0757 60.5926 23.0296 60.3507 20.3607 57.7129L17.5489 60.5578C21.5812 64.5432 27.8162 65.0082 32.2185 61.7842L29.8551 58.5571ZM41.9515 64.709C38.3514 65.7374 34.3289 63.5813 32.9275 59.5185L29.1461 60.8228C31.1547 66.6458 37.1624 70.2371 43.0502 68.5551L41.9515 64.709ZM46.7813 55.173C47.9603 59.4896 45.6544 63.6512 41.9515 64.709L43.0502 68.5551C49.1107 66.8238 52.325 60.2883 50.64 54.119L46.7813 55.173ZM51.9991 52.4997C51.0023 52.7844 49.9965 52.8304 49.0348 52.6724L48.3864 56.6195C49.9162 56.8708 51.5192 56.7968 53.0978 56.3458L51.9991 52.4997ZM56.7307 43.6525C57.8371 47.5254 55.6606 51.4537 51.9991 52.4997L53.0978 56.3458C58.9736 54.6673 62.264 48.4597 60.5769 42.5538L56.7307 43.6525Z" fill="white" mask="url(#path-9-inside-1_0_1)"/>
</g>
<g filter="url(#filter2_f_0_1)">
<path fill-rule="evenodd" clip-rule="evenodd" d="M70.1663 32.4181C71.7752 32.6177 73.2553 31.6689 73.7454 30.2259C74.2589 30.7404 74.9474 31.0954 75.7324 31.1927C77.5675 31.4204 79.2351 30.154 79.4571 28.3642C79.5986 27.2233 79.1186 26.1452 78.2767 25.4544C79.8996 24.6745 80.6655 22.7895 79.9907 21.1459C79.2899 19.4391 77.3009 18.6389 75.5481 19.3586C75.3978 19.4203 75.2541 19.4911 75.1175 19.5702C75.0878 19.257 75.0121 18.9434 74.8868 18.6382C74.186 16.9314 72.197 16.1312 70.4442 16.8508C68.8593 17.5015 68.0102 19.1721 68.38 20.7479C66.483 20.6156 64.8079 21.8858 64.5871 23.6664C64.3598 25.4987 65.7578 27.1831 67.7165 27.449C67.4709 27.8369 67.3055 28.282 67.2456 28.7653C67.0236 30.5551 68.3312 32.1905 70.1663 32.4181Z" fill="#D691D2" fill-opacity="0.25"/>
</g>
<g filter="url(#filter3_f_0_1)">
<circle cx="73.5352" cy="52.1069" r="5.25663" transform="rotate(-164.038 73.5352 52.1069)" fill="#EBB2C3" fill-opacity="0.25"/>
</g>
<g filter="url(#filter4_f_0_1)">
<mask id="path-13-inside-2_0_1" fill="white">
<path fill-rule="evenodd" clip-rule="evenodd" d="M544.248 215.454C542.698 219.396 544.138 223.757 547.472 225.934C545.836 226.899 544.49 228.411 543.733 230.334C541.966 234.829 544.087 239.871 548.471 241.595C551.266 242.694 554.306 242.179 556.6 240.497C557.52 245.109 561.792 248.27 566.388 247.63C571.161 246.966 574.477 242.453 573.795 237.551C573.736 237.131 573.65 236.721 573.539 236.324C574.351 236.452 575.193 236.465 576.046 236.346C580.819 235.681 584.136 231.168 583.453 226.266C582.836 221.834 579.161 218.601 574.934 218.513C576.5 213.8 574.374 208.737 570.012 207.022C565.524 205.258 560.356 207.701 558.411 212.483C557.589 211.609 556.57 210.902 555.386 210.437C551.002 208.713 546.015 210.959 544.248 215.454Z"/>
</mask>
<path fill-rule="evenodd" clip-rule="evenodd" d="M544.248 215.454C542.698 219.396 544.138 223.757 547.472 225.934C545.836 226.899 544.49 228.411 543.733 230.334C541.966 234.829 544.087 239.871 548.471 241.595C551.266 242.694 554.306 242.179 556.6 240.497C557.52 245.109 561.792 248.27 566.388 247.63C571.161 246.966 574.477 242.453 573.795 237.551C573.736 237.131 573.65 236.721 573.539 236.324C574.351 236.452 575.193 236.465 576.046 236.346C580.819 235.681 584.136 231.168 583.453 226.266C582.836 221.834 579.161 218.601 574.934 218.513C576.5 213.8 574.374 208.737 570.012 207.022C565.524 205.258 560.356 207.701 558.411 212.483C557.589 211.609 556.57 210.902 555.386 210.437C551.002 208.713 546.015 210.959 544.248 215.454Z" fill="#5F60D1" fill-opacity="0.15"/>
<path d="M547.472 225.934L548.488 227.657L551.262 226.02L548.565 224.259L547.472 225.934ZM556.6 240.497L558.562 240.106L557.948 237.029L555.418 238.884L556.6 240.497ZM566.388 247.63L566.112 245.649L566.112 245.649L566.388 247.63ZM573.795 237.551L571.814 237.827L571.814 237.827L573.795 237.551ZM573.539 236.324L573.851 234.349L570.771 233.862L571.613 236.864L573.539 236.324ZM576.046 236.346L576.322 238.327L576.322 238.327L576.046 236.346ZM583.453 226.266L581.472 226.542L581.472 226.542L583.453 226.266ZM574.934 218.513L573.036 217.883L572.18 220.457L574.892 220.513L574.934 218.513ZM558.411 212.483L556.954 213.853L559.09 216.122L560.263 213.236L558.411 212.483ZM548.565 224.259C546.038 222.609 544.901 219.259 546.109 216.186L542.386 214.722C540.495 219.533 542.238 224.905 546.378 227.609L548.565 224.259ZM545.595 231.066C546.184 229.568 547.226 228.401 548.488 227.657L546.455 224.211C544.445 225.397 542.796 227.253 541.872 229.603L545.595 231.066ZM549.203 239.734C545.89 238.431 544.214 234.578 545.595 231.066L541.872 229.603C539.718 235.081 542.284 241.311 547.739 243.456L549.203 239.734ZM555.418 238.884C553.641 240.187 551.319 240.566 549.203 239.734L547.739 243.456C551.213 244.822 554.971 244.172 557.783 242.11L555.418 238.884ZM566.112 245.649C562.616 246.136 559.285 243.731 558.562 240.106L554.639 240.888C555.756 246.487 560.967 250.404 566.664 249.611L566.112 245.649ZM571.814 237.827C572.351 241.685 569.742 245.144 566.112 245.649L566.664 249.611C572.58 248.787 576.604 243.221 575.776 237.275L571.814 237.827ZM571.613 236.864C571.7 237.175 571.768 237.496 571.814 237.827L575.776 237.275C575.705 236.765 575.6 236.268 575.465 235.784L571.613 236.864ZM575.77 234.365C575.115 234.456 574.471 234.446 573.851 234.349L573.227 238.3C574.231 238.458 575.271 238.473 576.322 238.327L575.77 234.365ZM581.472 226.542C582.009 230.4 579.4 233.859 575.77 234.365L576.322 238.327C582.239 237.503 586.262 231.937 585.434 225.991L581.472 226.542ZM574.892 220.513C578.114 220.58 580.987 223.059 581.472 226.542L585.434 225.991C584.685 220.609 580.208 216.622 574.975 216.514L574.892 220.513ZM569.281 208.884C572.535 210.163 574.308 214.053 573.036 217.883L576.832 219.144C578.691 213.547 576.213 207.312 570.744 205.161L569.281 208.884ZM560.263 213.236C561.846 209.344 565.934 207.568 569.281 208.884L570.744 205.161C565.115 202.948 558.865 206.058 556.558 211.729L560.263 213.236ZM554.654 212.298C555.557 212.653 556.33 213.19 556.954 213.853L559.867 211.112C558.848 210.029 557.583 209.151 556.118 208.575L554.654 212.298ZM546.109 216.186C547.49 212.675 551.342 210.995 554.654 212.298L556.118 208.575C550.662 206.43 544.541 209.243 542.386 214.722L546.109 216.186Z" fill="white" mask="url(#path-13-inside-2_0_1)"/>
</g>
<g filter="url(#filter5_f_0_1)">
<path fill-rule="evenodd" clip-rule="evenodd" d="M529.395 216.873C528.296 215.794 526.632 215.656 525.429 216.462C525.339 215.778 525.024 215.112 524.488 214.586C523.235 213.355 521.246 213.348 520.045 214.57C519.28 215.35 519.02 216.44 519.257 217.447C517.583 217.1 515.917 218.08 515.478 219.709C515.022 221.401 516.061 223.153 517.799 223.621C517.948 223.662 518.097 223.691 518.246 223.71C518.087 223.964 517.963 224.244 517.882 224.546C517.426 226.239 518.465 227.99 520.203 228.459C521.774 228.882 523.379 228.112 524.009 226.709C525.364 227.904 527.361 227.912 528.555 226.696C529.784 225.444 529.701 223.367 528.377 222.036C528.786 221.885 529.167 221.645 529.491 221.315C530.691 220.092 530.648 218.104 529.395 216.873Z" fill="#D691D2" fill-opacity="0.25"/>
</g>
<g filter="url(#filter6_f_0_1)">
<circle cx="538.215" cy="200.074" r="4.99315" transform="rotate(53.3704 538.215 200.074)" fill="#EBB2C3" fill-opacity="0.25"/>
</g>
<g filter="url(#filter7_d_0_1)">
<path d="M102.291 91.3296C99.4111 91.3296 96.8111 90.7096 94.4911 89.4696C92.1711 88.2296 90.3311 86.4696 88.9711 84.1896C87.6511 81.8696 86.9911 79.1496 86.9911 76.0296C86.9911 72.7096 87.6711 69.8096 89.0311 67.3296C90.4311 64.8096 92.2711 62.8696 94.5511 61.5096C96.8711 60.1096 99.3911 59.4096 102.111 59.4096C104.991 59.4096 107.571 60.0296 109.851 61.2696C112.131 62.5096 113.931 64.2896 115.251 66.6096C116.571 68.8896 117.231 71.6296 117.231 74.8296C117.231 78.1896 116.591 81.1096 115.311 83.5896C114.031 86.0696 112.271 87.9896 110.031 89.3496C107.791 90.6696 105.211 91.3296 102.291 91.3296ZM102.531 87.0696C104.131 87.0296 105.331 86.4696 106.131 85.3896C106.971 84.3096 107.551 82.9496 107.871 81.3096C108.191 79.6696 108.351 78.0096 108.351 76.3296C108.351 74.8496 108.231 73.3496 107.991 71.8296C107.791 70.3096 107.451 68.9296 106.971 67.6896C106.491 66.4496 105.831 65.4496 104.991 64.6896C104.191 63.9296 103.191 63.5696 101.991 63.6096C100.431 63.6496 99.1911 64.2096 98.2711 65.2896C97.3911 66.3696 96.7511 67.7296 96.3511 69.3696C95.9911 70.9696 95.8111 72.6496 95.8111 74.4096C95.8111 76.4496 96.0311 78.4496 96.4711 80.4096C96.9111 82.3696 97.6111 83.9896 98.5711 85.2696C99.5711 86.5096 100.891 87.1096 102.531 87.0696ZM172.275 91.3296C169.395 91.3296 166.795 90.7096 164.475 89.4696C162.155 88.2296 160.315 86.4696 158.955 84.1896C157.635 81.8696 156.975 79.1496 156.975 76.0296C156.975 72.7096 157.655 69.8096 159.015 67.3296C160.415 64.8096 162.255 62.8696 164.535 61.5096C166.855 60.1096 169.375 59.4096 172.095 59.4096C174.975 59.4096 177.555 60.0296 179.835 61.2696C182.115 62.5096 183.915 64.2896 185.235 66.6096C186.555 68.8896 187.215 71.6296 187.215 74.8296C187.215 78.1896 186.575 81.1096 185.295 83.5896C184.015 86.0696 182.255 87.9896 180.015 89.3496C177.775 90.6696 175.195 91.3296 172.275 91.3296ZM172.515 87.0696C174.115 87.0296 175.315 86.4696 176.115 85.3896C176.955 84.3096 177.535 82.9496 177.855 81.3096C178.175 79.6696 178.335 78.0096 178.335 76.3296C178.335 74.8496 178.215 73.3496 177.975 71.8296C177.775 70.3096 177.435 68.9296 176.955 67.6896C176.475 66.4496 175.815 65.4496 174.975 64.6896C174.175 63.9296 173.175 63.5696 171.975 63.6096C170.415 63.6496 169.175 64.2096 168.255 65.2896C167.375 66.3696 166.735 67.7296 166.335 69.3696C165.975 70.9696 165.795 72.6496 165.795 74.4096C165.795 76.4496 166.015 78.4496 166.455 80.4096C166.895 82.3696 167.595 83.9896 168.555 85.2696C169.555 86.5096 170.875 87.1096 172.515 87.0696ZM226.96 105.67V101.77C228.08 101.77 228.88 101.55 229.36 101.11C229.88 100.67 230.2 100.03 230.32 99.1896C230.48 98.3896 230.56 97.4696 230.56 96.4296V71.0496C230.56 70.3296 230.58 69.5296 230.62 68.6496C230.66 67.7296 230.72 66.8296 230.8 65.9496C230.16 65.9896 229.4 66.0296 228.52 66.0696C227.64 66.0696 226.98 66.0896 226.54 66.1296V61.5696C228.42 61.5696 229.98 61.4696 231.22 61.2696C232.5 61.0696 233.5 60.8296 234.22 60.5496C234.98 60.2696 235.5 60.0096 235.78 59.7696H238.72C238.8 60.1696 238.86 60.6696 238.9 61.2696C238.94 61.8296 238.98 62.2896 239.02 62.6496C240.42 61.4496 241.8 60.6096 243.16 60.1296C244.56 59.6496 245.88 59.4096 247.12 59.4096C249.52 59.4096 251.62 60.0296 253.42 61.2696C255.26 62.5096 256.68 64.2696 257.68 66.5496C258.72 68.8296 259.24 71.5096 259.24 74.5896C259.24 77.7896 258.62 80.6696 257.38 83.2296C256.14 85.7496 254.4 87.7296 252.16 89.1696C249.96 90.6096 247.36 91.3296 244.36 91.3296C243.28 91.3296 242.3 91.2096 241.42 90.9696C240.58 90.7696 239.78 90.5296 239.02 90.2496V96.0096C239.02 96.5696 239 97.3496 238.96 98.3496C238.96 99.3896 238.92 100.37 238.84 101.29C239.48 101.21 240.18 101.15 240.94 101.11C241.7 101.11 242.28 101.11 242.68 101.11V105.67H226.96ZM243.4 86.8296C245.24 86.7896 246.66 86.2496 247.66 85.2096C248.7 84.1296 249.42 82.7296 249.82 81.0096C250.22 79.2896 250.42 77.4496 250.42 75.4896C250.42 73.6496 250.2 71.9096 249.76 70.2696C249.32 68.6296 248.62 67.3096 247.66 66.3096C246.7 65.2696 245.44 64.7696 243.88 64.8096C242.88 64.8496 241.96 65.1096 241.12 65.5896C240.28 66.0296 239.58 66.6496 239.02 67.4496C239.02 68.6896 239.02 69.9296 239.02 71.1696C239.02 72.3696 239.02 73.5696 239.02 74.7696C239.02 75.9696 239.02 77.1896 239.02 78.4296C239.02 79.6296 239.02 80.8496 239.02 82.0896C239.02 83.2896 239.02 84.5096 239.02 85.7496C239.46 86.0296 240.08 86.2896 240.88 86.5296C241.68 86.7696 242.52 86.8696 243.4 86.8296ZM313.395 91.3296C311.675 91.3296 309.995 91.1096 308.355 90.6696C306.715 90.2296 305.435 89.6696 304.515 88.9896L304.635 90.7896H300.075L299.835 80.4696H303.735C303.855 81.6696 304.335 82.7696 305.175 83.7696C306.015 84.7696 307.115 85.5696 308.475 86.1696C309.835 86.7296 311.355 87.0096 313.035 87.0096C313.715 87.0096 314.355 86.9096 314.955 86.7096C315.595 86.5096 316.115 86.1896 316.515 85.7496C316.955 85.2696 317.175 84.6896 317.175 84.0096C317.175 83.2496 316.895 82.6296 316.335 82.1496C315.815 81.6696 315.035 81.2096 313.995 80.7696C312.995 80.3296 311.735 79.8296 310.215 79.2696C308.975 78.7896 307.715 78.2896 306.435 77.7696C305.195 77.2496 304.035 76.6296 302.955 75.9096C301.915 75.1496 301.075 74.2296 300.435 73.1496C299.795 72.0296 299.475 70.6696 299.475 69.0696C299.475 67.9096 299.695 66.7696 300.135 65.6496C300.575 64.4896 301.255 63.4496 302.175 62.5296C303.095 61.5696 304.255 60.8096 305.655 60.2496C307.095 59.6896 308.795 59.4096 310.755 59.4096C311.835 59.4096 313.055 59.5896 314.415 59.9496C315.815 60.2696 316.995 60.7696 317.955 61.4496V59.7096H322.515V70.3296H318.615C318.375 68.9296 317.875 67.7296 317.115 66.7296C316.395 65.7296 315.455 64.9696 314.295 64.4496C313.135 63.8896 311.835 63.6096 310.395 63.6096C309.395 63.6096 308.475 63.8496 307.635 64.3296C306.835 64.8096 306.435 65.6296 306.435 66.7896C306.435 67.7096 306.755 68.4496 307.395 69.0096C308.035 69.5296 308.915 69.9696 310.035 70.3296C311.155 70.6896 312.395 71.1096 313.755 71.5896C315.795 72.2696 317.595 73.0696 319.155 73.9896C320.755 74.9096 322.015 76.0296 322.935 77.3496C323.855 78.6296 324.315 80.2096 324.315 82.0896C324.315 84.1696 323.795 85.8896 322.755 87.2496C321.715 88.6096 320.355 89.6296 318.675 90.3096C317.035 90.9896 315.275 91.3296 313.395 91.3296ZM367.956 77.5896L365.676 52.8696C365.556 51.5896 365.856 50.3696 366.576 49.2096C367.336 48.0096 368.476 47.4096 369.996 47.4096C371.636 47.4096 372.776 48.0096 373.416 49.2096C374.096 50.3696 374.376 51.5896 374.256 52.8696L372.036 77.5896H367.956ZM369.936 91.3296C368.776 91.3296 367.756 90.8696 366.876 89.9496C366.036 89.0296 365.616 87.9296 365.616 86.6496C365.616 85.3696 366.056 84.2696 366.936 83.3496C367.816 82.4296 368.836 81.9696 369.996 81.9696C371.236 81.9696 372.256 82.4296 373.056 83.3496C373.896 84.2696 374.316 85.3696 374.316 86.6496C374.316 87.9296 373.876 89.0296 372.996 89.9496C372.116 90.8696 371.096 91.3296 369.936 91.3296Z" fill="url(#paint7_linear_0_1)"/>
</g>
<g filter="url(#filter8_d_0_1)">
<path d="M82.2382 82.2761C28.0506 110.74 32.3946 156.404 76.3309 174.979C120.267 193.555 165.849 197.688 236.18 190.56" stroke="url(#paint8_linear_0_1)" stroke-width="3"/>
</g>
<g filter="url(#filter9_d_0_1)">
<path d="M377.708 49.6237C438.707 27.1057 547.376 30.2067 584.325 51.1664C621.274 72.1262 620.517 117.7 569.778 142.84C569.778 142.84 517.175 171.048 484.24 174.403" stroke="url(#paint9_linear_0_1)" stroke-width="3"/>
</g>
<g filter="url(#filter10_f_0_1)">
<rect x="297" y="205" width="132" height="131" fill="#E894C6" fill-opacity="0.2"/>
</g>
<path d="M300.703 279.07C299.583 277.01 298.763 274.9 298.243 272.74C297.723 270.56 297.463 268.35 297.463 266.11C297.463 264.61 297.573 263.13 297.793 261.67C298.033 260.21 298.393 258.77 298.873 257.35C299.353 255.93 299.963 254.53 300.703 253.15C300.843 252.89 301.033 252.73 301.273 252.67C301.533 252.61 301.773 252.63 301.993 252.73C302.233 252.81 302.403 252.98 302.503 253.24C302.603 253.48 302.583 253.79 302.443 254.17C301.923 255.49 301.483 256.81 301.123 258.13C300.763 259.45 300.493 260.77 300.313 262.09C300.133 263.41 300.043 264.75 300.043 266.11C300.043 267.47 300.133 268.81 300.313 270.13C300.513 271.45 300.793 272.76 301.153 274.06C301.513 275.38 301.943 276.71 302.443 278.05C302.603 278.43 302.623 278.74 302.503 278.98C302.403 279.24 302.233 279.41 301.993 279.49C301.773 279.59 301.533 279.61 301.273 279.55C301.033 279.49 300.843 279.33 300.703 279.07ZM317.239 266.71C319.789 266.71 321.829 268.75 321.829 271.27C321.829 273.79 319.789 275.83 317.239 275.83C314.749 275.83 312.679 273.79 312.679 271.27C312.679 268.75 314.749 266.71 317.239 266.71ZM317.239 274.3C318.949 274.3 320.299 272.95 320.299 271.27C320.299 269.59 318.949 268.24 317.239 268.24C315.589 268.24 314.209 269.59 314.209 271.27C314.209 272.95 315.589 274.3 317.239 274.3ZM342.254 271.36C341.274 271.36 340.374 271.13 339.554 270.67C338.734 270.19 338.074 269.55 337.574 268.75C337.074 267.95 336.824 267.05 336.824 266.05C336.824 265.13 337.054 264.27 337.514 263.47C337.994 262.65 338.644 261.99 339.464 261.49C340.284 260.97 341.214 260.71 342.254 260.71C343.214 260.71 344.104 260.94 344.924 261.4C345.764 261.86 346.434 262.5 346.934 263.32C347.434 264.12 347.684 265.03 347.684 266.05C347.684 267.03 347.434 267.92 346.934 268.72C346.454 269.52 345.804 270.16 344.984 270.64C344.164 271.12 343.254 271.36 342.254 271.36ZM367.4 257.68C369.08 257.68 370.49 258.02 371.63 258.7C372.77 259.38 373.63 260.34 374.21 261.58C374.81 262.82 375.11 264.27 375.11 265.93H372.32C372.32 264.65 372.14 263.56 371.78 262.66C371.44 261.76 370.91 261.07 370.19 260.59C369.47 260.09 368.54 259.84 367.4 259.84C365.7 259.84 364.44 260.38 363.62 261.46C362.82 262.54 362.42 264.03 362.42 265.93H359.63C359.63 264.27 359.91 262.83 360.47 261.61C361.05 260.37 361.91 259.41 363.05 258.73C364.21 258.03 365.66 257.68 367.4 257.68ZM392.468 271.36C391.488 271.36 390.588 271.13 389.768 270.67C388.948 270.19 388.288 269.55 387.788 268.75C387.288 267.95 387.038 267.05 387.038 266.05C387.038 265.13 387.268 264.27 387.728 263.47C388.208 262.65 388.858 261.99 389.678 261.49C390.498 260.97 391.428 260.71 392.468 260.71C393.428 260.71 394.318 260.94 395.138 261.4C395.978 261.86 396.648 262.5 397.148 263.32C397.648 264.12 397.898 265.03 397.898 266.05C397.898 267.03 397.648 267.92 397.148 268.72C396.668 269.52 396.018 270.16 395.198 270.64C394.378 271.12 393.468 271.36 392.468 271.36ZM413.655 266.71C416.205 266.71 418.245 268.75 418.245 271.27C418.245 273.79 416.205 275.83 413.655 275.83C411.165 275.83 409.095 273.79 409.095 271.27C409.095 268.75 411.165 266.71 413.655 266.71ZM413.655 274.3C415.365 274.3 416.715 272.95 416.715 271.27C416.715 269.59 415.365 268.24 413.655 268.24C412.005 268.24 410.625 269.59 410.625 271.27C410.625 272.95 412.005 274.3 413.655 274.3ZM426.315 279.07C426.155 279.33 425.955 279.49 425.715 279.55C425.475 279.61 425.235 279.59 424.995 279.49C424.755 279.39 424.585 279.22 424.485 278.98C424.385 278.74 424.405 278.43 424.545 278.05C425.085 276.71 425.525 275.38 425.865 274.06C426.225 272.76 426.495 271.45 426.675 270.13C426.855 268.81 426.945 267.47 426.945 266.11C426.945 264.75 426.845 263.41 426.645 262.09C426.465 260.77 426.195 259.46 425.835 258.16C425.495 256.84 425.065 255.51 424.545 254.17C424.405 253.79 424.385 253.48 424.485 253.24C424.605 252.98 424.775 252.81 424.995 252.73C425.215 252.63 425.445 252.61 425.685 252.67C425.945 252.73 426.155 252.89 426.315 253.15C427.415 255.19 428.225 257.3 428.745 259.48C429.265 261.66 429.525 263.87 429.525 266.11C429.525 267.61 429.405 269.1 429.165 270.58C428.945 272.04 428.595 273.48 428.115 274.9C427.655 276.32 427.055 277.71 426.315 279.07Z" fill="#5F60D1"/>
<defs>
<filter id="filter0_d_0_1" x="208.598" y="121.703" width="309.472" height="392.496" filterUnits="userSpaceOnUse" color-interpolation-filters="sRGB">
<feFlood flood-opacity="0" result="BackgroundImageFix"/>
<feColorMatrix in="SourceAlpha" type="matrix" values="0 0 0 0 0 0 0 0 0 0 0 0 0 0 0 0 0 0 127 0" result="hardAlpha"/>
<feOffset dy="8"/>
<feGaussianBlur stdDeviation="5"/>
<feComposite in2="hardAlpha" operator="out"/>
<feColorMatrix type="matrix" values="0 0 0 0 0.839216 0 0 0 0 0.568627 0 0 0 0 0.823529 0 0 0 0.32 0"/>
<feBlend mode="normal" in2="BackgroundImageFix" result="effect1_dropShadow_0_1"/>
<feBlend mode="normal" in="SourceGraphic" in2="effect1_dropShadow_0_1" result="shape"/>
</filter>
<filter id="filter1_f_0_1" x="12.0996" y="19.6047" width="50.9189" height="51.3625" filterUnits="userSpaceOnUse" color-interpolation-filters="sRGB">
<feFlood flood-opacity="0" result="BackgroundImageFix"/>
<feBlend mode="normal" in="SourceGraphic" in2="BackgroundImageFix" result="shape"/>
<feGaussianBlur stdDeviation="2" result="effect1_foregroundBlur_0_1"/>
</filter>
<filter id="filter2_f_0_1" x="60.5625" y="12.5864" width="23.6738" height="23.8582" filterUnits="userSpaceOnUse" color-interpolation-filters="sRGB">
<feFlood flood-opacity="0" result="BackgroundImageFix"/>
<feBlend mode="normal" in="SourceGraphic" in2="BackgroundImageFix" result="shape"/>
<feGaussianBlur stdDeviation="2" result="effect1_foregroundBlur_0_1"/>
</filter>
<filter id="filter3_f_0_1" x="64.2773" y="42.8489" width="18.5156" height="18.5161" filterUnits="userSpaceOnUse" color-interpolation-filters="sRGB">
<feFlood flood-opacity="0" result="BackgroundImageFix"/>
<feBlend mode="normal" in="SourceGraphic" in2="BackgroundImageFix" result="shape"/>
<feGaussianBlur stdDeviation="2" result="effect1_foregroundBlur_0_1"/>
</filter>
<filter id="filter4_f_0_1" x="539.11" y="202.449" width="48.4316" height="49.2639" filterUnits="userSpaceOnUse" color-interpolation-filters="sRGB">
<feFlood flood-opacity="0" result="BackgroundImageFix"/>
<feBlend mode="normal" in="SourceGraphic" in2="BackgroundImageFix" result="shape"/>
<feGaussianBlur stdDeviation="2" result="effect1_foregroundBlur_0_1"/>
</filter>
<filter id="filter5_f_0_1" x="511.371" y="209.658" width="22.9922" height="22.9165" filterUnits="userSpaceOnUse" color-interpolation-filters="sRGB">
<feFlood flood-opacity="0" result="BackgroundImageFix"/>
<feBlend mode="normal" in="SourceGraphic" in2="BackgroundImageFix" result="shape"/>
<feGaussianBlur stdDeviation="2" result="effect1_foregroundBlur_0_1"/>
</filter>
<filter id="filter6_f_0_1" x="529.222" y="191.081" width="17.9873" height="17.9871" filterUnits="userSpaceOnUse" color-interpolation-filters="sRGB">
<feFlood flood-opacity="0" result="BackgroundImageFix"/>
<feBlend mode="normal" in="SourceGraphic" in2="BackgroundImageFix" result="shape"/>
<feGaussianBlur stdDeviation="2" result="effect1_foregroundBlur_0_1"/>
</filter>
<filter id="filter7_d_0_1" x="82.9912" y="47.4097" width="295.445" height="66.26" filterUnits="userSpaceOnUse" color-interpolation-filters="sRGB">
<feFlood flood-opacity="0" result="BackgroundImageFix"/>
<feColorMatrix in="SourceAlpha" type="matrix" values="0 0 0 0 0 0 0 0 0 0 0 0 0 0 0 0 0 0 127 0" result="hardAlpha"/>
<feOffset dy="4"/>
<feGaussianBlur stdDeviation="2"/>
<feComposite in2="hardAlpha" operator="out"/>
<feColorMatrix type="matrix" values="0 0 0 0 0 0 0 0 0 0 0 0 0 0 0 0 0 0 0.25 0"/>
<feBlend mode="normal" in2="BackgroundImageFix" result="effect1_dropShadow_0_1"/>
<feBlend mode="normal" in="SourceGraphic" in2="effect1_dropShadow_0_1" result="shape"/>
</filter>
<filter id="filter8_d_0_1" x="36.9854" y="80.9482" width="203.347" height="122.401" filterUnits="userSpaceOnUse" color-interpolation-filters="sRGB">
<feFlood flood-opacity="0" result="BackgroundImageFix"/>
<feColorMatrix in="SourceAlpha" type="matrix" values="0 0 0 0 0 0 0 0 0 0 0 0 0 0 0 0 0 0 127 0" result="hardAlpha"/>
<feOffset dy="4"/>
<feGaussianBlur stdDeviation="2"/>
<feComposite in2="hardAlpha" operator="out"/>
<feColorMatrix type="matrix" values="0 0 0 0 0 0 0 0 0 0 0 0 0 0 0 0 0 0 0.25 0"/>
<feBlend mode="normal" in2="BackgroundImageFix" result="effect1_dropShadow_0_1"/>
<feBlend mode="normal" in="SourceGraphic" in2="effect1_dropShadow_0_1" result="shape"/>
</filter>
<filter id="filter9_d_0_1" x="373.188" y="32.5447" width="242.498" height="151.35" filterUnits="userSpaceOnUse" color-interpolation-filters="sRGB">
<feFlood flood-opacity="0" result="BackgroundImageFix"/>
<feColorMatrix in="SourceAlpha" type="matrix" values="0 0 0 0 0 0 0 0 0 0 0 0 0 0 0 0 0 0 127 0" result="hardAlpha"/>
<feOffset dy="4"/>
<feGaussianBlur stdDeviation="2"/>
<feComposite in2="hardAlpha" operator="out"/>
<feColorMatrix type="matrix" values="0 0 0 0 0 0 0 0 0 0 0 0 0 0 0 0 0 0 0.25 0"/>
<feBlend mode="normal" in2="BackgroundImageFix" result="effect1_dropShadow_0_1"/>
<feBlend mode="normal" in="SourceGraphic" in2="effect1_dropShadow_0_1" result="shape"/>
</filter>
<filter id="filter10_f_0_1" x="227" y="135" width="272" height="271" filterUnits="userSpaceOnUse" color-interpolation-filters="sRGB">
<feFlood flood-opacity="0" result="BackgroundImageFix"/>
<feBlend mode="normal" in="SourceGraphic" in2="BackgroundImageFix" result="shape"/>
<feGaussianBlur stdDeviation="35" result="effect1_foregroundBlur_0_1"/>
</filter>
<linearGradient id="paint0_linear_0_1" x1="375.425" y1="135.795" x2="457.503" y2="135.795" gradientUnits="userSpaceOnUse">
<stop stop-color="#85656E"/>
<stop offset="0.53" stop-color="#EBB2C3"/>
</linearGradient>
<linearGradient id="paint1_linear_0_1" x1="347.488" y1="156.687" x2="429.566" y2="156.687" gradientUnits="userSpaceOnUse">
<stop stop-color="#85656E"/>
<stop offset="0.44" stop-color="#EBB2C3"/>
</linearGradient>
<linearGradient id="paint2_linear_0_1" x1="0" y1="12.0918" x2="82.078" y2="12.0918" gradientUnits="userSpaceOnUse">
<stop stop-color="#85656E"/>
<stop offset="0.44" stop-color="#EBB2C3"/>
</linearGradient>
<linearGradient id="paint3_linear_0_1" x1="464.092" y1="398.951" x2="382.092" y2="398.951" gradientUnits="userSpaceOnUse">
<stop stop-color="#916E79"/>
<stop offset="0.6" stop-color="#EBB2C3"/>
</linearGradient>
<linearGradient id="paint4_linear_0_1" x1="427.337" y1="412.508" x2="325.561" y2="415.699" gradientUnits="userSpaceOnUse">
<stop stop-color="#916E79"/>
<stop offset="0.845" stop-color="#EBB2C3"/>
</linearGradient>
<linearGradient id="paint5_linear_0_1" x1="99.6991" y1="31.4773" x2="-21.246" y2="24.7298" gradientUnits="userSpaceOnUse">
<stop stop-color="#916E79"/>
<stop offset="0.6" stop-color="#EBB2C3"/>
</linearGradient>
<linearGradient id="paint6_linear_0_1" x1="363.333" y1="380.93" x2="363.333" y2="413.175" gradientUnits="userSpaceOnUse">
<stop stop-color="#916E79"/>
<stop offset="0.92" stop-color="#EBB2C3"/>
</linearGradient>
<linearGradient id="paint7_linear_0_1" x1="0" y1="66.9609" x2="462.856" y2="66.9609" gradientUnits="userSpaceOnUse">
<stop stop-color="#C08CE1"/>
<stop offset="1" stop-color="#E793C5"/>
</linearGradient>
<linearGradient id="paint8_linear_0_1" x1="43.1079" y1="125.82" x2="295.485" y2="163.081" gradientUnits="userSpaceOnUse">
<stop stop-color="#C08CE1"/>
<stop offset="1" stop-color="#BAAFEE"/>
</linearGradient>
<linearGradient id="paint9_linear_0_1" x1="644.238" y1="105.744" x2="379.145" y2="43.5016" gradientUnits="userSpaceOnUse">
<stop stop-color="#BAAFEE"/>
<stop offset="1" stop-color="#C08CE1"/>
</linearGradient>
</defs>
</svg>
