<svg width="922" height="766" viewBox="0 0 922 766" fill="none" xmlns="http://www.w3.org/2000/svg">
<path d="M65.4756 738.993C58.328 744.282 51.6662 750.662 45.0084 756.906C23.9895 776.618 0 758.661 0 729.846V50C0 22.3858 22.3857 0 50 0H911C927.06 23.112 924.205 38.6292 911 68.0601C865.926 101.834 838.092 107.127 782.878 86.6219C753.462 68.2923 736.558 61.3914 704.065 68.0601C704.065 68.0601 592.131 115.889 560.18 194.126C539.501 258.884 520.602 295.883 465.604 363.889C414.202 410.59 381.408 429.339 312.424 443.164C254.982 445.855 223.22 442.532 166.922 428.082C125.349 414.367 102.204 410.816 61.8381 428.082C41.2298 441.128 35.9237 453.196 36.7795 482.608C42.901 519.027 50.1971 539.085 69.5173 574.257C89.2734 612.13 95.9414 635.352 94.1717 674.8C94.068 706.547 86.693 719.945 65.4756 738.993Z" fill="url(#paint0_linear_53_459)" fill-opacity="0.6"/>
<defs>
<linearGradient id="paint0_linear_53_459" x1="922" y1="25.5" x2="-2.13938e-05" y2="765" gradientUnits="userSpaceOnUse">
<stop stop-color="#BBBCF1"/>
<stop offset="0.477213" stop-color="#C08CE1"/>
<stop offset="1" stop-color="white" stop-opacity="0.42"/>
</linearGradient>
</defs>
</svg>
